<svg id="Layer_1" xmlns="http://www.w3.org/2000/svg" viewBox="0 0 190 40" width="190" height="40">
  <style>
    .st0{fill:#FFFFFF;} .st1{fill:#00667a;} .st2{fill:#CC1030;}
  </style>
  <path class="st0" d="M62 25.1c0-.8-.3-1.5-.9-1.9-.6-.4-1.7-.9-3.2-1.4-1.5-.5-2.7-1-3.6-1.5-2.4-1.3-3.7-3.1-3.7-5.3 0-1.2.3-2.2 1-3.1.7-.9 1.6-1.6 2.8-2.1 1.3-.5 2.6-.8 4.2-.8 1.5 0 2.9.3 4.1.8 1.2.6 2.1 1.3 2.8 2.3.7 1 1 2.2 1 3.4H62c0-1-.3-1.7-.9-2.3-.6-.5-1.5-.8-2.6-.8s-1.9.2-2.5.7c-.6.5-.9 1.1-.9 1.8s.4 1.3 1.1 1.7c.7.5 1.7.9 3.1 1.3 2.5.8 4.3 1.7 5.5 2.8 1.2 1.1 1.7 2.5 1.7 4.2 0 1.9-.7 3.3-2.1 4.4-1.4 1.1-3.3 1.6-5.7 1.6-1.7 0-3.2-.3-4.5-.9-1.4-.6-2.4-1.4-3.1-2.5-.7-1-1.1-2.3-1.1-3.6h4.4c0 2.4 1.4 3.5 4.3 3.5 1 0 1.9-.2 2.5-.6.5-.3.8-.9.8-1.7zM78.2 31c-.2-.4-.3-1.1-.4-1.6-1 1.1-2.2 1.6-3.8 1.6-1.5 0-2.7-.4-3.7-1.3-1-.8-1.5-1.9-1.5-3.2 0-1.6.6-2.8 1.8-3.7 1.2-.8 2.9-1.3 5.1-1.3h1.8v-.9c0-.7-.2-1.2-.5-1.7-.4-.4-.9-.6-1.7-.6-.7 0-1.2.2-1.6.5-.4.3-.6.8-.6 1.3h-4c0-.9.3-1.7.8-2.4s1.3-1.3 2.3-1.7c1-.4 2.1-.6 3.3-.6 1.8 0 3.3.5 4.4 1.4 1.1.9 1.6 2.2 1.6 3.9v6.5c0 1.4.2 2.8.6 3.5v.3h-3.9zm-3.4-3.1c.6 0 1.1-.1 1.6-.4s.9-.6 1.1-1.1v-2.6H76c-2 0-3.1.7-3.2 2.1v.2c0 .5.2.9.5 1.2.4.5.9.6 1.5.6zM93.1 19.5c-.5-.1-1-.1-1.4-.1-1.5 0-2.5.5-3 1.5V31h-4V15.7h3.8l.1 1.8c.8-1.4 1.9-2.1 3.3-2.1.4 0 .9.1 1.2.2v3.9zM103.2 26.6c0-.5-.2-.9-.7-1.2-.5-.3-1.3-.5-2.3-.8-3.6-.7-5.4-2.3-5.4-4.5 0-1.3.6-2.4 1.7-3.3 1.1-.9 2.6-1.3 4.3-1.3 1.9 0 3.4.4 4.6 1.3 1.1.9 1.7 2.1 1.7 3.5h-4c0-.6-.2-1.1-.6-1.4-.4-.4-.9-.6-1.7-.6-.7 0-1.2.2-1.6.5-.4.3-.6.7-.6 1.2 0 .4.2.8.6 1.1.4.3 1.1.5 2.1.7 1 .2 1.8.4 2.5.7 2.1.8 3.2 2.1 3.2 4 0 1.4-.6 2.5-1.8 3.3-1.2.8-2.7 1.3-4.6 1.3-1.3 0-2.4-.2-3.4-.7-1-.4-1.7-1.1-2.3-1.8-.6-.8-.8-1.6-.8-2.5h3.8c0 .7.3 1.3.8 1.6.5.4 1.1.6 2 .6.8 0 1.4-.1 1.7-.4.6-.5.8-.8.8-1.3zM125 23.1c0-1.5.3-2.8.9-4 .6-1.2 1.4-2.1 2.5-2.7 1.1-.6 2.3-1 3.7-1 2 0 3.7.6 5 1.9 1.3 1.2 2 2.9 2.1 5v1c0 2.3-.6 4.1-1.9 5.5-1.3 1.4-3 2.1-5.2 2.1s-3.9-.7-5.2-2.1c-1.3-1.4-1.9-3.3-1.9-5.6v-.1zm4 .3c0 1.4.3 2.5.8 3.3.5.8 1.3 1.1 2.3 1.1 1 0 1.7-.4 2.3-1.1.5-.7.8-1.9.8-3.6 0-1.4-.3-2.5-.8-3.2-.5-.8-1.3-1.1-2.3-1.1-1 0-1.7.4-2.3 1.1-.6.7-.8 1.9-.8 3.5zM145.4 15.7l.1 1.7c1.1-1.3 2.5-2 4.3-2 1.9 0 3.3.8 4 2.3 1.1-1.5 2.6-2.3 4.5-2.3 1.6 0 2.8.5 3.6 1.4.8.9 1.2 2.4 1.2 4.3V31h-4v-9.8c0-.9-.2-1.5-.5-1.9-.3-.4-.9-.6-1.8-.6-1.2 0-2 .6-2.5 1.7V31h-4v-9.8c0-.9-.2-1.5-.5-1.9-.3-.4-.9-.6-1.7-.6-1.1 0-2 .5-2.5 1.4V31h-4V15.7h3.8zM175 31c-.2-.4-.3-1.1-.4-1.6-1 1.1-2.2 1.6-3.8 1.6-1.5 0-2.7-.4-3.7-1.3-1-.8-1.5-1.9-1.5-3.2 0-1.6.6-2.8 1.8-3.7 1.2-.8 2.9-1.3 5.1-1.3h1.8v-.9c0-.7-.2-1.2-.5-1.7s-.9-.6-1.7-.6c-.7 0-1.2.2-1.6.5-.4.3-.6.8-.6 1.3h-4c0-.9.3-1.7.8-2.4s1.3-1.3 2.3-1.7c1-.4 2.1-.6 3.3-.6 1.9 0 3.3.5 4.4 1.4 1.1.9 1.6 2.2 1.6 3.9v6.5c0 1.4.2 2.8.6 3.5v.3H175zm-3.3-3.1c.6 0 1.1-.1 1.6-.4.5-.3.9-.6 1.1-1.1v-2.6h-1.5c-2 0-3.1.7-3.2 2.1v.2c0 .5.2.9.5 1.2.4.5.8.6 1.5.6zM189.9 19.5c-.5-.1-1-.1-1.4-.1-1.5 0-2.5.5-3 1.5V31h-4V15.7h3.8l.1 1.8c.8-1.4 1.9-2.1 3.3-2.1.4 0 .9.1 1.2.2v3.9zM117.6 15.5c-1.6 0-3 .6-4 1.9V9.5h-4V31h4V20.1c.5-.9 1.4-1.3 2.5-1.3.9 0 1.5.2 1.9.6.4.4.6 1 .6 1.9V31h4v-9.9c-.1-3.7-1.7-5.6-5-5.6z"/>
  <g>
    <path class="st0" d="M40 20C40 9 31 0 20 0S0 9 0 20s9 20 20 20 20-9 20-20"/>
    <path class="st1" d="M5.5 24.3v-8.6L1.2 20zM12.8 33.3l-6.1-6.1v6.1zM24.3 34.5h-8.6l4.3 4.3zM33.3 27.2l-6.1 6.1h6.1zM34.5 15.7v8.6l4.3-4.3zM27.2 6.7l6.1 6.1V6.7zM5.5 26l-4.2-4.2c.4 3.7 1.8 7.3 4.2 10.2v-6zM14 34.5H8c2.9 2.4 6.4 3.9 10.2 4.2L14 34.5zM26 34.5l-4.2 4.2c3.7-.4 7.3-1.8 10.2-4.2h-6zM34.5 26v6c2.4-2.9 3.9-6.4 4.2-10.2L34.5 26zM34.5 14l4.2 4.2c-.4-3.7-1.8-7.3-4.2-10.2v6z"/>
    <path class="st2" d="M33.3 16c0-.9-.4-1.8-1-2.5l-5.7-5.7c-.7-.7-1.6-1-2.5-1h-5.6c-.8 0-1.5-.5-1.7-1.3v-.1c-.4-1.5 0-3 1-4-.1 0-.3.1-.4.1C16 2 15.2 3 14.9 4.2c-.5-.7-1.3-1.2-2-1.5-.4.8-.5 1.6-.4 2.5-1.1-.6-2.4-.7-3.6-.2-.1 0-.3.1-.4.1 1.4.1 2.8.9 3.5 2.2v.1c.3.7.2 1.5-.3 2.1l-4 4c-.7.7-1 1.6-1 2.5v8.1c0 .9.4 1.8 1 2.5l5.7 5.7c.7.7 1.6 1 2.5 1H24c.9 0 1.8-.4 2.5-1l5.7-5.7c.7-.7 1-1.6 1-2.5l.1-8.1z"/>
  </g>
</svg>
