<?xml version="1.0" encoding="utf-8"?>
<!-- Generator: Adobe Illustrator 20.1.0, SVG Export Plug-In . SVG Version: 6.00 Build 0)  -->
<svg version="1.1" id="Layer_1" xmlns="http://www.w3.org/2000/svg" xmlns:xlink="http://www.w3.org/1999/xlink" x="0px" y="0px"
	 viewBox="0 0 140 40" style="enable-background:new 0 0 140 40;" xml:space="preserve">
<style type="text/css">
	.st0{fill:#FFFFFF;}
	.st1{fill:#00667a;}
	.st2{fill:#CC1030;}
</style>
<g>
	<g>
		<path class="st0" d="M140,20c0-11-9-20-20-20s-20,9-20,20s9,20,20,20S140,31,140,20"/>
		<g>
			<polygon class="st1" points="105.5,24.3 105.5,15.7 101.2,20 			"/>
			<polygon class="st1" points="112.8,33.3 106.7,27.2 106.7,33.3 			"/>
			<polygon class="st1" points="124.3,34.5 115.7,34.5 120,38.8 			"/>
			<polygon class="st1" points="133.3,27.2 127.2,33.3 133.3,33.3 			"/>
			<polygon class="st1" points="134.5,15.7 134.5,24.3 138.8,20 			"/>
			<polygon class="st1" points="127.2,6.7 133.3,12.8 133.3,6.7 			"/>
			<path class="st1" d="M105.5,26l-4.2-4.2c0.4,3.7,1.8,7.3,4.2,10.2l0,0V26z"/>
			<path class="st1" d="M114,34.5h-6c2.9,2.4,6.4,3.9,10.2,4.2l0,0L114,34.5z"/>
			<path class="st1" d="M126,34.5l-4.2,4.2c3.7-0.4,7.3-1.8,10.2-4.2l0,0H126z"/>
			<path class="st1" d="M134.5,26v6c2.4-2.9,3.9-6.4,4.2-10.2l0,0L134.5,26z"/>
			<path class="st1" d="M134.5,14l4.2,4.2c-0.4-3.7-1.8-7.3-4.2-10.2l0,0V14z"/>
		</g>
	</g>
	<path class="st2" d="M133.3,16c0-0.9-0.4-1.8-1-2.5l-5.7-5.7c-0.7-0.7-1.6-1-2.5-1h-5.6c-0.8,0-1.5-0.5-1.7-1.3c0,0,0,0,0-0.1
		c-0.4-1.5,0-3,1-4c-0.1,0-0.3,0.1-0.4,0.1c-1.2,0.5-2,1.5-2.4,2.7c-0.5-0.7-1.3-1.2-2-1.5c-0.4,0.8-0.5,1.6-0.4,2.5
		c-1.1-0.6-2.4-0.7-3.6-0.2c-0.1,0.1-0.2,0.1-0.4,0.2c1.4,0.1,2.7,0.9,3.5,2.2v0.1c0.3,0.7,0.2,1.5-0.3,2.1l-4,4
		c-0.7,0.7-1,1.6-1,2.5v8.1c0,0.9,0.4,1.8,1,2.5l5.7,5.7c0.7,0.7,1.6,1,2.5,1h8.1c0.9,0,1.8-0.4,2.5-1l5.7-5.7c0.7-0.7,1-1.6,1-2.5
		V16z"/>
</g>
<g>
	<path class="st0" d="M89.9,19.2c-0.1-0.5-0.2-1-0.4-1.6c-0.1-0.5-0.3-1-0.5-1.5c-0.2-0.5-0.3-0.9-0.5-1.3c-0.2-0.4-0.3-0.7-0.4-1
		c-0.1-0.3-0.2-0.5-0.3-0.6l-3.1,1.7c0.2,0.3,0.3,0.7,0.6,1.1c0.2,0.4,0.4,0.9,0.6,1.4c0.2,0.5,0.4,1,0.5,1.5c0.1,0.5,0.2,1,0.2,1.4
		c0,0.2-0.1,0.5-0.2,0.7s-0.3,0.4-0.5,0.5c-0.2,0.1-0.4,0.3-0.7,0.3c-0.2,0.1-0.5,0.1-0.7,0.1c-0.4,0-0.7-0.1-0.9-0.3
		s-0.4-0.5-0.5-0.8c-0.1-0.3-0.1-0.7-0.1-1.1c0-0.4,0-0.8,0.1-1.2c0-0.4,0.1-0.8,0.1-1.1c0.1-0.4,0.1-0.7,0.1-0.9l-3.2-0.5
		c-0.1,0.3-0.1,0.7-0.2,1.1c-0.1,0.4-0.2,0.8-0.3,1.3c-0.1,0.4-0.3,0.8-0.4,1.2c-0.2,0.4-0.4,0.8-0.6,1.1c-0.2,0.3-0.5,0.6-0.7,0.8
		c-0.3,0.2-0.6,0.3-0.9,0.3c-0.3,0-0.5,0-0.6-0.2c-0.1-0.2-0.2-0.4-0.2-0.7c0-0.3,0-0.6,0-1c0.1-0.4,0.1-0.8,0.2-1.2
		c0.1-0.4,0.2-0.8,0.3-1.2c0.1-0.4,0.2-0.7,0.2-1l-3.3-0.6c-0.2,0.7-0.4,1.4-0.6,2.1c-0.2,0.7-0.5,1.3-0.8,1.8
		c-0.3,0.5-0.7,1-1.1,1.3c-0.4,0.3-3,0.5-3.7,0.5c0,0,0,0-0.1,0c0,0-0.1,0-0.1,0h-0.1c-0.3,0-0.6-0.1-0.9-0.2
		c-0.3-0.2-0.6-0.4-0.8-0.8c-0.3-0.4-0.6-0.9-0.9-1.6c-0.3-0.7-0.6-1.5-0.9-2.4l-3.6,1.5c0.3,0.6,0.5,1.1,0.7,1.6
		c0.2,0.5,0.4,1,0.6,1.4c0.2,0.4,0.3,0.9,0.4,1.3c0.1,0.4,0.2,0.9,0.3,1.4v0c0,0,0,0,0,0c0,0,0,0.1,0,0.1c0,0,0,0.1,0,0.1
		c0,0,0,0.1,0,0.1c0,0.5-0.1,1-0.3,1.4c-0.2,0.5-0.5,0.9-0.8,1.4c-0.4,0.4-0.8,0.9-1.2,1.3c-0.5,0.4-1,0.8-1.5,1.2
		c-0.5,0.4-1.1,0.8-1.7,1.1c-0.6,0.3-1.2,0.7-1.8,1L57,35c1.1-0.5,2.1-1.1,3.1-1.8c1-0.7,1.8-1.4,2.5-2.2c0.7-0.8,1.4-1.6,1.9-2.6
		c0.5-0.9,0.9-1.9,1-2.9c0.4,0.2,0.7,0.2,1.1,0.3c0.3,0,0.6,0,0.8,0c0,0,0,0,0.1,0c0,0,0.1,0,0.1,0h2.3c0.5,0,1,0,1.4-0.1
		c0.4-0.1,0.8-0.2,1.1-0.3c0.3-0.1,0.6-0.3,0.8-0.5c0.2-0.2,0.4-0.4,0.6-0.6c0.2,0.3,0.4,0.5,0.6,0.7c0.2,0.2,0.5,0.4,0.7,0.5
		c0.3,0.1,0.6,0.3,0.9,0.3c0.3,0.1,0.7,0.1,1.1,0.1c0.5,0,0.9-0.1,1.3-0.1c0.4-0.1,0.7-0.2,1-0.3c0.3-0.1,0.6-0.3,0.8-0.5
		c0.2-0.2,0.4-0.4,0.6-0.7c0.2,0.2,0.4,0.4,0.6,0.6c0.2,0.2,0.5,0.4,0.8,0.5c0.3,0.2,0.6,0.3,1,0.4C83.5,26,84,26,84.4,26
		c0.9,0,1.8-0.1,2.5-0.4c0.7-0.3,1.3-0.6,1.7-1.1c0.5-0.5,0.8-1,1-1.7c0.2-0.7,0.3-1.4,0.3-2.2C90,20.2,90,19.7,89.9,19.2z"/>
	<path class="st0" d="M11.2,21.3c-0.1-0.4-0.2-0.8-0.3-1.2c-0.1-0.4-0.2-0.8-0.3-1.2c-0.2-0.9-0.5-1.8-0.9-2.7L6,17.9
		c0.3,0.6,0.5,1.2,0.8,1.7c0.2,0.5,0.4,1,0.6,1.5c0.2,0.5,0.3,0.9,0.4,1.3s0.2,0.8,0.2,1.2c0,0.5-0.1,1-0.3,1.5
		c-0.2,0.5-0.5,1-0.9,1.5c-0.4,0.5-0.8,1-1.3,1.5c-0.5,0.5-1.1,0.9-1.6,1.4c-0.6,0.4-1.2,0.9-1.8,1.2c-0.6,0.4-1.3,0.7-1.9,1L2.4,35
		c0.8-0.4,1.6-0.8,2.4-1.3c0.8-0.5,1.5-1,2.2-1.6c0.7-0.6,1.3-1.2,1.9-1.8c0.6-0.7,1-1.3,1.4-2.1c0.4-0.7,0.7-1.4,0.9-2.2
		c0.2-0.8,0.3-1.5,0.3-2.3c0-0.3,0-0.7-0.1-1.1C11.4,22.1,11.3,21.7,11.2,21.3z"/>
	<path class="st0" d="M56.2,22.8c0.2-0.7,0.4-1.4,0.4-2.3c0-0.5,0-1.1-0.1-1.6c-0.1-0.6-0.2-1.1-0.4-1.6c-0.1-0.5-0.3-1-0.5-1.5
		c-0.2-0.5-0.4-0.9-0.5-1.3c-0.2-0.4-0.3-0.7-0.4-1c-0.1-0.3-0.2-0.5-0.3-0.6l-3.2,1.8c0.2,0.3,0.4,0.7,0.6,1.2
		c0.2,0.5,0.5,1,0.7,1.5c0.2,0.5,0.4,1,0.5,1.6c0.1,0.5,0.2,1,0.2,1.5c0,0.3-0.1,0.5-0.2,0.7c-0.1,0.2-0.3,0.4-0.5,0.5
		c-0.2,0.1-0.4,0.3-0.7,0.3C51.5,22,51.2,22,51,22c-0.4,0-0.7-0.1-0.9-0.3c-0.2-0.2-0.4-0.5-0.5-0.8c-0.1-0.3-0.1-0.7-0.1-1.1
		c0-0.4,0-0.8,0.1-1.2c0-0.4,0.1-0.8,0.1-1.2s0.1-0.7,0.1-0.9l-3.3-0.5c-0.1,0.4-0.1,0.7-0.2,1.2c-0.1,0.4-0.2,0.9-0.3,1.3
		c-0.1,0.4-0.3,0.9-0.5,1.3c-0.2,0.4-0.4,0.8-0.6,1.1c-0.2,0.3-0.5,0.6-0.8,0.8c-0.3,0.2-0.6,0.3-0.9,0.4c-0.3,0-0.5,0-0.6-0.2
		c-0.1-0.2-0.2-0.4-0.2-0.7c0-0.3,0-0.7,0-1.1c0.1-0.4,0.1-0.8,0.2-1.2c0.1-0.4,0.2-0.8,0.3-1.2c0.1-0.4,0.2-0.7,0.3-1l-3.5-0.6
		c-0.2,0.7-0.4,1.5-0.6,2.2c-0.2,0.7-0.5,1.4-0.8,1.9c-0.3,0.6-0.7,1-1.2,1.4c-0.4,0.3-1,0.5-1.7,0.5c0,0,0,0,0,0c0,0,0,0-0.1,0
		c-0.2,0-0.4-0.1-0.6-0.4c-0.1-0.2-0.2-0.5-0.3-0.9c-0.1-0.4-0.2-0.8-0.2-1.3c0-0.1,0-0.1,0-0.2l0-0.1c-0.1-1.6-0.8-2.9-1.9-3.9
		c-1-0.8-2.1-1.2-3.4-1.2c-1.8,0-3.2,1.1-4.4,3.4l-0.2,0.4L24,18.1c-0.2,0.3-0.3,0.6-0.4,0.8c-0.3,0.6-0.6,1.1-0.9,1.5
		c-0.7,1-1.6,1.5-2.6,1.5c-0.1,0-0.1,0-0.2,0h-0.1c-0.2,0-0.4,0-0.6,0c-0.2,0-0.4,0-0.5-0.1c-0.2,0-0.3-0.1-0.4-0.2
		c-0.1-0.1-0.2-0.2-0.3-0.4c-0.2-0.5-0.3-1-0.4-1.6c0-0.5,0-1.1,0-1.7c0-0.6,0.1-1.2,0.1-1.8c0.1-0.6,0.1-1.2,0.1-1.9
		c0-0.7,0-1.5,0-2.3c0-0.8-0.1-1.7-0.1-2.5c0-0.8-0.1-1.6-0.2-2.4c-0.1-0.8-0.2-1.4-0.3-2l-3.9,1.2c0.1,0.7,0.2,1.4,0.3,2.3
		c0.1,0.9,0.1,1.8,0.2,2.8c0,1,0.1,1.9,0.1,2.9c0,1,0,1.8,0,2.6c0,0.8,0,1.5,0,2.1c0,0.6,0,1,0,1.4v0.2c0,0.2,0,0.5,0,0.8
		c0,0.3,0.1,0.7,0.1,1c0.1,0.4,0.2,0.7,0.4,1.1c0.2,0.4,0.5,0.7,0.8,1.1c0.6,0.5,1.2,0.9,2,1.2c0.6,0.2,1.4,0.3,2.2,0.4
		c0.1,0,0.3,0,0.4,0c0.8,0,1.5-0.1,2.1-0.3c0.5-0.2,1-0.4,1.3-0.7c0.4-0.3,0.7-0.7,0.9-1c2.4,1.3,4.3,1.9,5.6,1.9c1.1,0,2-0.3,2.7-1
		c0.7,0.7,1.6,1.1,2.7,1.1h0c0,0,0,0,0,0c0,0,0.1,0,0.1,0h0.2c0.6,0,1.1,0,1.5-0.1c0.4-0.1,0.8-0.2,1.1-0.3c0.3-0.1,0.6-0.3,0.8-0.5
		c0.2-0.2,0.4-0.4,0.6-0.6c0.2,0.3,0.4,0.5,0.6,0.7c0.2,0.2,0.5,0.4,0.8,0.6c0.3,0.2,0.6,0.3,0.9,0.3c0.3,0.1,0.7,0.1,1.2,0.1
		c0.5,0,0.9-0.1,1.3-0.1c0.4-0.1,0.7-0.2,1-0.3s0.6-0.3,0.8-0.5c0.2-0.2,0.5-0.4,0.7-0.7c0.2,0.2,0.4,0.5,0.6,0.7
		c0.2,0.2,0.5,0.4,0.8,0.6c0.3,0.2,0.6,0.3,1,0.4c0.4,0.1,0.8,0.1,1.3,0.1c1,0,1.8-0.1,2.6-0.4c0.7-0.3,1.3-0.6,1.8-1.1
		C55.6,24.1,55.9,23.5,56.2,22.8z M31.2,21.2c-0.1,0.6-0.2,1-0.5,1.1c-0.5,0.1-1.9-0.4-4-1.6c0.8-1.7,1.3-2.7,1.7-2.8
		c0.3-0.1,0.7,0,1.2,0.4c0.5,0.4,1,0.8,1.2,1.3C31.1,20,31.2,20.6,31.2,21.2z"/>
	<polygon class="st0" points="47.6,10.8 50,13.2 52.5,10.7 50,8.3 47.6,10.7 45.1,8.3 42.6,10.7 45.1,13.2 	"/>
	<polygon class="st0" points="49.9,7.4 47.6,5.1 45.2,7.3 47.6,9.6 	"/>
</g>
</svg>
