<?xml version="1.0" encoding="utf-8"?>
<!-- Generator: Adobe Illustrator 20.1.0, SVG Export Plug-In . SVG Version: 6.00 Build 0)  -->
<svg version="1.1" id="Layer_1" xmlns="http://www.w3.org/2000/svg" xmlns:xlink="http://www.w3.org/1999/xlink" x="0px" y="0px"
	 viewBox="0 0 190 40" style="enable-background:new 0 0 190 40;" xml:space="preserve">
<style type="text/css">
	.st0{fill:#FFFFFF;}
	.st1{fill:#04677B;}
	.st2{fill:#CC3533;}
</style>
<g>
	<g>
		<path class="st0" d="M62,25.1c0-0.8-0.3-1.5-0.9-1.9c-0.6-0.4-1.7-0.9-3.2-1.4c-1.5-0.5-2.7-1-3.6-1.5c-2.4-1.3-3.7-3.1-3.7-5.3
			c0-1.2,0.3-2.2,1-3.1c0.7-0.9,1.6-1.6,2.8-2.1C55.7,9.3,57,9,58.6,9c1.5,0,2.9,0.3,4.1,0.8c1.2,0.6,2.1,1.3,2.8,2.3
			c0.7,1,1,2.2,1,3.4H62c0-1-0.3-1.7-0.9-2.3c-0.6-0.5-1.5-0.8-2.6-0.8c-1.1,0-1.9,0.2-2.5,0.7c-0.6,0.5-0.9,1.1-0.9,1.8
			c0,0.7,0.4,1.3,1.1,1.7c0.7,0.5,1.7,0.9,3.1,1.3c2.5,0.8,4.3,1.7,5.5,2.8c1.2,1.1,1.7,2.5,1.7,4.2c0,1.9-0.7,3.3-2.1,4.4
			c-1.4,1.1-3.3,1.6-5.7,1.6c-1.7,0-3.2-0.3-4.5-0.9c-1.4-0.6-2.4-1.4-3.1-2.5c-0.7-1-1.1-2.3-1.1-3.6h4.4c0,2.4,1.4,3.5,4.3,3.5
			c1,0,1.9-0.2,2.5-0.6C61.7,26.5,62,25.9,62,25.1z"/>
		<path class="st0" d="M78.2,31c-0.2-0.4-0.3-1.1-0.4-1.6c-1,1.1-2.2,1.6-3.8,1.6c-1.5,0-2.7-0.4-3.7-1.3c-1-0.8-1.5-1.9-1.5-3.2
			c0-1.6,0.6-2.8,1.8-3.7c1.2-0.8,2.9-1.3,5.1-1.3h1.8v-0.9c0-0.7-0.2-1.2-0.5-1.7c-0.4-0.4-0.9-0.6-1.7-0.6c-0.7,0-1.2,0.2-1.6,0.5
			c-0.4,0.3-0.6,0.8-0.6,1.3h-4c0-0.9,0.3-1.7,0.8-2.4c0.5-0.7,1.3-1.3,2.3-1.7c1-0.4,2.1-0.6,3.3-0.6c1.8,0,3.3,0.5,4.4,1.4
			c1.1,0.9,1.6,2.2,1.6,3.9v6.5c0,1.4,0.2,2.8,0.6,3.5V31H78.2z M74.8,27.9c0.6,0,1.1-0.1,1.6-0.4s0.9-0.6,1.1-1.1v-2.6h-1.5
			c-2,0-3.1,0.7-3.2,2.1l0,0.2c0,0.5,0.2,0.9,0.5,1.2C73.7,27.8,74.2,27.9,74.8,27.9z"/>
		<path class="st0" d="M93.1,19.5c-0.5-0.1-1-0.1-1.4-0.1c-1.5,0-2.5,0.5-3,1.5V31h-4V15.7h3.8l0.1,1.8c0.8-1.4,1.9-2.1,3.3-2.1
			c0.4,0,0.9,0.1,1.2,0.2L93.1,19.5z"/>
		<path class="st0" d="M103.2,26.6c0-0.5-0.2-0.9-0.7-1.2c-0.5-0.3-1.3-0.5-2.3-0.8c-3.6-0.7-5.4-2.3-5.4-4.5c0-1.3,0.6-2.4,1.7-3.3
			c1.1-0.9,2.6-1.3,4.3-1.3c1.9,0,3.4,0.4,4.6,1.3c1.1,0.9,1.7,2.1,1.7,3.5h-4c0-0.6-0.2-1.1-0.6-1.4c-0.4-0.4-0.9-0.6-1.7-0.6
			c-0.7,0-1.2,0.2-1.6,0.5c-0.4,0.3-0.6,0.7-0.6,1.2c0,0.4,0.2,0.8,0.6,1.1c0.4,0.3,1.1,0.5,2.1,0.7c1,0.2,1.8,0.4,2.5,0.7
			c2.1,0.8,3.2,2.1,3.2,4c0,1.4-0.6,2.5-1.8,3.3c-1.2,0.8-2.7,1.3-4.6,1.3c-1.3,0-2.4-0.2-3.4-0.7c-1-0.4-1.7-1.1-2.3-1.8
			c-0.6-0.8-0.8-1.6-0.8-2.5h3.8c0,0.7,0.3,1.3,0.8,1.6c0.5,0.4,1.1,0.6,2,0.6c0.8,0,1.4-0.1,1.7-0.4
			C103,27.4,103.2,27.1,103.2,26.6z"/>
		<path class="st0" d="M125,23.1c0-1.5,0.3-2.8,0.9-4c0.6-1.2,1.4-2.1,2.5-2.7c1.1-0.6,2.3-1,3.7-1c2,0,3.7,0.6,5,1.9
			c1.3,1.2,2,2.9,2.1,5l0,1c0,2.3-0.6,4.1-1.9,5.5c-1.3,1.4-3,2.1-5.2,2.1c-2.2,0-3.9-0.7-5.2-2.1c-1.3-1.4-1.9-3.3-1.9-5.6V23.1z
			 M129,23.4c0,1.4,0.3,2.5,0.8,3.3c0.5,0.8,1.3,1.1,2.3,1.1c1,0,1.7-0.4,2.3-1.1c0.5-0.7,0.8-1.9,0.8-3.6c0-1.4-0.3-2.5-0.8-3.2
			c-0.5-0.8-1.3-1.1-2.3-1.1c-1,0-1.7,0.4-2.3,1.1C129.2,20.6,129,21.8,129,23.4z"/>
		<path class="st0" d="M145.4,15.7l0.1,1.7c1.1-1.3,2.5-2,4.3-2c1.9,0,3.3,0.8,4,2.3c1.1-1.5,2.6-2.3,4.5-2.3c1.6,0,2.8,0.5,3.6,1.4
			c0.8,0.9,1.2,2.4,1.2,4.3V31h-4v-9.8c0-0.9-0.2-1.5-0.5-1.9c-0.3-0.4-0.9-0.6-1.8-0.6c-1.2,0-2,0.6-2.5,1.7l0,10.6h-4v-9.8
			c0-0.9-0.2-1.5-0.5-1.9c-0.3-0.4-0.9-0.6-1.7-0.6c-1.1,0-2,0.5-2.5,1.4V31h-4V15.7H145.4z"/>
		<path class="st0" d="M175,31c-0.2-0.4-0.3-1.1-0.4-1.6c-1,1.1-2.2,1.6-3.8,1.6c-1.5,0-2.7-0.4-3.7-1.3c-1-0.8-1.5-1.9-1.5-3.2
			c0-1.6,0.6-2.8,1.8-3.7c1.2-0.8,2.9-1.3,5.1-1.3h1.8v-0.9c0-0.7-0.2-1.2-0.5-1.7s-0.9-0.6-1.7-0.6c-0.7,0-1.2,0.2-1.6,0.5
			c-0.4,0.3-0.6,0.8-0.6,1.3h-4c0-0.9,0.3-1.7,0.8-2.4c0.5-0.7,1.3-1.3,2.3-1.7c1-0.4,2.1-0.6,3.3-0.6c1.9,0,3.3,0.5,4.4,1.4
			c1.1,0.9,1.6,2.2,1.6,3.9v6.5c0,1.4,0.2,2.8,0.6,3.5V31H175z M171.7,27.9c0.6,0,1.1-0.1,1.6-0.4c0.5-0.3,0.9-0.6,1.1-1.1v-2.6
			h-1.5c-2,0-3.1,0.7-3.2,2.1l0,0.2c0,0.5,0.2,0.9,0.5,1.2C170.6,27.8,171,27.9,171.7,27.9z"/>
		<path class="st0" d="M189.9,19.5c-0.5-0.1-1-0.1-1.4-0.1c-1.5,0-2.5,0.5-3,1.5V31h-4V15.7h3.8l0.1,1.8c0.8-1.4,1.9-2.1,3.3-2.1
			c0.4,0,0.9,0.1,1.2,0.2L189.9,19.5z"/>
		<path class="st0" d="M117.6,15.5c-1.6,0-3,0.6-4,1.9V9.5h-4V31h4V20.1c0.5-0.9,1.4-1.3,2.5-1.3c0.9,0,1.5,0.2,1.9,0.6
			c0.4,0.4,0.6,1,0.6,1.9V31h4v-9.9C122.5,17.4,120.9,15.5,117.6,15.5z"/>
	</g>
	<g>
		<g>
			<path class="st0" d="M40,20C40,9,31,0,20,0S0,9,0,20s9,20,20,20S40,31,40,20"/>
			<g>
				<polygon class="st1" points="5.5,24.3 5.5,15.7 1.2,20 				"/>
				<polygon class="st1" points="12.8,33.3 6.7,27.2 6.7,33.3 				"/>
				<polygon class="st1" points="24.3,34.5 15.7,34.5 20,38.8 				"/>
				<polygon class="st1" points="33.3,27.2 27.2,33.3 33.3,33.3 				"/>
				<polygon class="st1" points="34.5,15.7 34.5,24.3 38.8,20 				"/>
				<polygon class="st1" points="27.2,6.7 33.3,12.8 33.3,6.7 				"/>
				<path class="st1" d="M5.5,26l-4.2-4.2c0.4,3.7,1.8,7.3,4.2,10.2l0,0L5.5,26z"/>
				<path class="st1" d="M14,34.5l-6,0c2.9,2.4,6.4,3.9,10.2,4.2l0,0L14,34.5z"/>
				<path class="st1" d="M26,34.5l-4.2,4.2c3.7-0.4,7.3-1.8,10.2-4.2l0,0L26,34.5z"/>
				<path class="st1" d="M34.5,26l0,6c2.4-2.9,3.9-6.4,4.2-10.2l0,0L34.5,26z"/>
				<path class="st1" d="M34.5,14l4.2,4.2c-0.4-3.7-1.8-7.3-4.2-10.2l0,0L34.5,14z"/>
			</g>
		</g>
		<path class="st2" d="M33.3,16c0-0.9-0.4-1.8-1-2.5l-5.7-5.7c-0.7-0.7-1.6-1-2.5-1l-5.6,0c-0.8,0-1.5-0.5-1.7-1.3c0,0,0,0,0-0.1
			c-0.4-1.5,0-3,1-4c-0.1,0-0.3,0.1-0.4,0.1C16,2,15.2,3,14.9,4.2c-0.5-0.7-1.3-1.2-2-1.5c-0.4,0.8-0.5,1.6-0.4,2.5
			C11.4,4.6,10.1,4.5,8.9,5C8.8,5,8.6,5.1,8.5,5.1C9.9,5.2,11.3,6,12,7.3c0,0,0,0.1,0,0.1c0.3,0.7,0.2,1.5-0.3,2.1l-4,4
			c-0.7,0.7-1,1.6-1,2.5l0,8.1c0,0.9,0.4,1.8,1,2.5l5.7,5.7c0.7,0.7,1.6,1,2.5,1l8.1,0c0.9,0,1.8-0.4,2.5-1l5.7-5.7
			c0.7-0.7,1-1.6,1-2.5L33.3,16z"/>
	</g>
</g>
</svg>
