<?xml version="1.0" encoding="utf-8"?>
<svg version="1.1" xmlns="http://www.w3.org/2000/svg" xmlns:xlink="http://www.w3.org/1999/xlink" x="0px" y="0px"
	 viewBox="0 0 500 500" style="enable-background:new 0 0 500 500;" xml:space="preserve">
<style type="text/css">
	.st0{fill:#00667A;}
	.st1{fill:#f4f4f4;}
	.st2{fill:#CC3333;}
</style>
<g>
	<path class="st0" d="M42.1,0H458c23.2,0,42,18.9,42,42.1v415.7c0,23.3-18.8,42.1-42.1,42.1H42.1C18.8,500,0,481.1,0,457.9V42.1
		C0,18.9,18.8,0,42.1,0z"/>
	<path class="st1" d="M486.4,249.4c0-130.3-105.6-236-235.8-236S14.9,119.1,14.9,249.4s105.6,236,235.8,236S486.4,379.6,486.4,249.4
		"/>
	<g>
		<polygon class="st0" points="79.5,300.2 79.5,198.8 28.8,249.5"/>
		<polygon class="st0" points="165.4,406.3 93.7,334.6 93.7,406.3"/>
		<polygon class="st0" points="301,420.5 199.7,420.5 250.4,471.2"/>
		<polygon class="st0" points="407,334.6 335.4,406.3 407,406.3"/>
		<polygon class="st0" points="421.3,198.8 421.3,300.2 471.9,249.5"/>
		<polygon class="st0" points="335.4,92.7 407,164.4 407,92.7"/>
	</g>
	<g>
		<path class="st0" d="M79.5,320.4l-49.6-49.7c4.2,44,21.5,85.8,49.6,119.9l0,0V320.4z"/>
		<path class="st0" d="M179.6,420.5h-70.2c34.1,28.2,75.8,45.5,119.8,49.7l0,0L179.6,420.5z"/>
		<path class="st0" d="M321.2,420.5l-49.6,49.7c44-4.2,85.7-21.5,119.8-49.7l0,0H321.2z"/>
		<path class="st0" d="M421.3,320.4v70.3c28.1-34.1,45.4-75.9,49.6-119.9l0,0L421.3,320.4z"/>
		<path class="st0" d="M421.3,178.7l49.6,49.7c-4.2-44-21.5-85.8-49.6-119.9l0,0V178.7z"/>
	</g>
	<path class="st2" d="M394.5,172.1l-66.8-66.8c-8-8-18.8-12.5-30.1-12.5h-81.2c-8.2-20.3-1.7-43,14.5-56.1
		c-4.4,0.5-8.9,1.6-13.2,3.4c-11.6,4.8-20.4,13.7-25.3,24.2c-6.6-6.9-14.6-12.2-23.4-15.6c-3.9,8.6-5.8,18.1-5.6,27.7
		c-11-4-23.4-4.1-35.1,0.7c-4.3,1.8-8.3,4.2-11.8,7c20.3-2.2,40.5,8.7,49.3,28.2l-59.7,59.8c-8,8-12.5,18.9-12.5,30.2v94.5
		c0,11.3,4.5,22.2,12.5,30.2l66.8,66.8c8,8,18.8,12.5,30.1,12.5h94.5c11.3,0,22.1-4.5,30.1-12.5l66.8-66.8c8-8,12.5-18.9,12.5-30.2
		v-94.5C407,190.9,402.5,180.1,394.5,172.1z"/>
</g>
</svg>