<svg id="Layer_1" xmlns="http://www.w3.org/2000/svg" viewBox="0 0 140 40" width="140" height="40">
  <style>
    .st0{fill:#FFFFFF;} .st1{fill:#00667A;} .st2{fill:#CC1030;}
  </style>
  <path class="st0" d="M140 20c0-11-9-20-20-20s-20 9-20 20 9 20 20 20 20-9 20-20"/>
  <path class="st1" d="M105.5 24.3v-8.6l-4.3 4.3zm7.3 9l-6.1-6.1v6.1zm11.5 1.2h-8.6l4.3 4.3zm9-7.3l-6.1 6.1h6.1zm1.2-11.5v8.6l4.3-4.3zm-7.3-9l6.1 6.1V6.7zM105.5 26l-4.2-4.2c.4 3.7 1.8 7.3 4.2 10.2v-6zm8.5 8.5h-6c2.9 2.4 6.4 3.9 10.2 4.2l-4.2-4.2zm12 0l-4.2 4.2c3.7-.4 7.3-1.8 10.2-4.2h-6zm8.5-8.5v6c2.4-2.9 3.9-6.4 4.2-10.2l-4.2 4.2zm0-12l4.2 4.2c-.4-3.7-1.8-7.3-4.2-10.2v6z"/>
  <path class="st2" d="M133.3 16c0-.9-.4-1.8-1-2.5l-5.7-5.7c-.7-.7-1.6-1-2.5-1h-5.6c-.8 0-1.5-.5-1.7-1.3v-.1c-.4-1.5 0-3 1-4-.1 0-.3.1-.4.1-1.2.5-2 1.5-2.4 2.7-.5-.7-1.3-1.2-2-1.5-.4.8-.5 1.6-.4 2.5-1.1-.6-2.4-.7-3.6-.2-.1.1-.2.1-.4.2 1.4.1 2.7.9 3.5 2.2v.1c.3.7.2 1.5-.3 2.1l-4 4c-.7.7-1 1.6-1 2.5v8.1c0 .9.4 1.8 1 2.5l5.7 5.7c.7.7 1.6 1 2.5 1h8.1c.9 0 1.8-.4 2.5-1l5.7-5.7c.7-.7 1-1.6 1-2.5V16z"/>
  <path class="st0" d="M89.9 19.2c-.1-.5-.2-1-.4-1.6-.1-.5-.3-1-.5-1.5s-.3-.9-.5-1.3-.3-.7-.4-1c-.1-.3-.2-.5-.3-.6l-3.1 1.7c.2.3.3.7.6 1.1.2.4.4.9.6 1.4.2.5.4 1 .5 1.5.1.5.2 1 .2 1.4 0 .2-.1.5-.2.7s-.3.4-.5.5c-.2.1-.4.3-.7.3-.2.1-.5.1-.7.1-.4 0-.7-.1-.9-.3s-.4-.5-.5-.8c-.1-.3-.1-.7-.1-1.1 0-.4 0-.8.1-1.2 0-.4.1-.8.1-1.1.1-.4.1-.7.1-.9l-3.2-.5c-.1.3-.1.7-.2 1.1-.1.4-.2.8-.3 1.3-.1.4-.3.8-.4 1.2-.2.4-.4.8-.6 1.1-.2.3-.5.6-.7.8-.3.2-.6.3-.9.3-.3 0-.5 0-.6-.2-.1-.2-.2-.4-.2-.7v-1c.1-.4.1-.8.2-1.2l.3-1.2c.1-.4.2-.7.2-1l-3.3-.6L73 18c-.2.7-.5 1.3-.8 1.8-.3.5-.7 1-1.1 1.3-.4.3-3 .5-3.7.5h-.3c-.3 0-.6-.1-.9-.2-.3-.2-.6-.4-.8-.8-.3-.4-.6-.9-.9-1.6-.3-.7-.6-1.5-.9-2.4L60 18.1c.3.6.5 1.1.7 1.6.2.5.4 1 .6 1.4.2.4.3.9.4 1.3.1.4.2.9.3 1.4v.3c0 .5-.1 1-.3 1.4-.2.5-.5.9-.8 1.4-.4.4-.8.9-1.2 1.3l-1.5 1.2c-.5.4-1.1.8-1.7 1.1-.6.3-1.2.7-1.8 1L57 35c1.1-.5 2.1-1.1 3.1-1.8s1.8-1.4 2.5-2.2c.7-.8 1.4-1.6 1.9-2.6.5-.9.9-1.9 1-2.9.4.2.7.2 1.1.3h3.3c.5 0 1 0 1.4-.1.4-.1.8-.2 1.1-.3.3-.1.6-.3.8-.5l.6-.6c.2.3.4.5.6.7.2.2.5.4.7.5.3.1.6.3.9.3.3.1.7.1 1.1.1.5 0 .9-.1 1.3-.1.4-.1.7-.2 1-.3.3-.1.6-.3.8-.5.2-.2.4-.4.6-.7l.6.6c.2.2.5.4.8.5.3.2.6.3 1 .4.3.2.8.2 1.2.2.9 0 1.8-.1 2.5-.4.7-.3 1.3-.6 1.7-1.1.5-.5.8-1 1-1.7.2-.7.3-1.4.3-2.2.1-.4.1-.9 0-1.4zm-78.7 2.1l-.3-1.2-.3-1.2c-.2-.9-.5-1.8-.9-2.7L6 17.9c.3.6.5 1.2.8 1.7l.6 1.5c.2.5.3.9.4 1.3s.2.8.2 1.2c0 .5-.1 1-.3 1.5-.2.5-.5 1-.9 1.5s-.8 1-1.3 1.5-1.1.9-1.6 1.4c-.6.4-1.2.9-1.8 1.2-.6.4-1.3.7-1.9 1L2.4 35c.8-.4 1.6-.8 2.4-1.3.8-.5 1.5-1 2.2-1.6.7-.6 1.3-1.2 1.9-1.8.6-.7 1-1.3 1.4-2.1.4-.7.7-1.4.9-2.2.2-.8.3-1.5.3-2.3 0-.3 0-.7-.1-1.1 0-.5-.1-.9-.2-1.3zm45 1.5c.2-.7.4-1.4.4-2.3 0-.5 0-1.1-.1-1.6-.1-.6-.2-1.1-.4-1.6-.1-.5-.3-1-.5-1.5s-.4-.9-.5-1.3c-.2-.4-.3-.7-.4-1-.1-.3-.2-.5-.3-.6l-3.2 1.8c.2.3.4.7.6 1.2.2.5.5 1 .7 1.5.2.5.4 1 .5 1.6.1.5.2 1 .2 1.5 0 .3-.1.5-.2.7-.1.2-.3.4-.5.5-.2.1-.4.3-.7.3H51c-.4 0-.7-.1-.9-.3-.2-.2-.4-.5-.5-.8-.1-.3-.1-.7-.1-1.1 0-.4 0-.8.1-1.2 0-.4.1-.8.1-1.2s.1-.7.1-.9l-3.3-.5c-.1.4-.1.7-.2 1.2-.1.4-.2.9-.3 1.3-.1.4-.3.9-.5 1.3s-.4.8-.6 1.1c-.2.3-.5.6-.8.8-.3.2-.6.3-.9.4-.3 0-.5 0-.6-.2-.1-.2-.2-.4-.2-.7v-1.1c.1-.4.1-.8.2-1.2l.3-1.2c.1-.4.2-.7.3-1l-3.5-.6c-.2.7-.4 1.5-.6 2.2-.2.7-.5 1.4-.8 1.9-.3.6-.7 1-1.2 1.4-.4.3-1 .5-1.7.5h-.1c-.2 0-.4-.1-.6-.4-.1-.2-.2-.5-.3-.9-.1-.4-.2-.8-.2-1.3v-.3c-.1-1.6-.8-2.9-1.9-3.9-1-.8-2.1-1.2-3.4-1.2-1.8 0-3.2 1.1-4.4 3.4 0 0-.7 1.3-.8 1.5-.3.6-.6 1.1-.9 1.5-.7 1-1.6 1.5-2.6 1.5h-.9c-.2 0-.4 0-.5-.1-.2 0-.3-.1-.4-.2-.1-.1-.2-.2-.3-.4-.2-.5-.3-1-.4-1.6V18c0-.6.1-1.2.1-1.8.1-.6.1-1.2.1-1.9V12c0-.8-.1-1.7-.1-2.5s-.1-1.6-.2-2.4c-.1-.8-.2-1.4-.3-2l-3.9 1.2c.1.7.2 1.4.3 2.3.1.9.1 1.8.2 2.8 0 1 .1 1.9.1 2.9v7.1c0 .3.1.7.1 1 .1.4.2.7.4 1.1.2.4.5.7.8 1.1.6.5 1.2.9 2 1.2.6.2 1.4.3 2.2.4h.4c.8 0 1.5-.1 2.1-.3.5-.2 1-.4 1.3-.7.4-.3.7-.7.9-1 2.4 1.3 4.3 1.9 5.6 1.9 1.1 0 2-.3 2.7-1 .7.7 1.6 1.1 2.7 1.1h.3c.6 0 1.1 0 1.5-.1.4-.1.8-.2 1.1-.3.3-.1.6-.3.8-.5l.6-.6c.2.3.4.5.6.7.2.2.5.4.8.6.3.2.6.3.9.3.3.1.7.1 1.2.1s.9-.1 1.3-.1c.4-.1.7-.2 1-.3s.6-.3.8-.5c.2-.2.5-.4.7-.7.2.2.4.5.6.7.2.2.5.4.8.6.3.2.6.3 1 .4.4.1.8.1 1.3.1 1 0 1.8-.1 2.6-.4.7-.3 1.3-.6 1.8-1.1.7-1 1-1.6 1.3-2.3zm-25-1.6c-.1.6-.2 1-.5 1.1-.5.1-1.9-.4-4-1.6.8-1.7 1.3-2.7 1.7-2.8.3-.1.7 0 1.2.4s1 .8 1.2 1.3c.3.4.4 1 .4 1.6z"/>
  <path class="st0" d="M47.6 10.8l2.4 2.4 2.5-2.5L50 8.3l-2.4 2.4-2.5-2.4-2.5 2.4 2.5 2.5z"/>
  <path class="st0" d="M49.9 7.4l-2.3-2.3-2.4 2.2 2.4 2.3z"/>
</svg>
