<?xml version="1.0" encoding="utf-8"?>
<!-- Generator: Adobe Illustrator 20.1.0, SVG Export Plug-In . SVG Version: 6.00 Build 0)  -->
<svg version="1.1" id="Layer_1" xmlns="http://www.w3.org/2000/svg" xmlns:xlink="http://www.w3.org/1999/xlink" x="0px" y="0px"
	 viewBox="0 0 140 40" style="enable-background:new 0 0 140 40;" xml:space="preserve">
<style type="text/css">
	.st0{fill:#FFFFFF;}
	.st1{fill:#00667a;}
	.st2{fill:#CC1030;}
</style>
<g>
	<g>
		<g>
			<path class="st0" d="M67.3,25.9c-0.2,0-0.4,0-0.8,0s-0.7-0.1-1.1-0.3c-0.2,1-0.5,2-1,2.9c-0.5,0.9-1.1,1.8-1.9,2.6
				c-0.7,0.8-1.6,1.5-2.5,2.2c-1,0.7-2,1.3-3.1,1.8l-2.3-3.1c0.6-0.3,1.2-0.6,1.8-1c0.6-0.3,1.2-0.7,1.7-1.1
				c0.5-0.4,1.1-0.8,1.5-1.2c0.5-0.4,0.9-0.9,1.2-1.3s0.6-0.9,0.8-1.4c0.2-0.5,0.3-0.9,0.3-1.4c0,0,0-0.1,0-0.1c0,0,0-0.1,0-0.1
				c0,0,0-0.1,0-0.1c0,0,0,0,0,0v0c-0.1-0.5-0.1-0.9-0.3-1.4c-0.1-0.4-0.2-0.9-0.4-1.3c-0.2-0.4-0.4-0.9-0.6-1.4
				c-0.2-0.5-0.5-1-0.7-1.6l3.6-1.5c0.3,1,0.6,1.8,0.9,2.4c0.3,0.7,0.6,1.2,0.9,1.6c0.3,0.4,0.6,0.7,0.8,0.8
				c0.3,0.2,0.6,0.2,0.9,0.2h0.1c0.3,0,0.5,0.1,0.8,0.2c0.2,0.1,0.5,0.2,0.6,0.4c0.2,0.2,0.3,0.4,0.4,0.6c0.1,0.2,0.2,0.5,0.2,0.7
				c0,0.3-0.1,0.5-0.2,0.8c-0.1,0.2-0.2,0.4-0.4,0.6c-0.2,0.2-0.4,0.3-0.6,0.4C67.9,25.8,67.6,25.9,67.3,25.9z"/>
			<path class="st0" d="M65.6,24c0-0.3,0.1-0.5,0.2-0.7c0.1-0.2,0.2-0.4,0.4-0.6c0.2-0.2,0.4-0.3,0.6-0.4c0.2-0.1,0.5-0.2,0.7-0.2
				c0.6,0,3.2-0.2,3.7-0.5c0.4-0.3,0.8-0.8,1.1-1.3c0.3-0.5,0.6-1.2,0.8-1.8c0.2-0.7,0.4-1.4,0.6-2.1l3.3,0.6
				c-0.1,0.3-0.1,0.6-0.2,1c-0.1,0.4-0.2,0.8-0.3,1.2c-0.1,0.4-0.1,0.8-0.2,1.2c-0.1,0.4-0.1,0.7,0,1c0,0.3,0.1,0.5,0.2,0.7
				c0.1,0.2,0.3,0.2,0.6,0.2c0.3,0,0.6-0.1,0.9-0.3c0.3-0.2,0.5-0.5,0.7-0.8c0.2-0.3,0.4-0.7,0.6-1.1c0.2-0.4,0.3-0.8,0.4-1.2
				c0.1-0.4,0.2-0.8,0.3-1.3c0.1-0.4,0.1-0.8,0.2-1.1l3.2,0.5c0,0.2,0,0.5-0.1,0.9c-0.1,0.4-0.1,0.7-0.1,1.1c0,0.4-0.1,0.8-0.1,1.2
				c0,0.4,0,0.7,0.1,1.1c0.1,0.3,0.2,0.6,0.5,0.8c0.2,0.2,0.5,0.3,0.9,0.3c0.2,0,0.5,0,0.7-0.1c0.2-0.1,0.5-0.2,0.7-0.3
				c0.2-0.1,0.3-0.3,0.5-0.5c0.1-0.2,0.2-0.4,0.2-0.7c0-0.4-0.1-0.9-0.2-1.4c-0.1-0.5-0.3-1-0.5-1.5c-0.2-0.5-0.4-1-0.6-1.4
				c-0.2-0.4-0.4-0.8-0.6-1.1l3.1-1.7c0.1,0.1,0.1,0.3,0.3,0.6c0.1,0.3,0.3,0.6,0.4,1c0.2,0.4,0.3,0.8,0.5,1.3
				c0.2,0.5,0.3,1,0.5,1.5c0.1,0.5,0.3,1,0.4,1.6c0.1,0.5,0.1,1,0.1,1.5c0,0.8-0.1,1.5-0.3,2.2c-0.2,0.7-0.6,1.2-1,1.7
				c-0.5,0.5-1,0.8-1.7,1.1c-0.7,0.3-1.5,0.4-2.5,0.4c-0.5,0-0.9,0-1.2-0.1c-0.4-0.1-0.7-0.2-1-0.4c-0.3-0.2-0.6-0.3-0.8-0.5
				c-0.2-0.2-0.4-0.4-0.6-0.6c-0.2,0.3-0.4,0.5-0.6,0.7c-0.2,0.2-0.5,0.4-0.8,0.5c-0.3,0.1-0.6,0.3-1,0.3C78,26,77.6,26,77.1,26
				c-0.4,0-0.8,0-1.1-0.1c-0.3-0.1-0.6-0.2-0.9-0.3c-0.3-0.1-0.5-0.3-0.7-0.5c-0.2-0.2-0.4-0.4-0.6-0.7c-0.2,0.2-0.4,0.4-0.6,0.6
				c-0.2,0.2-0.5,0.3-0.8,0.5c-0.3,0.1-0.7,0.2-1.1,0.3c-0.4,0.1-0.9,0.1-1.4,0.1h-2.3c-0.3,0-0.5-0.1-0.7-0.2
				c-0.2-0.1-0.4-0.2-0.6-0.4c-0.2-0.2-0.3-0.4-0.4-0.6C65.7,24.5,65.6,24.2,65.6,24z"/>
		</g>
		<path class="st0" d="M9.8,16.2c0.3,0.9,0.6,1.8,0.9,2.7c0.1,0.4,0.2,0.8,0.3,1.2c0.1,0.4,0.2,0.8,0.3,1.2c0.1,0.4,0.2,0.8,0.2,1.2
			c0.1,0.4,0.1,0.8,0.1,1.1c0,0.8-0.1,1.6-0.3,2.3c-0.2,0.8-0.5,1.5-0.9,2.2c-0.4,0.7-0.9,1.4-1.4,2.1c-0.6,0.7-1.2,1.3-1.9,1.8
			c-0.7,0.6-1.4,1.1-2.2,1.6C4,34.2,3.2,34.6,2.4,35L0,31.8c0.6-0.3,1.3-0.7,1.9-1c0.6-0.4,1.3-0.8,1.8-1.2c0.6-0.4,1.1-0.9,1.6-1.4
			c0.5-0.5,1-1,1.3-1.5c0.4-0.5,0.7-1,0.9-1.5c0.2-0.5,0.3-1,0.3-1.5c0-0.4-0.1-0.7-0.2-1.2c-0.1-0.4-0.2-0.9-0.4-1.3
			c-0.2-0.5-0.4-1-0.6-1.5c-0.2-0.5-0.5-1.1-0.8-1.7L9.8,16.2z"/>
		<path class="st0" d="M19.9,25.9c-1.1,0-2-0.1-2.8-0.4c-0.8-0.3-1.4-0.7-2-1.2c-0.3-0.3-0.6-0.7-0.8-1.1c-0.2-0.4-0.3-0.7-0.4-1.1
			c-0.1-0.4-0.1-0.7-0.1-1c0-0.3,0-0.6,0-0.8v-0.2c0-0.3,0-0.8,0-1.4c0-0.6,0-1.3,0-2.1c0-0.8,0-1.7,0-2.6c0-1,0-1.9-0.1-2.9
			c0-1-0.1-1.9-0.2-2.8c-0.1-0.9-0.2-1.6-0.3-2.3L17.2,5c0.1,0.6,0.2,1.2,0.3,2c0.1,0.8,0.1,1.6,0.2,2.4c0,0.8,0.1,1.7,0.1,2.5
			c0,0.8,0,1.6,0,2.3c0,0.6,0,1.3-0.1,1.9c-0.1,0.6-0.1,1.2-0.1,1.8c0,0.6,0,1.1,0,1.7c0,0.5,0.2,1.1,0.4,1.6
			c0.1,0.2,0.2,0.3,0.3,0.4c0.1,0.1,0.3,0.2,0.4,0.2c0.2,0,0.3,0.1,0.5,0.1c0.2,0,0.4,0,0.6,0h0.1c0.3,0,0.5,0.1,0.8,0.2
			c0.3,0.1,0.5,0.3,0.7,0.4c0.2,0.2,0.3,0.4,0.5,0.6c0.1,0.2,0.2,0.5,0.2,0.8c0,0.3-0.1,0.5-0.2,0.8c-0.1,0.2-0.3,0.5-0.5,0.6
			c-0.2,0.2-0.4,0.3-0.7,0.4C20.5,25.9,20.2,25.9,19.9,25.9z"/>
		<path class="st0" d="M37.3,23.9c0,0.6-0.2,1-0.6,1.4c-0.4,0.4-0.9,0.6-1.5,0.6h0c-1.1,0-2-0.4-2.7-1.1c-0.7,0.7-1.6,1-2.7,1
			c-1.3,0-3.1-0.6-5.6-1.9c-0.2,0.3-0.5,0.6-0.9,1c-0.4,0.3-0.8,0.5-1.3,0.7c-0.6,0.2-1.3,0.3-2.1,0.3c-0.6,0-1.1-0.2-1.5-0.6
			c-0.4-0.4-0.6-0.9-0.6-1.4c0-0.6,0.2-1,0.6-1.4c0.4-0.4,0.9-0.6,1.5-0.6c1.1,0,2-0.5,2.8-1.6c0.3-0.4,0.6-0.9,0.9-1.5
			c0.1-0.2,0.2-0.4,0.4-0.8l0.2-0.4l0.2-0.4c1.2-2.3,2.6-3.4,4.4-3.4c1.3,0,2.4,0.4,3.4,1.2c1.1,0.9,1.7,2.2,1.9,3.9l0,0.1
			c0,0.1,0,0.1,0,0.2c0,0.4,0.1,0.8,0.2,1.3c0.1,0.4,0.2,0.7,0.3,0.9c0.2,0.3,0.4,0.4,0.6,0.4c0.6,0,1,0.2,1.4,0.6
			C37.1,22.9,37.3,23.3,37.3,23.9z M30.7,22.3c0.3-0.1,0.4-0.4,0.5-1.1c0.1-0.7-0.1-1.3-0.4-1.8c-0.3-0.5-0.7-0.9-1.2-1.3
			c-0.5-0.4-1-0.5-1.2-0.4c-0.4,0.2-0.9,1.1-1.7,2.8C28.8,21.9,30.2,22.4,30.7,22.3z"/>
		<path class="st0" d="M33.4,23.9c0-0.3,0.1-0.5,0.2-0.7c0.1-0.2,0.2-0.4,0.4-0.6c0.2-0.2,0.4-0.3,0.6-0.4c0.2-0.1,0.5-0.2,0.8-0.2
			c0.7,0,1.2-0.2,1.7-0.5c0.4-0.3,0.8-0.8,1.2-1.4c0.3-0.6,0.6-1.2,0.8-1.9c0.2-0.7,0.4-1.4,0.6-2.2l3.5,0.6c-0.1,0.3-0.2,0.6-0.3,1
			c-0.1,0.4-0.2,0.8-0.3,1.2c-0.1,0.4-0.2,0.8-0.2,1.2c-0.1,0.4-0.1,0.8,0,1.1c0,0.3,0.1,0.5,0.2,0.7c0.1,0.2,0.3,0.2,0.6,0.2
			c0.3,0,0.7-0.1,0.9-0.4c0.3-0.2,0.5-0.5,0.8-0.8c0.2-0.3,0.4-0.7,0.6-1.1c0.2-0.4,0.3-0.8,0.5-1.3c0.1-0.4,0.2-0.9,0.3-1.3
			c0.1-0.4,0.2-0.8,0.2-1.2l3.3,0.5c0,0.3,0,0.6-0.1,0.9s-0.1,0.8-0.1,1.2c0,0.4-0.1,0.8-0.1,1.2c0,0.4,0,0.8,0.1,1.1
			c0.1,0.3,0.3,0.6,0.5,0.8c0.2,0.2,0.5,0.3,0.9,0.3c0.2,0,0.5,0,0.7-0.1c0.3-0.1,0.5-0.2,0.7-0.3c0.2-0.1,0.4-0.3,0.5-0.5
			c0.1-0.2,0.2-0.4,0.2-0.7c0-0.4-0.1-0.9-0.2-1.5c-0.1-0.5-0.3-1.1-0.5-1.6s-0.4-1-0.7-1.5c-0.2-0.5-0.4-0.9-0.6-1.2l3.2-1.8
			c0.1,0.1,0.1,0.3,0.3,0.6c0.1,0.3,0.3,0.6,0.4,1c0.2,0.4,0.3,0.8,0.5,1.3c0.2,0.5,0.3,1,0.5,1.5c0.1,0.5,0.3,1.1,0.4,1.6
			c0.1,0.6,0.1,1.1,0.1,1.6c0,0.8-0.1,1.6-0.4,2.3c-0.2,0.7-0.6,1.3-1.1,1.7c-0.5,0.5-1.1,0.8-1.8,1.1c-0.7,0.3-1.6,0.4-2.6,0.4
			c-0.5,0-0.9,0-1.3-0.1c-0.4-0.1-0.7-0.2-1-0.4c-0.3-0.2-0.6-0.3-0.8-0.6c-0.2-0.2-0.5-0.4-0.6-0.7c-0.2,0.3-0.4,0.5-0.7,0.7
			c-0.2,0.2-0.5,0.4-0.8,0.5s-0.7,0.3-1,0.3c-0.4,0.1-0.8,0.1-1.3,0.1c-0.4,0-0.8,0-1.2-0.1c-0.3-0.1-0.7-0.2-0.9-0.3
			c-0.3-0.2-0.5-0.3-0.8-0.6c-0.2-0.2-0.4-0.5-0.6-0.7c-0.2,0.2-0.4,0.4-0.6,0.6c-0.2,0.2-0.5,0.4-0.8,0.5c-0.3,0.1-0.7,0.3-1.1,0.3
			c-0.4,0.1-0.9,0.1-1.5,0.1h-0.2c-0.3,0-0.5-0.1-0.8-0.2c-0.2-0.1-0.4-0.3-0.6-0.4c-0.2-0.2-0.3-0.4-0.4-0.6
			C33.4,24.4,33.4,24.2,33.4,23.9z"/>
		<polygon class="st0" points="52.5,10.7 50,13.2 47.6,10.8 45.1,13.2 42.6,10.7 45.1,8.3 47.6,10.7 50,8.3 		"/>
		<polygon class="st0" points="45.2,7.3 47.6,5.1 49.9,7.4 47.6,9.6 		"/>
	</g>
	<g>
		<g>
			<path class="st0" d="M140,20c0-11-9-20-20-20s-20,9-20,20s9,20,20,20S140,31,140,20"/>
			<g>
				<polygon class="st1" points="105.5,24.3 105.5,15.7 101.2,20 				"/>
				<polygon class="st1" points="112.8,33.3 106.7,27.2 106.7,33.3 				"/>
				<polygon class="st1" points="124.3,34.5 115.7,34.5 120,38.8 				"/>
				<polygon class="st1" points="133.3,27.2 127.2,33.3 133.3,33.3 				"/>
				<polygon class="st1" points="134.5,15.7 134.5,24.3 138.8,20 				"/>
				<polygon class="st1" points="127.2,6.7 133.3,12.8 133.3,6.7 				"/>
				<path class="st1" d="M105.5,26l-4.2-4.2c0.4,3.7,1.8,7.3,4.2,10.2v0V26z"/>
				<path class="st1" d="M114,34.5l-6,0c2.9,2.4,6.4,3.9,10.2,4.2l0,0L114,34.5z"/>
				<path class="st1" d="M126,34.5l-4.2,4.2c3.7-0.4,7.3-1.8,10.2-4.2l0,0L126,34.5z"/>
				<path class="st1" d="M134.5,26l0,6c2.4-2.9,3.9-6.4,4.2-10.2l0,0L134.5,26z"/>
				<path class="st1" d="M134.5,14l4.2,4.2c-0.4-3.7-1.8-7.3-4.2-10.2l0,0L134.5,14z"/>
			</g>
		</g>
		<path class="st2" d="M133.3,16c0-0.9-0.4-1.8-1-2.5l-5.7-5.7c-0.7-0.7-1.6-1-2.5-1l-5.6,0c-0.8,0-1.5-0.5-1.7-1.3c0,0,0,0,0-0.1
			c-0.4-1.5,0-3,1-4c-0.1,0-0.3,0.1-0.4,0.1c-1.2,0.5-2,1.5-2.4,2.7c-0.5-0.7-1.3-1.2-2-1.5c-0.4,0.8-0.5,1.6-0.4,2.5
			c-1.1-0.6-2.4-0.7-3.6-0.2c-0.1,0.1-0.2,0.1-0.4,0.2c1.4,0.1,2.7,0.9,3.5,2.2c0,0,0,0.1,0,0.1c0.3,0.7,0.2,1.5-0.3,2.1l-4,4
			c-0.7,0.7-1,1.6-1,2.5l0,8.1c0,0.9,0.4,1.8,1,2.5l5.7,5.7c0.7,0.7,1.6,1,2.5,1l8.1,0c0.9,0,1.8-0.4,2.5-1l5.7-5.7
			c0.7-0.7,1-1.6,1-2.5L133.3,16z"/>
	</g>
</g>
</svg>
