<?xml version="1.0" encoding="utf-8"?>
<!-- Generator: Adobe Illustrator 20.1.0, SVG Export Plug-In . SVG Version: 6.00 Build 0)  -->
<svg version="1.1" id="Layer_1" xmlns="http://www.w3.org/2000/svg" xmlns:xlink="http://www.w3.org/1999/xlink" x="0px" y="0px"
	 viewBox="0 0 189.6 204.4" style="enable-background:new 0 0 189.6 204.4;" xml:space="preserve">
<style type="text/css">
	.st0{fill:#A57D56;}
	.st1{fill:#FFFFFF;}
	.st2{fill:#0B605E;}
	.st3{fill:#0E7D7A;}
	.st4{fill:#129491;}
	.st5{fill:#37AAA7;}
</style>
<g>
	<polygon class="st0" points="102.6,203 128.1,58.2 187.8,58.2 162.3,203 	"/>
	<path class="st1" d="M186,59.7l-25,141.7h-56.6l25-141.7L186,59.7 M189.6,56.7H186h-56.6h-2.5l-0.4,2.5l-25,141.7l-0.6,3.5h3.6
		h56.6h2.5l0.4-2.5l25-141.7L189.6,56.7L189.6,56.7z"/>
</g>
<g>
	<polygon class="st0" points="33.6,203 1.9,72.4 61.6,72.4 93.3,203 	"/>
	<path class="st1" d="M60.4,73.9l31,127.6H34.8L3.8,73.9L60.4,73.9 M62.8,70.9h-2.4H3.8H0l0.9,3.7l31,127.6l0.6,2.3h2.4h56.6h3.8
		l-0.9-3.7l-31-127.6L62.8,70.9L62.8,70.9z"/>
</g>
<g>
	<rect x="105.7" y="86.6" class="st2" width="59.7" height="116.4"/>
	<path class="st1" d="M163.9,88.1v113.4h-56.7V88.1H163.9 M166.9,85.1h-3h-56.7h-3v3v113.4v3h3h56.7h3v-3V88.1V85.1L166.9,85.1z"/>
</g>
<g>
	<rect x="68.7" y="1.5" class="st3" width="59.6" height="201.4"/>
	<path class="st1" d="M126.8,3v198.4H70.2V3H126.8 M129.8,0h-3H70.2h-3v3v198.4v3h3h56.6h3v-3V3V0L129.8,0z"/>
</g>
<g>
	<polygon class="st4" points="54.1,203 42.9,44 102.6,44 113.8,203 	"/>
	<path class="st1" d="M101.2,45.5l11,155.9H55.5l-11-155.9H101.2 M104,42.5h-2.8H44.5h-3.2l0.2,3.2l11,155.9l0.2,2.8h2.8h56.6h3.2
		l-0.2-3.2l-11-155.9L104,42.5L104,42.5z"/>
</g>
<g>
	<polygon class="st5" points="41.5,203 29,114.9 88.7,114.9 101.1,203 	"/>
	<path class="st1" d="M87.4,116.4l12,85H42.8l-12-85H87.4 M90,113.4h-2.6H30.8h-3.5l0.5,3.4l12,85l0.4,2.6h2.6h56.6h3.5l-0.5-3.4
		l-12-85L90,113.4L90,113.4z"/>
</g>
</svg>
