<?xml version="1.0" encoding="utf-8"?>
<!-- Generator: Adobe Illustrator 20.1.0, SVG Export Plug-In . SVG Version: 6.00 Build 0)  -->
<svg version="1.1" id="Layer_1" xmlns="http://www.w3.org/2000/svg" xmlns:xlink="http://www.w3.org/1999/xlink" x="0px" y="0px"
	 viewBox="0 0 57.1 41.9" style="enable-background:new 0 0 57.1 41.9;" xml:space="preserve">
<style type="text/css">
	.st0{fill:#F37A77;}
	.st1{fill:#F19C23;}
	.st2{fill:#E47E26;}
</style>
<g>
	<path class="st0" d="M36.3,0c-1.9,0-3.5,1.5-3.5,3.4v1.5c-1.8,1.8-6.1,4.9-13.3,7.1c-4.9,1.5-13.5,2.4-15.1,2.5
		c-0.1-0.1-0.1-0.2-0.2-0.3c-0.5-0.5-1.1-0.7-1.7-0.7c-1.4,0-2.5,1.1-2.5,2.5L0,26.1c0,0.7,0.2,1.3,0.7,1.8c0.5,0.5,1.1,0.8,1.7,0.8
		h0c0.7,0,1.3-0.3,1.7-0.7c0.1,1.2,0.5,2.4,1.2,3.6c1.2,2,3.1,3.5,5.4,4c0.7,0.2,1.4,0.3,2.2,0.3c3.6,0,6.7-2.2,8-5.4
		c6.3,2.2,10.1,5,11.9,6.7v1.5c0,1.9,1.6,3.4,3.5,3.4c1.9,0,3.5-1.5,3.5-3.4V3.4C39.8,1.5,38.2,0,36.3,0z M2.5,27.8L2.5,27.8
		L2.5,27.8L2.5,27.8z M13,30.5c-0.3,0-0.6,0-0.9-0.1c-0.9-0.2-1.7-0.8-2.2-1.6c-0.2-0.3-0.3-0.5-0.4-0.8c2,0.3,4.2,0.6,6.3,1
		C15.2,29.9,14.2,30.5,13,30.5z"/>
	<path class="st1" d="M54.3,11.9c-0.8-1.2-2.5-1.5-3.7-0.7c-1.2,0.8-1.5,2.5-0.7,3.7c1.2,1.7,1.8,3.8,1.8,6c0,2.2-0.7,4.3-1.8,6
		c-0.8,1.2-0.5,2.8,0.6,3.7c0.5,0.3,1,0.5,1.5,0.5c0.8,0,1.6-0.4,2.2-1.1c1.8-2.6,2.8-5.7,2.8-9C57.1,17.6,56.1,14.5,54.3,11.9z"/>
	<path class="st2" d="M47.7,14.8c-0.8-1.2-2.5-1.5-3.7-0.7c-1.2,0.8-1.5,2.5-0.7,3.7c0.6,0.9,0.9,2,0.9,3.1c0,1.1-0.3,2.3-0.9,3.1
		c-0.8,1.2-0.5,2.8,0.6,3.7c0.5,0.3,1,0.5,1.5,0.5c0.8,0,1.6-0.4,2.2-1.1c1.2-1.8,1.9-3.9,1.9-6.1C49.5,18.7,48.9,16.6,47.7,14.8z"
		/>
</g>
</svg>
