<?xml version="1.0" encoding="utf-8"?>
<!-- Generator: Adobe Illustrator 20.1.0, SVG Export Plug-In . SVG Version: 6.00 Build 0)  -->
<svg version="1.1" id="Layer_1_copy_3" xmlns="http://www.w3.org/2000/svg" xmlns:xlink="http://www.w3.org/1999/xlink" x="0px"
	 y="0px" viewBox="0 0 97.1 97.1" style="enable-background:new 0 0 97.1 97.1;" xml:space="preserve">
<style type="text/css">
	.st0{fill:#F4F4F4;}
</style>
<g>
	<path class="st0" d="M95.9,46.5L95.9,46.5c-0.7-3.4-2.1-6.7-4.1-9.6c0.1-0.7,0.1-1.5,0.1-2.2c0-2.8-0.4-5.5-1.3-8.1h0
		c-0.1-0.3-0.2-0.7-0.2-1.1c0-0.4,0.1-0.9,0.3-1.3h0c-0.8-0.1-1.5-0.5-2.1-1.1l0,0c-2.3-2.6-5.2-4.7-8.4-6.2c-1.5-3.2-3.6-6-6.2-8.4
		l0,0c-0.6-0.5-1-1.3-1.1-2.1c-0.4,0.2-0.8,0.3-1.3,0.3c-0.4,0-0.7-0.1-1.1-0.2c-2.6-0.9-5.4-1.3-8.1-1.3c-0.7,0-1.5,0-2.2,0.1h0
		c-2.9-2-6.1-3.4-9.6-4.1l0,0c-0.8-0.2-1.5-0.6-2-1.2c-0.5,0.6-1.2,1.1-2,1.2v0C43.1,2,39.9,3.4,37,5.4c-0.7-0.1-1.5-0.1-2.2-0.1
		c-2.8,0-5.5,0.4-8.1,1.3c-0.3,0.1-0.7,0.2-1.1,0.2c-0.4,0-0.9-0.1-1.3-0.3c-0.1,0.8-0.5,1.5-1.1,2.1v0c-2.6,2.3-4.7,5.2-6.2,8.4
		c-3.2,1.5-6,3.6-8.4,6.2v0c-0.5,0.6-1.3,1-2.1,1.1h0c0.2,0.4,0.3,0.8,0.3,1.3c0,0.4-0.1,0.7-0.2,1.1h0c-0.9,2.6-1.3,5.4-1.3,8.1
		c0,0.7,0,1.5,0.1,2.2c-2,2.9-3.4,6.1-4.1,9.6l0,0c-0.2,0.8-0.6,1.5-1.2,2c0.6,0.5,1.1,1.2,1.2,2l0,0C2,54,3.4,57.2,5.4,60.1
		c-0.1,0.7-0.1,1.5-0.1,2.2c0,2.8,0.4,5.5,1.3,8.1h0c0.1,0.3,0.2,0.7,0.2,1.1c0,0.4-0.1,0.9-0.3,1.3h0c0.8,0.1,1.5,0.5,2.1,1.1v0
		c2.3,2.6,5.2,4.7,8.4,6.2v0c1.5,3.2,3.6,6,6.2,8.4v0c0.6,0.5,1,1.3,1.1,2.1c0.4-0.2,0.8-0.3,1.3-0.3c0.4,0,0.7,0.1,1.1,0.2v0
		c2.6,0.9,5.4,1.3,8.1,1.3c0.7,0,1.5,0,2.2-0.1c2.9,2,6.1,3.4,9.6,4.1v0c0.8,0.2,1.5,0.6,2,1.2c0.5-0.6,1.2-1.1,2-1.2v0
		c3.4-0.7,6.7-2.1,9.6-4.1h0c0.7,0.1,1.5,0.1,2.2,0.1c2.8,0,5.5-0.4,8.1-1.3v0c0.3-0.1,0.7-0.2,1.1-0.2c0.4,0,0.9,0.1,1.3,0.3
		c0.1-0.8,0.5-1.5,1.1-2.1l0,0c2.6-2.3,4.7-5.2,6.2-8.4c3.2-1.5,6-3.6,8.4-6.2l0,0c0.5-0.6,1.3-1,2.1-1.1h0
		c-0.2-0.4-0.3-0.8-0.3-1.3c0-0.4,0.1-0.7,0.2-1.1h0c0.9-2.6,1.3-5.4,1.3-8.1c0-0.7,0-1.5-0.1-2.2c2-2.9,3.4-6.1,4.1-9.6h0
		c0.2-0.8,0.6-1.5,1.2-2C96.5,48,96,47.3,95.9,46.5z M81.4,20.2L81.4,20.2c2,1.2,3.8,2.7,5.4,4.5c0.4,0.4,0.8,0.8,1.2,1l0,0
		c0,0.5,0.1,1.1,0.3,1.6c0.7,2.2,1.1,4.5,1.2,6.9l0,0c-2-2.2-4.4-3.9-7-5.3C82.7,26,82.3,23,81.4,20.2L81.4,20.2L81.4,20.2z
		 M79.4,56.8L79.4,56.8c2.7-1.6,5.1-3.7,7-6.2v0c1.6,2.7,2.6,5.7,3,8.9v0c-1.9,2.5-4.3,4.6-7,6.2l0,0C81.9,62.5,80.9,59.5,79.4,56.8
		z M55.9,76.1L55.9,76.1L55.9,76.1c-2.2-1.5-4-3.3-5.6-5.5c2-1.4,4.4-2.1,6.8-2.1c0.3,0,0.6,0,0.9,0C57.8,71.1,57.1,73.7,55.9,76.1
		L55.9,76.1z M17.8,40.3L17.8,40.3c-2.7,1.6-5.1,3.7-7,6.2h0c-1.6-2.7-2.6-5.7-3-8.9v0c1.9-2.5,4.3-4.6,7-6.2l0,0
		C15.2,34.5,16.2,37.5,17.8,40.3z M26.1,28.3L26.1,28.3c0.2,2.9,0.9,5.8,2.1,8.5c-2.9,0.3-5.7,1.1-8.4,2.4c-1.5-2.7-2.5-5.8-2.8-8.9
		h0l0,0v0C19.9,29.1,22.9,28.4,26.1,28.3z M41.2,21L41.2,21L41.2,21c2.2,1.5,4,3.3,5.6,5.5h0v0l0,0c-2,1.4-4.4,2.1-6.8,2.1
		c-0.3,0-0.6,0-0.9,0C39.4,26,40.1,23.4,41.2,21L41.2,21z M77.3,39.2L77.3,39.2c-2.6-1.3-5.5-2.1-8.4-2.4c1.2-2.7,1.9-5.5,2.1-8.5
		c3.1,0,6.2,0.7,9.1,2C79.8,33.4,78.8,36.5,77.3,39.2z M78.1,42.3c2.7,1.6,5,3.7,6.9,6.3c-1.9,2.5-4.2,4.7-6.9,6.3
		c-1.6-2.4-3.7-4.5-6.1-6.3l0,0v0h0C74.4,46.8,76.5,44.7,78.1,42.3L78.1,42.3z M76.1,41.2L76.1,41.2c-1.5,2.2-3.3,4-5.5,5.6v0h0l0,0
		c-1.4-2-2.1-4.4-2.1-6.8c0-0.3,0-0.6,0-0.9C71.2,39.3,73.7,40.1,76.1,41.2z M66.2,57.2c0,0.5,0,1.1,0.1,1.6c-3.4,1.5-6,4.1-7.5,7.5
		c-0.5-0.1-1.1-0.1-1.6-0.1c-3.1,0-6.1,1-8.6,2.8l0,0c-2.5-1.8-5.5-2.8-8.6-2.8c-0.5,0-1.1,0-1.6,0.1h0c-1.5-3.4-4.1-6-7.5-7.5
		c0.1-0.5,0.1-1.1,0.1-1.6c0-3.1-1-6.1-2.8-8.6v0c1.8-2.5,2.8-5.5,2.8-8.6c0-0.5,0-1.1-0.1-1.6v0c3.4-1.5,6-4.1,7.5-7.5h0
		c0.5,0.1,1.1,0.1,1.6,0.1c3.1,0,6.1-1,8.6-2.8v0c2.5,1.8,5.5,2.8,8.6,2.8c0.5,0,1.1,0,1.6-0.1c1.5,3.4,4.1,6,7.5,7.5v0
		c-0.1,0.5-0.1,1.1-0.1,1.6c0,3.1,1,6.1,2.8,8.6v0C67.2,51,66.2,54.1,66.2,57.2z M66.8,61.1c1.1,2.4,1.7,5,1.9,7.6
		c-2.6-0.2-5.2-0.9-7.6-1.9c1.1-2.2,2.8-4,4.9-5.2C66.2,61.4,66.5,61.2,66.8,61.1L66.8,61.1z M36,66.7c-2.4,1.1-5,1.7-7.6,1.9
		c0.2-2.6,0.9-5.2,1.9-7.6v0c2.2,1.1,4,2.8,5.2,4.9C35.7,66.2,35.9,66.5,36,66.7L36,66.7z M30.4,36c-1.1-2.4-1.7-5-1.9-7.6
		c2.6,0.2,5.2,0.9,7.6,1.9c-1.1,2.2-2.8,4-4.9,5.2C30.9,35.7,30.6,35.8,30.4,36z M61.1,30.4c2.4-1.1,5-1.7,7.6-1.9
		c-0.2,2.6-0.9,5.2-1.9,7.6v0c-2.2-1.1-4-2.8-5.2-4.9C61.4,30.9,61.3,30.6,61.1,30.4z M60.3,28.2L60.3,28.2L60.3,28.2L60.3,28.2
		c-0.3-2.9-1.1-5.7-2.4-8.4v0c2.7-1.5,5.8-2.5,8.9-2.8c1.3,2.9,1.9,6,2,9.1C65.9,26.3,63,27,60.3,28.2z M58,28.6
		c-2.4,0.2-4.8-0.4-7-1.6c-0.2-0.1-0.5-0.3-0.7-0.5l0,0c1.5-2.1,3.4-4,5.6-5.5C57.1,23.4,57.8,26,58,28.6z M54.8,19
		c-2.4,1.6-4.5,3.7-6.3,6.1c-1.7-2.4-3.9-4.4-6.3-6.1l0,0c1.6-2.7,3.7-5,6.3-6.9C51.1,13.9,53.2,16.3,54.8,19L54.8,19z M39.2,19.8
		c-1.3,2.6-2.1,5.5-2.4,8.4v0c-2.7-1.2-5.5-1.9-8.5-2.1h0c0-3.1,0.7-6.2,2-9.1C33.4,17.3,36.5,18.3,39.2,19.8L39.2,19.8z M28.6,39.1
		c0.2,2.4-0.4,4.8-1.6,6.9c-0.1,0.2-0.3,0.5-0.5,0.7l0,0c-2.1-1.5-4-3.4-5.5-5.6C23.4,40.1,26,39.3,28.6,39.1z M25,48.5L25,48.5
		L25,48.5c-2.4,1.7-4.4,3.9-6.1,6.3h0c-2.7-1.6-5-3.7-6.9-6.3c1.9-2.5,4.2-4.7,6.9-6.3l0,0C20.6,44.7,22.7,46.8,25,48.5L25,48.5z
		 M10.8,50.6L10.8,50.6c1.9,2.5,4.3,4.6,7,6.2h0c-1.5,2.7-2.5,5.8-3,8.9l0,0c-2.7-1.6-5.1-3.7-7-6.2v0C8.2,56.3,9.2,53.3,10.8,50.6z
		 M17,66.8c0.3-3.1,1.3-6.1,2.8-8.9c2.6,1.3,5.5,2.1,8.4,2.4v0l0,0h0c-1.2,2.7-1.9,5.5-2.1,8.5v0C22.9,68.7,19.9,68,17,66.8L17,66.8
		L17,66.8L17,66.8z M21,55.9L21,55.9c1.5-2.2,3.3-4,5.5-5.6c1.4,2,2.1,4.4,2.1,6.8c0,0.3,0,0.6,0,0.9C26,57.7,23.4,57,21,55.9z
		 M28.3,71c2.9-0.2,5.8-0.9,8.5-2.1v0c0.3,2.9,1.1,5.7,2.4,8.4l0,0c-2.7,1.5-5.8,2.5-8.9,2.8C29.1,77.2,28.4,74.1,28.3,71L28.3,71z
		 M39.1,68.5c2.4-0.2,4.8,0.4,7,1.6c0.2,0.1,0.5,0.3,0.7,0.5h0c-1.5,2.1-3.4,4-5.6,5.5C40.1,73.7,39.4,71.1,39.1,68.5z M42.3,78.1
		c2.4-1.6,4.5-3.7,6.3-6.1c1.7,2.4,3.9,4.4,6.3,6.1c-1.6,2.7-3.7,5-6.3,6.9C46,83.1,43.9,80.8,42.3,78.1L42.3,78.1z M57.9,77.3
		c1.3-2.6,2.1-5.5,2.4-8.4h0l0,0v0c2.7,1.2,5.5,1.9,8.5,2.1h0c0,3.1-0.7,6.2-2,9.1C63.7,79.8,60.7,78.8,57.9,77.3L57.9,77.3z
		 M68.5,58c-0.2-2.4,0.4-4.8,1.6-6.9c0.1-0.2,0.3-0.5,0.5-0.7v0c2.1,1.5,4,3.4,5.5,5.6C73.7,57,71.2,57.7,68.5,58z M77.3,57.9
		L77.3,57.9c1.5,2.7,2.5,5.8,2.8,8.9c-2.9,1.3-6,1.9-9.1,2c-0.2-2.9-0.9-5.8-2.1-8.5C71.8,60,74.7,59.2,77.3,57.9z M79.4,40.3
		c1.5-2.7,2.5-5.8,3-8.9v0c2.7,1.6,5.1,3.7,7,6.2v0c-0.4,3.1-1.4,6.1-3,8.9v0C84.4,44,82,41.9,79.4,40.3z M78.4,18.7
		c1.2,2.9,1.9,6,1.8,9.2c-2.9-1.2-6-1.8-9.2-1.9v0c-0.1-3.1-0.7-6.2-1.9-9.2v0C72.4,16.8,75.5,17.5,78.4,18.7L78.4,18.7z M62.9,7.6
		c2.3,0.1,4.7,0.5,6.9,1.2v0c0.5,0.2,1.1,0.3,1.6,0.3l0,0c0.3,0.5,0.6,0.9,1,1.2c1.7,1.6,3.3,3.4,4.5,5.4l0,0
		c-2.8-0.9-5.7-1.2-8.7-1.1v0C66.8,11.9,65,9.6,62.9,7.6L62.9,7.6z M59.5,7.8c2.5,1.9,4.6,4.3,6.2,7l0,0c-3.1,0.4-6.1,1.5-8.9,3
		c-1.6-2.7-3.7-5.1-6.2-7v0C53.3,9.2,56.4,8.2,59.5,7.8L59.5,7.8z M47,3.5c0.5-0.1,1-0.3,1.5-0.6c0.5,0.3,1,0.4,1.5,0.6
		c2.3,0.5,4.5,1.3,6.5,2.4h0c-2.9,0.7-5.6,1.8-8.1,3.4c-2.5-1.6-5.2-2.7-8.1-3.4C42.5,4.8,44.7,4,47,3.5z M37.6,7.8L37.6,7.8
		c3.1,0.4,6.1,1.4,8.9,3h0c-2.5,1.9-4.6,4.3-6.2,7c-2.7-1.5-5.8-2.5-8.9-3C33,12.1,35.1,9.7,37.6,7.8z M24.7,10.3
		c0.4-0.4,0.8-0.8,1-1.2l0,0c0.5,0,1.1-0.1,1.6-0.3v0c2.2-0.7,4.5-1.1,6.9-1.2l0,0c-2.2,2-3.9,4.4-5.3,7c-2.9-0.1-5.9,0.3-8.7,1.1
		l0,0C21.5,13.7,23,11.9,24.7,10.3z M18.7,18.7L18.7,18.7c2.9-1.2,6-1.9,9.2-1.8c-1.2,2.9-1.8,6-1.9,9.2h0c-3.1,0.1-6.3,0.7-9.2,1.9
		h0C16.8,24.7,17.5,21.6,18.7,18.7z M8.8,27.4L8.8,27.4c0.2-0.5,0.3-1.1,0.3-1.6l0,0c0.5-0.3,0.9-0.6,1.2-1h0
		c1.6-1.7,3.4-3.2,5.4-4.5c-0.9,2.8-1.2,5.7-1.1,8.7h0c-2.6,1.4-5,3.2-7,5.3l0,0C7.6,31.9,8,29.6,8.8,27.4z M5.9,56.6L5.9,56.6
		c-1.1-2-1.9-4.3-2.4-6.5c-0.1-0.5-0.3-1-0.6-1.5v0c0.3-0.5,0.4-1,0.6-1.5c0.5-2.3,1.3-4.5,2.4-6.5v0c0.7,2.9,1.8,5.6,3.4,8.1
		C7.7,51,6.6,53.8,5.9,56.6z M15.7,76.8c-2-1.2-3.8-2.7-5.4-4.5h0c-0.4-0.4-0.8-0.8-1.2-1h0c0-0.5-0.1-1.1-0.3-1.6h0
		c-0.7-2.2-1.1-4.5-1.2-6.9l0,0c2,2.2,4.4,3.9,7,5.3C14.4,71.1,14.8,74,15.7,76.8L15.7,76.8z M16.9,69.2L16.9,69.2
		c2.9,1.2,6,1.8,9.2,1.9v0c0.1,3.1,0.7,6.2,1.9,9.2v0c-3.2,0-6.3-0.6-9.2-1.8v0C17.5,75.5,16.8,72.4,16.9,69.2z M27.4,88.3
		L27.4,88.3c-0.5-0.2-1.1-0.3-1.6-0.3h0c-0.3-0.5-0.6-0.9-1-1.2v0c-1.7-1.6-3.3-3.4-4.5-5.4l0,0c2.8,0.9,5.7,1.2,8.7,1.1
		c1.4,2.6,3.2,5,5.3,7C31.9,89.4,29.6,89,27.4,88.3z M37.6,89.3c-2.5-1.9-4.6-4.3-6.2-7l0,0c3.1-0.4,6.1-1.5,8.9-3v0
		c1.6,2.7,3.7,5.1,6.2,7v0C43.8,87.9,40.8,88.9,37.6,89.3L37.6,89.3z M50.1,93.6c-0.5,0.1-1,0.3-1.5,0.6c-0.5-0.3-1-0.4-1.5-0.6
		c-2.3-0.5-4.5-1.3-6.5-2.4c2.9-0.7,5.6-1.8,8.1-3.4c2.5,1.6,5.2,2.7,8.1,3.4h0C54.6,92.3,52.4,93.1,50.1,93.6z M59.5,89.3
		L59.5,89.3c-3.1-0.4-6.1-1.4-8.9-3h0c2.5-1.9,4.6-4.3,6.2-7v0c2.7,1.5,5.8,2.5,8.9,3h0C64.1,85,62,87.4,59.5,89.3z M72.4,86.8
		L72.4,86.8c-0.4,0.4-0.8,0.8-1,1.2h0c-0.5,0-1.1,0.1-1.6,0.3v0c-2.2,0.7-4.5,1.1-6.9,1.2c2.2-2,3.9-4.4,5.3-7
		c2.9,0.1,5.9-0.3,8.7-1.1l0,0C75.7,83.4,74.2,85.2,72.4,86.8z M78.4,78.4L78.4,78.4c-2.9,1.2-6,1.9-9.2,1.8l0,0
		c1.2-2.9,1.8-6,1.9-9.2c3.1-0.1,6.3-0.7,9.2-1.9C80.3,72.4,79.6,75.5,78.4,78.4z M88.3,69.7c-0.2,0.5-0.3,1.1-0.3,1.6h0
		c-0.5,0.3-0.9,0.6-1.2,1c-1.6,1.7-3.4,3.2-5.4,4.5l0,0c0.9-2.8,1.2-5.7,1.1-8.7c2.6-1.4,5-3.2,7-5.3l0,0
		C89.5,65.2,89.1,67.5,88.3,69.7z M94.2,48.5c-0.3,0.5-0.4,1-0.6,1.5h0c-0.5,2.3-1.3,4.5-2.4,6.5v0c-0.7-2.9-1.8-5.6-3.4-8.1
		c1.6-2.5,2.7-5.2,3.4-8.1v0c1.1,2,1.9,4.3,2.4,6.5h0C93.7,47.5,93.9,48.1,94.2,48.5L94.2,48.5z"/>
</g>
</svg>
