<?xml version="1.0" encoding="utf-8"?>
<!-- Generator: Adobe Illustrator 20.1.0, SVG Export Plug-In . SVG Version: 6.00 Build 0)  -->
<svg version="1.1" id="Layer_1" xmlns="http://www.w3.org/2000/svg" xmlns:xlink="http://www.w3.org/1999/xlink" x="0px" y="0px"
	 viewBox="0 0 531 513" style="enable-background:new 0 0 531 513;" xml:space="preserve">
<style type="text/css">
	.st0{fill:#AC4646;}
	.st1{fill:#DB833B;}
	.st2{fill:#3D96AE;}
</style>
<path class="st0" d="M503.8,181.4C477.3,96.5,406.5,31.2,318.6,12.5l-51.7,244.3L503.8,181.4z"/>
<path class="st1" d="M18,255.5c0,26.7,4.2,52.5,12.1,76.6l236.8-75.4l51.7-244.3C301.8,8.9,284.4,7,266.5,7
	C129.3,7,18,118.3,18,255.5z"/>
<path class="st2" d="M30.1,332.1C62.4,431.9,156,504,266.5,504C403.7,504,515,392.7,515,255.5c0-25.8-3.9-50.7-11.2-74.1
	l-236.9,75.4L30.1,332.1z"/>
</svg>
