<?xml version="1.0" encoding="utf-8"?>
<!-- Generator: Adobe Illustrator 20.1.0, SVG Export Plug-In . SVG Version: 6.00 Build 0)  -->
<svg version="1.1" id="Layer_1" xmlns="http://www.w3.org/2000/svg" xmlns:xlink="http://www.w3.org/1999/xlink" x="0px" y="0px"
	 viewBox="0 0 56.7 56.7" style="enable-background:new 0 0 56.7 56.7;" xml:space="preserve">
<style type="text/css">
	.st0{fill:#13A086;}
	.st1{fill:#F37A77;}
</style>
<g>
	<path class="st0" d="M24.4,49V34.5c0-0.5-0.4-0.9-0.9-0.9h-6c-0.5,0-0.9,0.4-0.9,0.9c0,0.5,0.4,0.9,0.9,0.9h5.1V49
		c-1.7,0.4-3,2-3,3.8c0,2.2,1.8,3.9,3.9,3.9s3.9-1.8,3.9-3.9C27.4,50.9,26.2,49.4,24.4,49z M23.5,54.9c-1.2,0-2.1-0.9-2.1-2.1
		s0.9-2.1,2.1-2.1c1.2,0,2.1,0.9,2.1,2.1S24.7,54.9,23.5,54.9z"/>
	<path class="st0" d="M34.1,49V34.5c0-0.5-0.4-0.9-0.9-0.9h-6c-0.5,0-0.9,0.4-0.9,0.9c0,0.5,0.4,0.9,0.9,0.9h5.1V49
		c-1.7,0.4-3,2-3,3.8c0,2.2,1.8,3.9,3.9,3.9s3.9-1.8,3.9-3.9C37.1,50.9,35.8,49.4,34.1,49z M33.2,54.9c-1.2,0-2.1-0.9-2.1-2.1
		s0.9-2.1,2.1-2.1c1.2,0,2.1,0.9,2.1,2.1S34.3,54.9,33.2,54.9z"/>
	<path class="st0" d="M49.5,42.8c-1.9,0-3.4,1.3-3.8,3h-1.9V34.5c0-0.5-0.4-0.9-0.9-0.9h-6c-0.5,0-0.9,0.4-0.9,0.9
		c0,0.5,0.4,0.9,0.9,0.9h5.1v11.4c0,0.5,0.4,0.9,0.9,0.9h2.8c0.4,1.7,2,3,3.8,3c2.2,0,3.9-1.8,3.9-3.9
		C53.4,44.6,51.6,42.8,49.5,42.8z M49.5,48.9c-1.2,0-2.1-0.9-2.1-2.1s0.9-2.1,2.1-2.1s2.1,0.9,2.1,2.1S50.6,48.9,49.5,48.9z"/>
	<path class="st1" d="M54.5,19.5c-1.2-1.5-2.9-2.6-4.7-3.2c-0.2-4.3-2-8.3-5-11.3c-3.2-3.2-7.5-5-12.1-5c-6,0-11.5,3.1-14.6,8.2
		c-0.8-0.2-1.5-0.4-2.3-0.4c-3.7,0-6.9,2.6-7.6,6.2C3.4,15.2,0,19.5,0,24.5c0,6,4.9,10.9,10.9,10.9H13v10.5h-1.9c-0.4-1.7-2-3-3.8-3
		c-2.2,0-3.9,1.8-3.9,3.9c0,2.2,1.8,3.9,3.9,3.9c1.9,0,3.4-1.3,3.8-3h2.8c0.5,0,0.9-0.4,0.9-0.9V34.5c0-0.5-0.4-0.9-0.9-0.9h-3
		c-5,0-9.1-4.1-9.1-9.1c0-4.3,3.1-8,7.3-8.9c0.4-0.1,0.7-0.4,0.7-0.8c0.4-3,2.9-5.2,6-5.2c0.8,0,1.6,0.2,2.4,0.5
		c0.4,0.2,0.9,0,1.2-0.4c2.7-4.9,7.8-7.9,13.4-7.9C41.1,1.8,48,8.6,48,17c0,0.4,0.3,0.8,0.7,0.9c3.6,0.8,6.2,4,6.2,7.7
		c0,4.4-3.6,8-8,8h-0.5c-0.5,0-0.9,0.4-0.9,0.9c0,0.5,0.4,0.9,0.9,0.9h0.5c5.4,0,9.8-4.4,9.8-9.8C56.7,23.4,55.9,21.2,54.5,19.5z
		 M7.2,48.9c-1.2,0-2.1-0.9-2.1-2.1s0.9-2.1,2.1-2.1s2.1,0.9,2.1,2.1S8.4,48.9,7.2,48.9z"/>
	<path class="st0" d="M44.1,17.9L44.1,17.9c0.5,0,0.9-0.4,0.9-0.9c0-1.5-0.3-2.9-0.8-4.3C44,12.2,43.5,12,43,12.2
		c-0.5,0.2-0.7,0.7-0.5,1.2c0.5,1.2,0.7,2.4,0.7,3.7C43.2,17.5,43.6,17.9,44.1,17.9L44.1,17.9z"/>
	<path class="st0" d="M40.8,10.5c0.2,0.2,0.4,0.3,0.7,0.3c0.2,0,0.4-0.1,0.6-0.2c0.4-0.3,0.4-0.9,0.1-1.3c-2.4-2.9-5.8-4.5-9.5-4.5
		c-0.5,0-0.9,0.4-0.9,0.9s0.4,0.9,0.9,0.9C35.8,6.6,38.8,8,40.8,10.5L40.8,10.5z"/>
</g>
</svg>
