<?xml version="1.0" encoding="utf-8"?>
<!-- Generator: Adobe Illustrator 20.1.0, SVG Export Plug-In . SVG Version: 6.00 Build 0)  -->
<svg version="1.1" id="Layer_1" xmlns="http://www.w3.org/2000/svg" xmlns:xlink="http://www.w3.org/1999/xlink" x="0px" y="0px"
	 viewBox="0 0 11.3 20.3" style="enable-background:new 0 0 11.3 20.3;" xml:space="preserve">
<style type="text/css">
	.st0{fill:#2798BA;}
	.st1{fill:#E0E0E0;}
</style>
<polyline class="st0" points="1.4,0.3 5.8,0.3 5.8,4.6 1.4,0.3 "/>
<polyline class="st0" points="6.8,7.1 9.8,10.1 6.8,13.2 6.8,7.1 "/>
<polyline class="st0" points="5.8,15.7 5.8,20 1.4,20 5.8,15.7 "/>
<polygon class="st1" points="1.4,0.3 5.8,0.3 5.8,4.6 5.8,6.1 5.8,14.2 5.9,14.1 6.8,13.2 6.8,7.1 6.8,5.6 6.8,-0.7 0.4,-0.7 
	1.4,0.3 "/>
<polygon class="st1" points="9.8,10.1 6.8,13.2 5.9,14.1 0,20 1.4,20 5.8,15.7 5.8,15.7 6.8,14.6 6.8,14.6 11.3,10.1 6.8,5.6 
	6.8,7.1 "/>
<polygon class="st1" points="5.8,6.1 5.8,4.6 1.4,0.3 1.4,0.3 1.4,0.3 0.4,-0.7 0,-0.7 0,0.3 "/>
<polygon class="st1" points="6.8,14.6 6.8,14.6 5.8,15.7 5.8,15.7 5.8,20 0,20 0,21 6.8,21 "/>
</svg>
