<?xml version="1.0" encoding="utf-8"?>
<!-- Generator: Adobe Illustrator 20.1.0, SVG Export Plug-In . SVG Version: 6.00 Build 0)  -->
<svg version="1.1" id="Layer_1" xmlns="http://www.w3.org/2000/svg" xmlns:xlink="http://www.w3.org/1999/xlink" x="0px" y="0px"
	 viewBox="0 0 11.3 21.7" style="enable-background:new 0 0 11.3 21.7;" xml:space="preserve">
<style type="text/css">
	.st0{fill:#2798BA;}
	.st1{fill:#E0E0E0;}
</style>
<polyline class="st0" points="1.4,1 5.8,1 5.8,5.3 1.4,1 "/>
<polyline class="st0" points="6.8,7.8 9.8,10.9 6.8,13.9 6.8,7.8 "/>
<polyline class="st0" points="5.8,16.4 5.8,20.7 1.4,20.7 5.8,16.4 "/>
<polygon class="st1" points="1.4,1 5.8,1 5.8,5.3 5.8,6.8 5.8,14.9 5.9,14.8 6.8,13.9 6.8,7.8 6.8,6.4 6.8,0 0.4,0 1.4,1 1.4,1 "/>
<polygon class="st1" points="9.8,10.9 6.8,13.9 5.9,14.8 0,20.7 1.4,20.7 5.8,16.4 5.8,16.4 6.8,15.4 6.8,15.4 11.3,10.9 6.8,6.4 
	6.8,7.8 "/>
<polygon class="st1" points="5.8,6.8 5.8,5.3 1.4,1 1.4,1 1.4,1 0.4,0 0,0 0,1 "/>
<polygon class="st1" points="6.8,15.4 6.8,15.4 5.8,16.4 5.8,16.4 5.8,20.7 0,20.7 0,21.7 6.8,21.7 "/>
</svg>
