<?xml version="1.0" encoding="utf-8"?>
<!-- Generator: Adobe Illustrator 20.1.0, SVG Export Plug-In . SVG Version: 6.00 Build 0)  -->
<svg version="1.1" id="Layer_1" xmlns="http://www.w3.org/2000/svg" xmlns:xlink="http://www.w3.org/1999/xlink" x="0px" y="0px"
	 viewBox="0 0 11.3 19.7" style="enable-background:new 0 0 11.3 19.7;" xml:space="preserve">
<style type="text/css">
	.st0{fill:#2798BA;}
	.st1{fill:#E0E0E0;}
</style>
<polyline class="st0" points="1.4,0 5.8,0 5.8,4.3 1.4,0 "/>
<polyline class="st0" points="6.8,6.8 9.8,9.8 6.8,12.9 6.8,6.8 "/>
<polyline class="st0" points="5.8,15.4 5.8,19.7 1.4,19.7 5.8,15.4 "/>
<polygon class="st1" points="1.4,0 5.8,0 5.8,4.3 5.8,5.8 5.8,13.9 5.9,13.8 6.8,12.9 6.8,6.8 6.8,5.3 6.8,-1 0.4,-1 1.4,0 1.4,0 
	"/>
<polygon class="st1" points="9.8,9.8 6.8,12.9 5.9,13.8 0,19.7 1.4,19.7 5.8,15.4 5.8,15.4 6.8,14.3 6.8,14.3 11.3,9.8 6.8,5.3 
	6.8,6.8 "/>
<polygon class="st1" points="5.8,5.8 5.8,4.3 1.4,0 1.4,0 1.4,0 0.4,-1 0,-1 0,0 "/>
<polygon class="st1" points="6.8,14.3 6.8,14.3 5.8,15.4 5.8,15.4 5.8,19.7 0,19.7 0,20.7 6.8,20.7 "/>
</svg>
