<?xml version="1.0" encoding="utf-8"?>
<!-- Generator: Adobe Illustrator 20.1.0, SVG Export Plug-In . SVG Version: 6.00 Build 0)  -->
<svg version="1.1" id="Layer_1" xmlns="http://www.w3.org/2000/svg" xmlns:xlink="http://www.w3.org/1999/xlink" x="0px" y="0px"
	 viewBox="0 0 368.4 370.5" style="enable-background:new 0 0 368.4 370.5;" xml:space="preserve">
<style type="text/css">
	.st0{fill:#E76F4C;}
	.st1{fill:#01BBBA;}
</style>
<g>
	<path class="st0" d="M138.5,34.9c15.4,0,28,12.5,28,28s-12.5,28-28,28s-28-12.5-28-28S123.1,34.9,138.5,34.9z"/>
	<path class="st0" d="M213.5,60.1c-2,1.1-129.3,65.5-130.1,65.9c-7.7,4-7.3,3.1-2,8c61.5,56.3,87.1,146.2,87.4,212
		c0.1,8-0.2,22.9,7.4,24.2c8.7,1.5,14.2-14.1,18-23c44.5-107.6,70.3-221.9,28.2-284.8C219,57.1,219.4,57.1,213.5,60.1z"/>
</g>
<g>
	<path class="st1" d="M327.5,2.1c15.4-1,28.7,10.7,29.7,26.1s-10.7,28.7-26.1,29.7c-15.4,1-28.7-10.7-29.7-26.1
		C300.4,16.4,312.1,3.1,327.5,2.1z"/>
	<path class="st1" d="M363.8,101.9c-0.6-0.6-107.9-94.6-109.6-96.1c-5.7-5-5.2-5.2-9.3,0c-11.8,14.6-21.5,31.3-29.1,49.5l0,0
		c4.8-2.5,4.8-2,8.2,3.3c39.5,57.3,24.7,154.6-14,258.3l0,0c4.3,14.9,9.3,29.1,14.8,42.3c2.4,5.6,6.6,12.2,13.1,11.2
		c4.7-0.7,6-5.7,6.7-14.2c4.8-70.3,32.5-199.8,119.1-246C370,106.8,369.9,107.6,363.8,101.9z"/>
</g>
<g>
	<path class="st1" d="M58.4,21c15.2,2.9,25.1,17.6,22.2,32.7C77.7,68.9,63,78.8,47.9,75.9C32.7,73,22.8,58.3,25.7,43.2
		C28.5,28,43.2,18.1,58.4,21z"/>
	<path class="st1" d="M76,133.5c-5.8-5.3-6.2-4.3,2.1-8.6c0.4-0.2,29.5-14.9,60.7-30.7h-0.2c-17.3,0-31.3-14-31.3-31.3
		c0-6,1.7-11.6,4.6-16.4l0,0C79.9,68.2,6.2,117.9,5.7,118.2c-7.4,5.2-7.5,5-0.9,8.2c78.8,41.2,111.6,157.7,117.6,226.9
		c0.8,10.5,2.2,16.1,6.5,16.8c3.7,0.6,9.1,0.1,15.9-17.1c6.6-17.1,12.3-34.3,17-51.5v-0.1C152.4,241.9,125.7,177.8,76,133.5z"/>
</g>
</svg>
