<?xml version="1.0" encoding="utf-8"?>
<!-- Generator: Adobe Illustrator 20.1.0, SVG Export Plug-In . SVG Version: 6.00 Build 0)  -->
<svg version="1.1" id="Layer_1" xmlns="http://www.w3.org/2000/svg" xmlns:xlink="http://www.w3.org/1999/xlink" x="0px" y="0px"
	 viewBox="0 0 56.7 50.8" style="enable-background:new 0 0 56.7 50.8;" xml:space="preserve">
<style type="text/css">
	.st0{fill:#566181;}
	.st1{fill:#F37A77;}
	.st2{fill:#B49AC9;}
</style>
<g>
	<rect x="27.4" y="13.7" class="st0" width="2" height="23.5"/>
	<polygon class="st0" points="50.8,37.1 48.9,37.1 48.9,26.4 7.8,26.4 7.8,37.1 5.9,37.1 5.9,24.4 50.8,24.4 	"/>
	<path class="st1" d="M6.8,50.8L6.8,50.8C3.1,50.8,0,47.8,0,44l0,0c0-3.8,3.1-6.8,6.8-6.8l0,0c3.8,0,6.8,3.1,6.8,6.8l0,0
		C13.7,47.8,10.6,50.8,6.8,50.8z"/>
	<path class="st1" d="M49.9,50.8L49.9,50.8c-3.8,0-6.8-3.1-6.8-6.8l0,0c0-3.8,3.1-6.8,6.8-6.8l0,0c3.8,0,6.8,3.1,6.8,6.8l0,0
		C56.7,47.8,53.6,50.8,49.9,50.8z"/>
	<path class="st1" d="M28.3,50.8L28.3,50.8c-3.8,0-6.8-3.1-6.8-6.8l0,0c0-3.8,3.1-6.8,6.8-6.8l0,0c3.8,0,6.8,3.1,6.8,6.8l0,0
		C35.2,47.8,32.1,50.8,28.3,50.8z"/>
	<rect x="21.5" class="st2" width="13.7" height="13.7"/>
</g>
</svg>
