<?xml version="1.0" encoding="utf-8"?>
<!-- Generator: Adobe Illustrator 20.1.0, SVG Export Plug-In . SVG Version: 6.00 Build 0)  -->
<svg version="1.1" id="Layer_1" xmlns="http://www.w3.org/2000/svg" xmlns:xlink="http://www.w3.org/1999/xlink" x="0px" y="0px"
	 viewBox="0 0 56.8 47.5" style="enable-background:new 0 0 56.8 47.5;" xml:space="preserve">
<style type="text/css">
	.st0{fill:#F37A77;}
	.st1{fill:#13A086;}
</style>
<g>
	<path class="st0" d="M34.4,8.2c2.6,1.6,4.4,4.4,4.8,7.6c1.1,0.5,2.2,0.8,3.5,0.8c4.6,0,8.3-3.7,8.3-8.3c0-4.6-3.7-8.3-8.3-8.3
		C38.1,0,34.4,3.6,34.4,8.2z"/>
	<circle class="st1" cx="28.9" cy="16.8" r="8.3"/>
	<path class="st1" d="M32.5,25.7h-7c-5.8,0-10.6,4.8-10.6,10.6v8.6l0,0.1l0.6,0.2c5.6,1.7,10.4,2.3,14.4,2.3
		c7.8,0,12.3-2.2,12.6-2.4l0.6-0.3h0.1v-8.6C43.1,30.4,38.3,25.7,32.5,25.7z"/>
	<path class="st0" d="M46.2,17.1h-7c-0.1,2.8-1.3,5.3-3.1,7.1c5.2,1.5,9,6.4,9,12.1v2.6c6.9-0.3,10.8-2.2,11.1-2.3l0.6-0.3h0.1v-8.6
		C56.8,21.9,52,17.1,46.2,17.1z"/>
	<path class="st0" d="M14.4,16.6c1.6,0,3.1-0.5,4.4-1.3c0.4-2.6,1.8-5,3.9-6.5c0-0.2,0-0.3,0-0.5C22.7,3.7,19,0,14.4,0
		C9.8,0,6.1,3.7,6.1,8.3C6.1,12.9,9.8,16.6,14.4,16.6z"/>
	<path class="st0" d="M21.9,24.2c-1.9-1.8-3.1-4.3-3.1-7.1c-0.3,0-0.5,0-0.8,0h-7c-5.8,0-10.6,4.8-10.6,10.6v8.6l0,0.1l0.6,0.2
		c4.5,1.4,8.5,2,11.9,2.2v-2.6C12.9,30.6,16.7,25.8,21.9,24.2z"/>
</g>
</svg>
