<?xml version="1.0" encoding="utf-8"?>
<!-- Generator: Adobe Illustrator 20.1.0, SVG Export Plug-In . SVG Version: 6.00 Build 0)  -->
<svg version="1.1" id="Layer_1" xmlns="http://www.w3.org/2000/svg" xmlns:xlink="http://www.w3.org/1999/xlink" x="0px" y="0px"
	 viewBox="0 0 55.8 57.6" style="enable-background:new 0 0 55.8 57.6;" xml:space="preserve">
<style type="text/css">
	.st0{fill:#13A086;}
	.st1{fill:#F37A77;}
</style>
<g>
	<path class="st0" d="M33.8,50.2c-2.4,0-4.6-0.6-6.7-1.6H13.1c-1.3,0-2.3-1.1-2.3-2.3V39c0-1.3,1-2.3,2.3-2.3h6.4c0-0.3,0-0.6,0-0.9
		c0-1.1,0.1-2.1,0.3-3.2H6.6v-3.9h13c1.1,0,2-0.9,2-2s-0.9-2-2-2h-13v-3.9h6.5h23.7c1,0,1.9,0.7,2.2,1.6c1.5,0.6,2.9,1.4,4.1,2.5
		v-1.8c0-0.8-0.2-1.6-0.4-2.3h5.1c1.1,0,2-0.9,2-2s-0.9-2-2-2h-0.6V4.8h0.6c1.1,0,2-0.9,2-2s-0.9-2-2-2H13.1c-3.5,0-6.4,2.9-6.4,6.4
		v7.2c0,0.8,0.2,1.6,0.4,2.3H2c-1.1,0-2,0.9-2,2c0,1.1,0.9,2,2,2h0.6v11.9H2c-1.1,0-2,0.9-2,2c0,1.1,0.9,2,2,2h5.1
		c-0.3,0.7-0.4,1.5-0.4,2.3v7.2c0,3.5,2.9,6.4,6.4,6.4h28.8l-3.2-3.2C37.1,49.9,35.5,50.2,33.8,50.2z M10.7,7.1c0-1.3,1-2.3,2.3-2.3
		h30.1v3.9h-13c-1.1,0-2,0.9-2,2s0.9,2,2,2h13v3.9H13.1c-1.3,0-2.3-1-2.3-2.3V7.1z"/>
	<path class="st1" d="M54.6,51.9L44.5,41.8c2.7-4.8,2-11-2-15.1c-4.9-4.9-12.8-4.9-17.7,0c-4.9,4.9-4.9,12.8,0,17.7
		c4.1,4.1,10.3,4.8,15.1,2l10.1,10.1c1.3,1.3,3.4,1.3,4.7,0C55.9,55.3,55.9,53.2,54.6,51.9z M40,42c-3.5,3.5-9.2,3.5-12.7,0
		c-3.5-3.5-3.5-9.2,0-12.7c3.5-3.5,9.2-3.5,12.7,0C43.5,32.7,43.5,38.5,40,42z"/>
</g>
</svg>
