<?xml version="1.0" encoding="utf-8"?>
<!-- Generator: Adobe Illustrator 20.1.0, SVG Export Plug-In . SVG Version: 6.00 Build 0)  -->
<svg version="1.1" id="Layer_1" xmlns="http://www.w3.org/2000/svg" xmlns:xlink="http://www.w3.org/1999/xlink" x="0px" y="0px"
	 viewBox="0 0 181.4 283.5" style="enable-background:new 0 0 181.4 283.5;" xml:space="preserve">
<style type="text/css">
	.st0{display:none;fill:#D8894E;}
	.st1{fill:#58C458;}
	.st2{display:none;fill:#EDEDDF;stroke:#5E5E5E;stroke-miterlimit:10;}
</style>
<polyline class="st0" points="90.7,589.9 181.4,433.1 181.4,331 90.7,306.8 0,331 0,433.1 90.7,589.9 "/>
<polyline class="st1" points="90.7,0 181.4,157 181.4,259.2 90.7,283.5 0,259.2 0,157 90.7,0 "/>
<polygon class="st2" points="45.4,295.4 -22.7,313.6 -22.7,439.2 90.7,635.2 204.1,439.2 204.1,313.6 0,259.1 0,157 90.7,0.1 
	181.4,157 181.4,259.1 92.2,282.9 136,294.6 204.1,276.4 204.1,150.9 90.7,-45.1 -22.7,150.9 -22.7,276.4 181.4,331 181.4,433.1 
	90.7,589.9 0,433.1 0,331 89.2,307.1 "/>
</svg>
