<?xml version="1.0" encoding="utf-8"?>
<!-- Generator: Adobe Illustrator 20.1.0, SVG Export Plug-In . SVG Version: 6.00 Build 0)  -->
<svg version="1.1" id="Capa_1" xmlns="http://www.w3.org/2000/svg" xmlns:xlink="http://www.w3.org/1999/xlink" x="0px" y="0px"
	 viewBox="0 0 43.6 43.6" style="enable-background:new 0 0 43.6 43.6;" xml:space="preserve">
<style type="text/css">
	.st0{fill:#20A286;}
</style>
<g>
	<g id="Check_Square">
		<path class="st0" d="M40.9,0H2.7C1.2,0,0,1.2,0,2.7v38.2c0,1.5,1.2,2.7,2.7,2.7h38.2c1.5,0,2.7-1.2,2.7-2.7V2.7
			C43.6,1.2,42.4,0,40.9,0z M40.9,40.9H2.7V2.7h38.2V40.9z"/>
		<path class="st0" d="M16.8,30.8c0.5,0.5,1.4,0.5,1.9,0l15-14.9c0.5-0.5,0.5-1.4,0-1.9c-0.5-0.5-1.4-0.5-1.9,0l-14,13.9l-5.8-5.7
			c-0.5-0.5-1.4-0.5-1.9,0c-0.5,0.5-0.5,1.4,0,1.9L16.8,30.8z"/>
	</g>
</g>
</svg>
