<?xml version="1.0" encoding="utf-8"?>
<!-- Generator: Adobe Illustrator 20.1.0, SVG Export Plug-In . SVG Version: 6.00 Build 0)  -->
<svg version="1.1" id="Layer_1" xmlns="http://www.w3.org/2000/svg" xmlns:xlink="http://www.w3.org/1999/xlink" x="0px" y="0px"
	 viewBox="0 0 1500 1400" style="enable-background:new 0 0 1500 1400;" xml:space="preserve">
<style type="text/css">
	.st0{fill:#E5A428;}
	.st1{fill:#00677A;}
</style>
<g>
	<path class="st0" d="M1435.7,656.3c-0.8,0-1.5,0.1-2.3,0.1c-25.6,0-46.5-19.6-48.1-44.3c-28.1-1.4-50.4-24.2-50.4-52.1
		c0-1.9,0.1-3.9,0.3-5.8c-3.2,0.4-6.4,0.7-9.7,0.7c-31.9,0-58.9-20.6-67.9-49.1c-0.7,0-1.5,0.1-2.2,0.1c-28.8,0-52.2-22.9-52.2-51.3
		c0-10.8,3.4-20.9,9.3-29.1c-8.9-8.5-14.5-20.3-14.5-33.4c0-17.9,10.4-33.5,25.5-41.2c-0.3,0-0.6,0-0.9,0c-29,0-52.5-23.1-52.5-51.6
		c0-6.9,1.4-13.4,3.9-19.4c-15.8-8.3-26.6-24.6-26.6-43.4c0-25.7,20.1-46.8,45.7-49c7.4-19.8,26.8-33.9,49.6-33.9
		c10.4,0,21.5,3.9,29.6,8.9c-0.7-35.2-20.5-65.8-49.6-82.3c0-0.4,0-0.7,0-1.1c0-27.6-22.8-50-50.9-50c-12,0-23.1,4.1-31.8,10.9
		c-6.5-2.5-13.6-3.9-21.1-3.9c-23,0-42.8,13.2-51.9,32.3c2.8,0.7,4.9,3.2,4.9,6.2c0,3.5-2.9,6.4-6.5,6.4c-3.6,0-6.5-2.9-6.5-6.4
		c0-3.4,2.7-6.2,6.1-6.3c-2.7-22.8-22.4-40.4-46.4-40.4c-3.7,0-7.2,0.4-10.7,1.2C1002.1,12.1,985.7,0,966.5,0
		c-16.1,0-30.2,8.4-37.9,21.1c-4.2-1.5-8.7-2.3-13.5-2.3c-17.9,0-33.1,11.5-38.3,27.4c3.3,0.3,5.9,3,5.9,6.3c0,3.5-2.9,6.4-6.5,6.4
		c-3.6,0-6.5-2.9-6.5-6.4c0-3.1,2.2-5.6,5.2-6.2c-7.9-4.9-17.3-7.8-27.4-7.8c-18.8,0-35.3,9.9-44.2,24.7c-5.3-2.8-11.4-4.4-17.9-4.4
		c-21.1,0-38.3,16.8-38.3,37.6c0,1.2,0.1,2.5,0.2,3.7c-11.4,9.9-18.7,24.3-18.7,40.5c0,4.9,0.7,9.7,1.9,14.2
		c0.4,0.4,0.8,0.8,1.3,1.1c21.4-12.9,44.4,1.9,61.7-7.4c-2.6,18-12.5,32.4-31.8,32.4c-16.4,0-30.5-9.4-37.2-23c-0.2,0-0.5,0-0.7,0
		c-23.6,0-42.6,18.7-42.6,41.9c0,1.5,0.1,3,0.3,4.5c-20,10-33.7,30.4-33.7,53.9c0,33.4,27.6,60.5,61.6,60.5v762.7
		c-34,0-61.6,27.1-61.6,60.5c0,23.5,13.7,43.9,33.7,53.9c-0.2,1.5-0.3,3-0.3,4.5c0,23.1,19.1,41.9,42.6,41.9c0.2,0,0.5,0,0.7,0
		c6.6-13.6,20.8-23,37.2-23c19.3,0,29.2,14.4,31.8,32.4c-17.3-9.3-40.3,5.5-61.7-7.4c-0.4,0.3-0.9,0.7-1.3,1.1
		c-1.3,4.5-1.9,9.3-1.9,14.2c0,16.1,7.2,30.6,18.7,40.5c-0.1,1.2-0.2,2.5-0.2,3.7c0,20.7,17.1,37.6,38.3,37.6
		c6.5,0,12.5-1.6,17.9-4.4c9,14.8,25.4,24.7,44.2,24.7c10.1,0,19.5-2.9,27.4-7.8c-3-0.6-5.2-3.2-5.2-6.2c0-3.5,2.9-6.4,6.5-6.4
		c3.6,0,6.5,2.9,6.5,6.4c0,3.3-2.6,6-5.9,6.3c5.2,15.9,20.4,27.4,38.3,27.4c4.7,0,9.3-0.8,13.5-2.3c7.7,12.6,21.8,21.1,37.9,21.1
		c19.3,0,35.6-12.1,41.7-28.9c3.4,0.8,7,1.2,10.7,1.2c23.9,0,43.6-17.7,46.4-40.4c-3.4-0.2-6.1-2.9-6.1-6.3c0-3.5,2.9-6.4,6.5-6.4
		c3.6,0,6.5,2.9,6.5,6.4c0,3-2.1,5.5-4.9,6.2c9.2,19.1,29,32.3,51.9,32.3c7.4,0,14.6-1.4,21.1-3.9c8.7,6.8,19.8,10.9,31.8,10.9
		c28.1,0,50.9-22.4,50.9-50c0-0.4,0-0.7,0-1.1c29.1-16.5,48.9-47.1,49.6-82.3c-8.2,5.1-19.3,8.9-29.6,8.9
		c-22.8,0-42.2-14.1-49.6-33.9c-25.6-2.2-45.7-23.3-45.7-49c0-18.8,10.8-35.2,26.6-43.4c-2.5-6-3.9-12.6-3.9-19.4
		c0-28.5,23.5-51.6,52.5-51.6c0.3,0,0.6,0,0.9,0c-15.2-7.7-25.5-23.3-25.5-41.2c0-13.1,5.5-25,14.5-33.4c-5.8-8.3-9.3-18.3-9.3-29.1
		c0-28.3,23.4-51.3,52.2-51.3c0.7,0,1.5,0,2.2,0.1c9-28.4,36-49.1,67.9-49.1c3.3,0,6.5,0.2,9.7,0.7c-0.2-1.9-0.3-3.8-0.3-5.8
		c0-27.9,22.3-50.7,50.4-52.1c1.6-24.7,22.5-44.3,48.1-44.3c0.8,0,1.5,0,2.3,0.1c9.8-25.5,34.9-43.7,64.3-43.7
		C1470.6,700,1445.5,681.8,1435.7,656.3z M1088.4,1054.2c-31.1,76-93.1,81.1-132.3,72.4c1,3.7,1.4,7.4,1.4,10.4
		c0,8.8-7.3,16-16.3,16c-4,0-7.7-1.4-10.5-3.8c-3,3.7-7.6,6.2-12.8,6.2c-9,0-16.3-7.2-16.3-16c0-3.8,1.4-7.3,3.6-10
		c-2.3-2.7-3.6-6.2-3.6-10c0-7.4,5.1-13.6,12.1-15.4c-36.7-38.6-31.6-113.1,56.5-127.1c-19.5,36.8,27.2,50.6,14.6,86.9
		c144.5-68.3-137.2-213.4,49.6-363.7c-186.8-150.3,94.9-295.4-49.6-363.7c12.6,36.3-34.1,50.1-14.6,86.9
		c-88.1-14-93.2-88.5-56.5-127.1c-7-1.8-12.1-8-12.1-15.4c0-3.8,1.4-7.3,3.6-10c-2.3-2.7-3.6-6.2-3.6-10c0-8.8,7.3-16,16.3-16
		c5.2,0,9.9,2.4,12.8,6.2c2.8-2.4,6.5-3.8,10.5-3.8c9,0,16.3,7.2,16.3,16c0,3-0.5,6.7-1.4,10.4c39.2-8.7,101.2-3.6,132.3,72.4
		c44.1,107.7-148.4,254.4,32.5,349.9c1.1-1,2.6-1.7,4.2-1.7c3.3,0,6.1,2.7,6.1,5.9c0,3.3-2.7,5.9-6.1,5.9c-1.6,0-3.1-0.6-4.2-1.7
		C940,799.8,1132.5,946.4,1088.4,1054.2z M1206.2,749.7c2.4,33.6-50.8,48.2-66.9,18.1c20.4-16.7,18.7-52.8,6.1-60.8
		c-6.7,7.7-15.6,7.8-21.6,3.6c0.6,0.1,1.1,0.1,1.7,0.1c6,0,10.9-4.8,10.9-10.7c0-5.9-4.9-10.7-10.9-10.7c-0.6,0-1.1,0.1-1.7,0.1
		c6-4.3,14.9-4.1,21.6,3.6c12.6-8,14.4-44-6.1-60.8c16.1-30.1,69.3-15.5,66.9,18.1c28.2-2.1,47.2,22.4,69.6,49.7
		C1253.4,727.2,1234.4,751.8,1206.2,749.7z"/>
	<path class="st1" d="M935.8,672.5c-1.3,0.2-2.7,0.3-4.1,0.3c-15.3,0-27.7-12.2-27.7-27.2c0-1.6,0.1-3.1,0.4-4.6c-2.6,0.6-5.3,1-8,1
		c-18.6,0-33.6-14.8-33.6-33c0-2.2,0.2-4.4,0.6-6.4c-21.4-0.5-38.6-17.7-38.6-38.8c0-2.4,0.2-4.7,0.6-7c-19-2.9-33.5-19-33.5-38.4
		c0-8.9,3-17,8.1-23.5c-6.3-5.3-10.3-13.2-10.3-22c0-9.6,4.7-18.1,12-23.4c-17.2-1.1-36.8-15.8-36.8-32.5c0-6.9,2.3-13.3,6.1-18.4
		c-16.4-1.3-29.2-14.8-29.2-31.2c0-12,6.8-22.3,16.8-27.6c-0.7-2.3-1-4.7-1-7.2c0-14.3,11.8-25.9,26.4-25.9c5.9,0,12.5,5.3,12.5,5.3
		c-0.7-25.8-13.6-34.9-30.7-34.9c-4,0-7.8,0.7-11.3,2.1c-2-16.8-16.6-29.8-34.2-29.8c-8.4,0-16.1,3-22.1,7.9
		c-6.2-4.1-13.7-6.5-21.8-6.5c-11.5,0-21.9,4.9-29,12.6c2.6,1.2,4.4,3.8,4.4,6.9c0,4.2-3.5,7.6-7.8,7.6c-4.3,0-7.8-3.4-7.8-7.6
		c0-3.4,2.2-6.3,5.4-7.3c-6.5-12.5-19.7-21.1-35-21.1c-1.5,0-3.1,0.1-4.6,0.3c-3.3-13.4-15.5-23.3-30.2-23.3
		c-12.4,0-23.1,7.2-28.1,17.5c-23.2,1.3-41.7,20.2-41.7,43.3c0,0.7,0,1.3,0.1,2c0.5-0.1,1-0.2,1.5-0.2c3.7,0,6.7,2.9,6.7,6.6
		c0,3.6-3,6.6-6.7,6.6c-3.7,0-6.7-2.9-6.7-6.6c0-1.8,0.7-3.3,1.8-4.5c-6.1-3.3-13.1-5.2-20.5-5.2c-16,0-29.9,8.7-37,21.6
		c-4.3-1.9-9-2.9-14-2.9c-19.1,0-34.7,15.2-34.7,34c0,1.4,0.1,2.8,0.3,4.1c-18.4,7.8-31.4,25.8-31.4,46.8c0,4.3,0.5,8.4,1.5,12.3
		c0,0,0,0,0,0c1.7,5.3,2.9,9.6,5.9,13.9c9.4-34.8,52.4,0.1,70.4-27.8c0,24.6-19.3,44.6-43.2,44.6c-20.6,0-37.8-14.9-42.1-34.9
		c-5.5-1.9-11.3-3-17.5-3c-9.6,0-18.5,2.6-26.2,7c-6.9-3-14.5-4.6-22.5-4.6c-31,0-56.2,24.7-56.2,55.1c0,0,0,0.1,0,0.1
		c-21.1,8-36,28-36,51.4c0,2.6,0.2,5.1,0.5,7.6c-1.3-0.1-2.6-0.2-4-0.2c-29.1,0-53,21.7-55.9,49.5c-27.2,3.8-48.2,26.8-48.2,54.6
		c0,0.9,0,1.8,0.1,2.7c-42.6,2.4-44,64.9-88.1,89.6c44.1,24.7,45.6,87.2,88.1,89.6c0,0.9-0.1,1.8-0.1,2.7c0,27.8,21,50.8,48.2,54.6
		c2.9,27.8,26.8,49.5,55.9,49.5c1.3,0,2.7-0.1,4-0.2c-0.3,2.5-0.5,5-0.5,7.6c0,23.5,14.9,43.5,36,51.4c0,0,0,0.1,0,0.1
		c0,30.4,25.1,55.1,56.2,55.1c8,0,15.6-1.7,22.5-4.6c7.7,4.4,16.7,7,26.2,7c6.1,0,12-1,17.5-3c4.3-20,21.5-34.9,42.1-34.9
		c23.8,0,43.2,20,43.2,44.6c-18-27.9-60.9,7-70.4-27.8c-3,4.3-4.2,8.6-5.9,13.9c0,0,0,0,0,0c-1,4-1.5,8.1-1.5,12.3
		c0,21,12.9,39,31.4,46.8c-0.2,1.4-0.3,2.7-0.3,4.1c0,18.8,15.5,34,34.7,34c5,0,9.8-1,14-2.9c7.2,12.8,21.1,21.6,37,21.6
		c7.4,0,14.4-1.9,20.5-5.2c-1.1-1.2-1.8-2.8-1.8-4.5c0-3.6,3-6.6,6.7-6.6c3.7,0,6.7,2.9,6.7,6.6c0,3.6-3,6.6-6.7,6.6
		c-0.5,0-1-0.1-1.5-0.2c0,0.6-0.1,1.3-0.1,2c0,23.1,18.5,42,41.7,43.3c5,10.3,15.7,17.5,28.1,17.5c14.6,0,26.9-9.9,30.2-23.3
		c1.5,0.2,3,0.3,4.6,0.3c15.3,0,28.5-8.6,35-21.1c-3.1-1-5.4-3.9-5.4-7.3c0-4.2,3.5-7.6,7.8-7.6c4.3,0,7.8,3.4,7.8,7.6
		c0,3-1.8,5.7-4.4,6.9c7.2,7.8,17.5,12.6,29,12.6c8.1,0,15.6-2.4,21.8-6.5c6,4.9,13.7,7.9,22.1,7.9c17.6,0,32.2-13,34.2-29.8
		c3.5,1.3,7.3,2.1,11.3,2.1c17.1,0,30-9.1,30.7-34.9c0,0-6.6,5.3-12.5,5.3c-14.6,0-26.4-11.6-26.4-25.9c0-2.5,0.4-4.9,1-7.2
		c-10-5.3-16.8-15.7-16.8-27.6c0-16.4,12.9-29.9,29.2-31.2c-3.8-5.2-6.1-11.5-6.1-18.4c0-16.6,19.7-31.3,36.8-32.5
		c-7.3-5.3-12-13.8-12-23.4c0-8.8,4-16.7,10.3-22c-5.1-6.5-8.1-14.7-8.1-23.5c0-19.4,14.5-35.5,33.5-38.4c-0.4-2.3-0.6-4.6-0.6-7
		c0-21.1,17.2-38.3,38.6-38.8c-0.4-2.1-0.6-4.2-0.6-6.4c0-18.2,15-33,33.6-33c2.8,0,5.5,0.3,8,1c-0.3-1.5-0.4-3-0.4-4.6
		c0-15,12.4-27.2,27.7-27.2c1.4,0,2.8,0.1,4.1,0.3c0.8-15.3,13.7-27.5,29.5-27.5C949.5,700,936.6,687.8,935.8,672.5z M532.2,606.2
		c0,0-12.1-33.7-57.7-31.6c-59.7,3.8-117.4,105-176.4,125.4c59,20.4,116.8,121.6,176.4,125.4c45.6,2.1,57.7-31.6,57.7-31.6
		c23.7-2.8,34-19.4,31.2-36.9c0,17.7-14.6,32-32.6,32c-21.4-0.4-50-32.1-76.4-34.8c12.4-28.5,41.1-48.4,74.6-48.4
		c44.8,0,81.1,35.6,81.1,79.6c0,44-47.8,90-92.1,96.6c-38.2,6.1-70.2,3-97.7-6.1c-0.2,5.9-4.6,11-10.8,11.9
		c-5.5,0.8-10.7-2-13.1-6.7c-2.1,4.6-6.5,8.1-12,8.9c-8.6,1.3-16.6-4.5-17.8-12.9c-0.6-4,0.4-7.8,2.5-10.9c-4.6-1.3-8.1-5.1-8.9-10
		c-0.6-4,0.8-7.8,3.4-10.5C294.6,793.9,257.3,709,193.4,703.8c-14.9,0-24.5,10.8-24.5,24.1c0,0-0.7,20,12.2,33.7
		c-20.8,6.1-44.9-5.3-51.3-27.1c0-0.1,0-0.1,0-0.1c0,0,0,0,0,0c-17.6-0.4-32.5-15.5-46.2-34.4c13.7-18.9,28.5-34,46.2-34.4
		c0,0,0,0,0,0c0,0,0-0.1,0-0.1c6.4-21.8,30.5-33.2,51.3-27.1c-12.9,13.7-12.2,33.7-12.2,33.7c0,13.3,9.6,24.1,24.5,24.1
		c63.9-5.2,101.1-90.1,170.2-141.8c-2.6-2.7-4-6.5-3.4-10.5c0.8-4.9,4.3-8.7,8.9-10c-2.1-3.1-3.1-6.9-2.5-10.9
		c1.3-8.4,9.3-14.2,17.8-12.9c5.5,0.8,9.8,4.3,12,8.9c2.4-4.6,7.6-7.5,13.1-6.7c6.2,0.9,10.6,6,10.8,11.9
		c27.5-9.1,59.4-12.3,97.7-6.1c44.3,6.6,92.1,52.7,92.1,96.6c0,44-36.3,79.6-81.1,79.6c-33.5,0-62.3-19.9-74.6-48.4
		c26.4-2.7,55-34.4,76.4-34.8c18,0,32.6,14.3,32.6,32C566.2,625.6,555.9,609,532.2,606.2z"/>
</g>
</svg>
