<?xml version="1.0" encoding="utf-8"?>
<!-- Generator: Adobe Illustrator 20.1.0, SVG Export Plug-In . SVG Version: 6.00 Build 0)  -->
<svg version="1.1" id="Layer_1" xmlns="http://www.w3.org/2000/svg" xmlns:xlink="http://www.w3.org/1999/xlink" x="0px" y="0px"
	 viewBox="0 0 100 150" style="enable-background:new 0 0 100 150;" xml:space="preserve">
<style type="text/css">
	.st0{fill:#00667A;}
	.st1{fill:#E7A429;}
	.st2{fill:#F4F4F5;}
</style>
<g>
	<path class="st0" d="M57.8,112.2c-6.6,10.6-13.8,22-24,29.8l66.1,0V0H90v8H33.9c10.2,7.9,17.3,19.3,24,29.8
		c8.7,13.9,17,27,30.6,32.5L100,75l-11.5,4.6C74.8,85.1,66.6,98.2,57.8,112.2z"/>
	<path class="st1" d="M57.8,112.2c8.7-13.9,17-27,30.6-32.5L100,75l-11.5-4.6c-13.6-5.5-21.9-18.6-30.6-32.5
		c-6.6-10.6-13.8-22-24-29.8H90V0h-4v4H17.9C35.3,9.4,45,24.9,54.4,40c8.7,13.8,17.6,28.1,32.5,34.1l2.3,0.9l-2.3,0.9
		c-14.9,6-23.8,20.3-32.5,34.1c-9.5,15.1-19.2,30.5-36.6,36l82.1,0v-4l-66.1,0C44.1,134.1,51.2,122.7,57.8,112.2z"/>
	<path class="st2" d="M17.9,146c17.4-5.4,27.1-20.9,36.6-36c8.7-13.8,17.6-28.1,32.5-34.1l2.3-0.9l-2.3-0.9
		c-14.9-6-23.8-20.3-32.5-34.1C45,24.9,35.3,9.4,17.9,4H86V0h-2v2L3,2C2.4,2.1,2,2.5,2,3s0.4,1,1,1l2,0c24.9,0.5,36,18.2,47.8,37
		c8.4,13.4,17.1,27.3,31.3,34c-14.2,6.6-22.9,20.5-31.3,34C41,127.8,29.8,145.5,5,146l-2,0c-0.5,0-0.9,0.4-1,1s0.4,1,0.9,1l97,0v-2
		L17.9,146z"/>
	<path class="st0" d="M3,148c-0.5,0-0.9-0.5-0.9-1s0.4-1,1-1l0,0h2c24.9-0.5,36-18.2,47.8-37c8.4-13.4,17.1-27.3,31.3-34
		c-14.2-6.6-22.9-20.5-31.3-34C41,22.2,29.8,4.5,5,4L3,4C2.5,4,2,3.6,2,3s0.4-1,0.9-1l81,0V0h-2v0c0,0-78.7,0-79,0l0,0
		C1.3,0.1,0,1.4,0,3c0,1.6,1.4,3,3,3l0,0h1.9C28.7,6.4,39.6,23.8,51,42.1c7.9,12.6,16,25.5,28.7,32.9C67.1,82.4,58.9,95.3,51,107.9
		C39.5,126.2,28.7,143.6,4.9,144L3,144c-1.6,0-3,1.3-3,3c0,1.6,1.3,3,2.9,3l97.1,0v-2L3,148z"/>
</g>
</svg>
