<?xml version="1.0" encoding="utf-8"?>
<!-- Generator: Adobe Illustrator 20.1.0, SVG Export Plug-In . SVG Version: 6.00 Build 0)  -->
<svg version="1.1" id="Layer_1" xmlns="http://www.w3.org/2000/svg" xmlns:xlink="http://www.w3.org/1999/xlink" x="0px" y="0px"
	 viewBox="0 0 100 150" style="enable-background:new 0 0 100 150;" xml:space="preserve">
<style type="text/css">
	.st0{fill:#00667A;}
	.st1{fill:#E7A429;}
	.st2{fill:#F4F4F5;}
</style>
<g>
	<path class="st0" d="M42.2,112.2c6.6,10.6,13.8,22,24,29.8L0,142L0,0l10,0v8h56.1c-10.2,7.9-17.3,19.3-24,29.8
		c-8.7,13.9-17,27-30.6,32.5L0,75l11.5,4.6C25.2,85.1,33.4,98.2,42.2,112.2z"/>
	<path class="st1" d="M42.2,112.2c-8.7-13.9-17-27-30.6-32.5L0,75l11.5-4.6c13.6-5.5,21.9-18.6,30.6-32.5c6.6-10.6,13.8-22,24-29.8
		H10V0l4,0v4h68.1C64.7,9.4,55,24.9,45.6,40c-8.7,13.8-17.6,28.1-32.5,34.1L10.8,75l2.3,0.9c14.9,6,23.8,20.3,32.5,34.1
		c9.5,15.1,19.2,30.5,36.6,36L0,146l0-4l66.1,0C55.9,134.1,48.8,122.7,42.2,112.2z"/>
	<path class="st2" d="M82.1,146c-17.4-5.4-27.1-20.9-36.6-36c-8.7-13.8-17.6-28.1-32.5-34.1L10.8,75l2.3-0.9
		c14.9-6,23.8-20.3,32.5-34.1C55,24.9,64.7,9.4,82.1,4H14V0l2,0v2l81,0c0.5,0,0.9,0.5,0.9,1s-0.4,1-1,1l-2,0
		C70.2,4.5,59,22.2,47.3,41c-8.4,13.4-17.1,27.3-31.3,34c14.2,6.6,22.9,20.5,31.3,34C59,127.8,70.2,145.5,95,146l2,0
		c0.5,0,0.9,0.4,1,1s-0.4,1-0.9,1l-97,0l0-2L82.1,146z"/>
	<path class="st0" d="M97,148c0.5,0,0.9-0.5,0.9-1s-0.4-1-1-1l0,0h-2c-24.9-0.5-36-18.2-47.8-37c-8.4-13.4-17.1-27.3-31.3-34
		c14.2-6.6,22.9-20.5,31.3-34C59,22.2,70.2,4.5,95,4l2,0c0.5,0,0.9-0.4,1-1s-0.4-1-0.9-1L16,2V0l2,0v0c0,0,78.7,0,79,0l0,0
		c1.6,0,2.9,1.4,2.9,3c0,1.6-1.4,3-3,3l0,0h-1.9C71.3,6.4,60.4,23.8,49,42.1c-7.9,12.6-16,25.5-28.7,32.9
		c12.7,7.4,20.8,20.3,28.7,32.9c11.5,18.3,22.4,35.6,46.1,36.1l1.9,0c1.6,0,3,1.3,3,3c0,1.6-1.3,3-2.9,3L0,150l0-2L97,148z"/>
</g>
</svg>
