<?xml version="1.0" encoding="utf-8"?>
<!-- Generator: Adobe Illustrator 20.1.0, SVG Export Plug-In . SVG Version: 6.00 Build 0)  -->
<svg version="1.1" id="Capa_1" xmlns="http://www.w3.org/2000/svg" xmlns:xlink="http://www.w3.org/1999/xlink" x="0px" y="0px"
	 viewBox="0 0 9.9 11.3" style="enable-background:new 0 0 9.9 11.3;" xml:space="preserve">
<style type="text/css">
	.st0{fill:#0067A5;}
</style>
<g>
	<path class="st0" d="M5,11.3L5,11.3C-0.1,9.7,0,5.7,0,2.9C0,2.6,0,2.3,0,2V1.8h0.2c1.9,0,3.4-0.5,4.6-1.6L5,0l0.2,0.1
		c1.2,1.1,2.7,1.6,4.6,1.6h0.2V2c0,0.3,0,0.6,0,0.9C10,5.7,10,9.7,5,11.3L5,11.3z M0.5,2.2c0,0.2,0,0.5,0,0.7
		c-0.1,2.9-0.1,6.5,4.5,8c4.6-1.6,4.6-5.1,4.5-8c0-0.2,0-0.5,0-0.7C7.6,2.1,6.2,1.6,5,0.6C3.7,1.6,2.3,2.1,0.5,2.2z M4.6,7.6
		L2.7,5.8l1-1l0.9,0.8l1.6-1.6l1,1L4.6,7.6z M3.3,5.8L4.6,7l2-1.9L6.2,4.7L4.6,6.3L3.7,5.5L3.3,5.8z"/>
</g>
</svg>
