<?xml version="1.0" encoding="utf-8"?>
<!-- Generator: Adobe Illustrator 20.1.0, SVG Export Plug-In . SVG Version: 6.00 Build 0)  -->
<svg version="1.1" id="Capa_1" xmlns="http://www.w3.org/2000/svg" xmlns:xlink="http://www.w3.org/1999/xlink" x="0px" y="0px"
	 viewBox="0 0 9.9 11.3" style="enable-background:new 0 0 9.9 11.3;" xml:space="preserve">
<style type="text/css">
	.st0{fill:#0067A5;}
</style>
<g>
	<path class="st0" d="M8.6,4.2V3c0-1.7-1.6-3-3.6-3S1.4,1.4,1.4,3v1.2C0.6,4.3,0,5,0,5.7v4.1c0,0.8,0.7,1.5,1.6,1.5h6.7
		c0.9,0,1.6-0.7,1.6-1.5V5.7C9.9,5,9.3,4.3,8.6,4.2z M1.8,3c0-1.4,1.4-2.6,3.2-2.6S8.1,1.6,8.1,3v1.2H1.8V3z M9.5,9.8
		c0,0.6-0.5,1.1-1.2,1.1H1.6c-0.7,0-1.2-0.5-1.2-1.1V5.7c0-0.6,0.5-1.1,1.2-1.1h6.7c0.7,0,1.2,0.5,1.2,1.1V9.8z"/>
	<path class="st0" d="M5,5.9c-0.5,0-0.9,0.4-0.9,0.8V8c0,0.5,0.4,0.8,0.9,0.8S5.9,8.4,5.9,8V6.7C5.9,6.3,5.5,5.9,5,5.9z M5.4,8
		c0,0.2-0.2,0.4-0.5,0.4S4.5,8.2,4.5,8V6.7c0-0.2,0.2-0.4,0.5-0.4s0.5,0.2,0.5,0.4V8z"/>
</g>
</svg>
