<?xml version="1.0" encoding="utf-8"?>
<!-- Generator: Adobe Illustrator 20.1.0, SVG Export Plug-In . SVG Version: 6.00 Build 0)  -->
<svg version="1.1" id="Capa_1" xmlns="http://www.w3.org/2000/svg" xmlns:xlink="http://www.w3.org/1999/xlink" x="0px" y="0px"
	 viewBox="0 0 11.3 11.3" style="enable-background:new 0 0 11.3 11.3;" xml:space="preserve">
<style type="text/css">
	.st0{fill:#0067A5;}
</style>
<g>
	<g>
		<path class="st0" d="M5.5,5.5H0l0-0.2C0.2,2.5,2.5,0.2,5.3,0l0.2,0V5.5z M0.4,5.1h4.7V0.4C2.6,0.7,0.7,2.6,0.4,5.1z"/>
	</g>
	<g>
		<g>
			<path class="st0" d="M5.7,11.3c-1.3,0-2.5-0.4-3.5-1.2C2.1,10.1,2,10,1.9,9.9L1.6,9.6C1.6,9.6,1.5,9.5,1.4,9.4
				C0.6,8.4,0.1,7.3,0,6.1l0-0.2h5.9V0l0.2,0C7.6,0.1,9,0.8,10,2c1,1.2,1.5,2.6,1.4,4.2c-0.2,2.7-2.5,5-5.2,5.2
				C6,11.3,5.8,11.3,5.7,11.3z M0.4,6.2C0.5,7.3,1,8.3,1.7,9.1h0c0.1,0.1,0.2,0.2,0.2,0.2l0.3,0.3c0.1,0.1,0.2,0.2,0.3,0.2
				c1,0.8,2.3,1.2,3.6,1.1c2.6-0.2,4.6-2.3,4.8-4.8c0.1-1.4-0.3-2.8-1.3-3.9c-0.9-1-2.1-1.7-3.4-1.8v5.8H0.4z"/>
		</g>
	</g>
</g>
</svg>
