<?xml version="1.0" encoding="utf-8"?>
<!-- Generator: Adobe Illustrator 20.1.0, SVG Export Plug-In . SVG Version: 6.00 Build 0)  -->
<svg version="1.0" id="Layer_1" xmlns="http://www.w3.org/2000/svg" xmlns:xlink="http://www.w3.org/1999/xlink" x="0px" y="0px"
	 viewBox="0 0 240 89" style="enable-background:new 0 0 240 89;" xml:space="preserve">
<style type="text/css">
	.st0{fill:#00677A;}
	.st1{fill:#E5A428;}
	.st2{fill:#F4F4F5;}
</style>
<g>
	<polyline class="st0" points="0,80 184.6,80 230.8,0 0,0 	"/>
	<polygon class="st1" points="0,80 0,89 4,89 4,84 186.9,84 235.4,0 230.8,0 184.6,80 	"/>
	<polygon class="st2" points="4,84 4,89 6,89 6,86 188,86 237.7,0 235.4,0 186.9,84 	"/>
	<polygon class="st0" points="6,86 6,89 8,89 8,88 189.2,88 240,0 237.7,0 188,86 	"/>
</g>
<rect x="238" y="0" class="st0" width="2" height="2"/>
</svg>
