<?xml version="1.0" encoding="utf-8"?>
<!-- Generator: Adobe Illustrator 20.1.0, SVG Export Plug-In . SVG Version: 6.00 Build 0)  -->
<svg version="1.0" id="Layer_1" xmlns="http://www.w3.org/2000/svg" xmlns:xlink="http://www.w3.org/1999/xlink" x="0px" y="0px"
	 viewBox="0 0 240 89" style="enable-background:new 0 0 240 89;" xml:space="preserve">
<style type="text/css">
	.st0{fill:#00677A;}
	.st1{fill:#E5A428;}
	.st2{fill:#F4F4F5;}
</style>
<g>
	<polyline class="st0" points="240,0 9.2,0 55.4,80 240,80 	"/>
	<polygon class="st1" points="55.4,80 9.2,0 4.6,0 53.1,84 236,84 236,89 240,89 240,80 	"/>
	<polygon class="st2" points="53.1,84 4.6,0 2.3,0 52,86 234,86 234,89 236,89 236,84 	"/>
	<polygon class="st0" points="52,86 2.3,0 0,0 50.8,88 232,88 232,89 234,89 234,86 	"/>
</g>
<rect class="st0" width="2" height="2"/>
</svg>
