<?xml version="1.0" encoding="utf-8"?>
<!-- Generator: Adobe Illustrator 20.1.0, SVG Export Plug-In . SVG Version: 6.00 Build 0)  -->
<svg version="1.1" id="Layer_1" xmlns="http://www.w3.org/2000/svg" xmlns:xlink="http://www.w3.org/1999/xlink" x="0px" y="0px"
	 viewBox="0 0 110 204" style="enable-background:new 0 0 110 204;" xml:space="preserve">
<style type="text/css">
	.st1{fill:#F4F4F5;}
	.st2{fill:#01687A;}
	.st3{fill:#00667A;}
	.st4{fill:#E7A429;}
</style>
<g>
	<path class="st1" d="M106.5,0L103,0v1.2C92.4,3.4,86,9.9,84.1,20.5c-0.9-0.1-1.8-0.2-2.7-0.2c-8.1,0-15.7,4.4-20,11.6
		c-3.7,6.2-4.4,13.6-2.3,20.9c-14,2.8-21.2,14.5-27.6,24.9C26.4,86,21.6,93.8,14,97l-11.2,4.7l11.3,4.7c7.6,3.2,12.4,11,17.5,19.3
		c6.4,10.4,13.6,22.1,27.6,24.9c-2.2,7.3-1.4,14.7,2.3,20.9c4.2,7.1,11.9,11.6,20,11.6c0.9,0,1.8-0.1,2.7-0.2
		c2.2,12,10.2,18.9,23.5,19.9l2.3,0.2v-3.4l-4.7-0.6"/>
	<path class="st2" d="M102,0v0.4c-10.3,2.4-16.6,8.8-18.7,19c-0.6-0.1-1.3-0.1-1.9-0.1c-8.4,0-16.4,4.6-20.9,12.1
		C57,37.4,56,44.7,57.9,52C44.1,55.3,37,66.9,30.7,77.2c-5,8.1-9.7,15.8-17,18.9l-13.4,5.6l13.5,5.6c7.3,3.1,12,10.8,17,18.9
		c6.3,10.3,13.5,21.9,27.2,25.1c-1.9,7.2-1,14.5,2.7,20.7c4.4,7.5,12.4,12.1,20.9,12.1c0.6,0,1.3,0,1.9-0.1
		c2.5,12,10.9,18.8,24.2,19.8l2.4,0.2v-2l-2.2-0.2c-12.8-1-20.4-7.4-22.6-19.1l-0.2-0.9l-0.9,0.1c-0.9,0.1-1.7,0.2-2.6,0.2
		c-7.8,0-15.1-4.3-19.1-11.1c-3.5-5.9-4.3-13.1-2.2-20.1l0.3-1.1l-1.1-0.2c-13.6-2.7-20.7-14.3-26.9-24.4
		c-5.2-8.4-10.1-16.4-18-19.7l-9.1-3.8l9-3.8c7.9-3.3,12.8-11.3,18-19.7C38.6,68,45.7,56.5,59.3,53.8l1.1-0.2l-0.3-1
		c-2.1-7.1-1.3-14.3,2.2-20.1c4.1-6.9,11.4-11.1,19.1-11.1c0.8,0,1.7,0.1,2.6,0.2l0.9,0.1l0.2-0.9C86.9,10.5,93,4.3,103.2,2.2L104,2
		V0L102,0z"/>
	<path class="st3" d="M110,198c-8.7-0.7-20.9-4.4-21.2-21.3c-15.6,6.8-33.1-10.5-22.2-30.4c-28.3,0.5-29.1-35.6-50.5-44.4
		C37.5,93.1,38.3,57,66.6,57.5c-10.9-20,6.5-37.2,22.2-30.4C89.1,10.2,101.3,6.5,110,5.8"/>
	<path class="st4" d="M110,200l0-4l-1.8-0.2c-11.8-0.9-17.4-7.1-17.6-19.3l-0.1-3l-2.7,1.2c-6.3,2.7-13.4,1.2-18.2-4
		c-4.3-4.8-7-13.4-1.5-23.6l1.7-3l-3.4,0.1c-0.2,0-0.4,0-0.5,0c-14.7,0-21.3-10.8-28.3-22.2c-4.7-7.7-9.6-15.6-17.2-20.2
		c7.6-4.6,12.5-12.5,17.2-20.2C44.6,69.9,51.3,59,66.4,59.3l3.4,0.1l-1.6-3c-5.5-10.2-2.9-18.9,1.4-23.6c4.7-5.2,11.9-6.7,18.2-4
		l2.7,1.2l0.1-3c0.2-12.2,5.8-18.4,17.6-19.3l1.8-0.1V0l-4,0v3.8c-11.8,1.5-18.2,8.4-19.3,20.3c-7.2-2-14.9,0.2-20.1,5.9
		c-4.8,5.3-8,14.5-3.4,25.4c-15.1,1.2-22.2,12.8-29.1,24c-5.4,8.7-10.4,17-19,20.5l-4.5,1.8l4.5,1.9c8.6,3.5,13.6,11.8,19,20.5
		c6.9,11.2,14,22.8,29.1,24c-4.6,10.8-1.4,20,3.4,25.3c5.3,5.8,12.9,7.9,20.1,5.9c1.1,12.6,8.2,19.5,21.1,20.5L110,200z"/>
</g>
</svg>
