<?xml version="1.0" encoding="utf-8"?>
<svg version="1.1" xmlns="http://www.w3.org/2000/svg" xmlns:xlink="http://www.w3.org/1999/xlink" x="0px" y="0px" viewBox="0 0 110 204" enable-background="new 0 0 110 204" xml:space="preserve">
    <rect x="78.3" y="195.6" fill="#582C2C" width="31.7" height="8.4" />
    <path fill="#F4F4F5" stroke="#01687A" stroke-width="2" stroke-miterlimit="10" d="M110.3,203l-2.6-0.2c-13.3-1-21.3-7.9-23.5-19.9 c-0.9,0.1-1.8,0.2-2.7,0.2c-8.1,0-15.8-4.5-20-11.6c-3.7-6.2-4.5-13.6-2.3-20.9c-14-2.8-21.2-14.5-27.6-24.9 c-5.1-8.3-9.9-16.1-17.5-19.3l-11.3-4.7L14,97c7.6-3.2,12.4-11,17.5-19.3c6.4-10.4,13.6-22.1,27.6-24.9C57,45.5,57.7,38.2,61.4,32
		c4.3-7.2,11.9-11.6,20-11.6c0.9,0,1.8,0.1,2.7,0.2C86,9.9,92.4,3.4,103,1.2l0-5.8h5.4" />
    <rect x="106.8" y="6.8" fill="#00677A" width="3.2" height="192.7" />
    <path fill="#00677A" stroke="#E7A429" stroke-width="4" stroke-miterlimit="10" d="M108-4.1v9.7C99.3,6.3,88.9,10,88.6,26.9
			c-15.7-6.8-33.1,10.4-22.2,30.4c-28.3-0.5-29.1,35.6-50.5,44.4c21.4,8.8,22.2,44.9,50.5,44.4c-10.9,19.9,6.6,37.2,22.2,30.4
			c0.3,16.9,10.7,20.6,19.4,21.3l2.2,0.2" />
</svg>
