<?xml version="1.0" encoding="utf-8"?>
<!-- Generator: Adobe Illustrator 20.1.0, SVG Export Plug-In . SVG Version: 6.00 Build 0)  -->
<svg version="1.1" id="Layer_1" xmlns="http://www.w3.org/2000/svg" xmlns:xlink="http://www.w3.org/1999/xlink" x="0px" y="0px"
	 viewBox="0 0 110 204" style="enable-background:new 0 0 110 204;" xml:space="preserve">
<style type="text/css">
	.st0{fill:#582C2C;}
	.st1{fill:#F4F4F5;stroke:#01687A;stroke-width:2;stroke-miterlimit:10;}
	.st2{fill:#00677A;}
	.st3{fill:#00677A;stroke:#E7A429;stroke-width:4;stroke-miterlimit:10;}
</style>
<rect x="-0.1" y="195.6" class="st0" width="10.3" height="8.4"/>
<path class="st1" d="M-0.3,203l2.6-0.2c13.3-1,21.3-7.9,23.5-19.9c0.9,0.1,1.8,0.2,2.7,0.2c8.1,0,15.8-4.5,20-11.6
	c3.7-6.2,4.5-13.6,2.3-20.9c14-2.8,21.2-14.5,27.6-24.9c5.1-8.3,9.9-16.1,17.5-19.3l11.3-4.7L96,97c-7.6-3.2-12.4-11-17.5-19.3
	c-6.4-10.4-13.6-22.1-27.6-24.9c2.1-7.3,1.4-14.7-2.3-20.9c-4.3-7.2-11.9-11.6-20-11.6c-0.9,0-1.8,0.1-2.7,0.2
	C24,9.9,17.6,3.4,7,1.2v-5.8H1.6"/>
<rect x="-1.1" y="6.8" class="st2" width="3.2" height="192.7"/>
<g>
	<path class="st3" d="M2-4.1v9.7c8.7,0.7,19.1,4.4,19.4,21.3c15.7-6.8,33.1,10.4,22.2,30.4c28.3-0.5,29.1,35.6,50.5,44.4
		c-21.4,8.8-22.2,44.9-50.5,44.4c10.9,19.9-6.6,37.2-22.2,30.4c-0.3,16.9-10.7,20.6-19.4,21.3l-2.2,0.2"/>
</g>
</svg>
