<?xml version="1.0" encoding="utf-8"?>
<!-- Generator: Adobe Illustrator 20.1.0, SVG Export Plug-In . SVG Version: 6.00 Build 0)  -->
<svg version="1.1" id="Layer_1" xmlns="http://www.w3.org/2000/svg" xmlns:xlink="http://www.w3.org/1999/xlink" x="0px" y="0px" viewBox="0 0 226.8 680.3" style="enable-background:new 0 0 226.8 680.3;" xml:space="preserve">
<style type="text/css">
	.st0{display:none;fill:#D8894E;}
	.st1{display:none;fill:#58C458;}
	.st2{fill:#EDEDDF;stroke:#5E5E5E;stroke-miterlimit:10;}
</style>
<polyline class="st0" points="113.4,635 204.1,478.2 204.1,376.1 113.4,351.9 22.7,376.1 22.7,478.2 113.4,635 "/>
<polyline class="st1" points="113.4,45.3 204.1,202.1 204.1,304.2 113.4,328.4 22.7,304.2 22.7,202.1 113.4,45.3 "/>
<polygon class="st2" points="68.1,340.5 0,358.8 0,484.3 113.4,680.3 226.8,484.3 226.8,358.8 22.7,304.2 22.7,202.1 113.4,45.3
	204.1,202.1 204.1,304.2 114.8,328 158.7,339.8 226.8,321.5 226.8,196 113.4,0 0,196 0,321.5 204.1,376.1 204.1,478.2 113.4,635
	22.7,478.2 22.7,376.1 111.9,352.3 "/>
</svg>
