<?xml version="1.0" encoding="utf-8"?>
<!-- Generator: Adobe Illustrator 20.1.0, SVG Export Plug-In . SVG Version: 6.00 Build 0)  -->
<svg version="1.1" id="Layer_1" xmlns="http://www.w3.org/2000/svg" xmlns:xlink="http://www.w3.org/1999/xlink" x="0px" y="0px"
	 viewBox="0 0 154 154" style="enable-background:new 0 0 154 154;" xml:space="preserve">
<style type="text/css">
	.st0{fill:#00667A;}
	.st1{fill:#F4F4F4;stroke:#E7A52A;stroke-width:4;stroke-linejoin:round;stroke-miterlimit:10;}
	.st2{fill:#F4F4F4;stroke:#04677B;stroke-width:2;stroke-linejoin:round;stroke-miterlimit:10;}
</style>
<polygon class="st0" points="1.7,1.4 1.7,146.6 141.6,1.4 "/>
<g>
	<path class="st1" d="M7.9,149v-40.9l0,0c14.8,8,32.2,3.8,40.3-11c-10.2,10.2-26.8,10.2-37.1,0l0,0c-22.4-21,5.1-63.7-7.9-93.8l0,0
		c30,13,72.8-14.4,93.8,7.9l0,0c10.2,10.2,10.2,26.8,0,37.1c14.8-8,19-25.5,11-40.3h40.9"/>
	<g>
		<path class="st2" d="M13,154v-38.4c15.6,4.7,31.7-1.5,39.7-16.1c1.2-2.2,0.6-4.9-1.4-6.4s-4.8-1.3-6.5,0.5c-8.3,8.3-21.7,8.3-30,0
			c-0.1-0.1-0.2-0.2-0.2-0.2C4.3,83.6,6.7,67.8,9.4,49.5c1.9-13,3.9-26.3,1.4-38.7c12.4,2.5,25.7,0.5,38.7-1.4
			c18.3-2.7,34.1-5.1,43.8,5.1c0.1,0.1,0.1,0.2,0.2,0.2c4,4,6.2,9.3,6.2,15s-2.2,11-6.2,15c-1.8,1.8-2,4.5-0.5,6.5s4.2,2.6,6.4,1.4
			c8.3-4.5,14.2-11.9,16.5-20.7c1.6-6.2,1.5-12.7-0.4-19H154"/>
	</g>
</g>
</svg>
