<?xml version="1.0" encoding="utf-8"?>
<!-- Generator: Adobe Illustrator 20.1.0, SVG Export Plug-In . SVG Version: 6.00 Build 0)  -->
<svg version="1.1" id="Layer_1" xmlns="http://www.w3.org/2000/svg" xmlns:xlink="http://www.w3.org/1999/xlink" x="0px" y="0px"
	 viewBox="0 0 154 154" style="enable-background:new 0 0 154 154;" xml:space="preserve">
<style type="text/css">
	.st0{fill:#00667A;}
	.st1{fill:#F4F4F4;stroke:#E7A52A;stroke-width:4;stroke-linejoin:round;stroke-miterlimit:10;}
	.st2{fill:#F4F4F4;stroke:#04677B;stroke-width:2;stroke-linejoin:round;stroke-miterlimit:10;}
</style>
<polygon class="st0" points="154,0 154,147 12.4,0 "/>
<g>
	<path class="st1" d="M146,149v-40.9l0,0c-14.8,8-32.2,3.8-40.3-11c10.2,10.2,26.8,10.2,37.1,0l0,0c22.4-21-5.1-63.7,7.9-93.8l0,0
		c-30.1,13-72.8-14.5-93.8,7.9l0,0C46.7,21.4,46.7,38,57,48.3C42.2,40.3,38,22.8,46,8H5"/>
	<g>
		<path class="st2" d="M140.9,154v-38.4c-15.6,4.7-31.7-1.5-39.7-16.1c-1.2-2.2-0.6-4.9,1.4-6.4s4.8-1.3,6.5,0.5
			c8.3,8.3,21.7,8.3,30,0c0.1-0.1,0.2-0.2,0.2-0.2c10.2-9.7,7.8-25.5,5.1-43.8c-1.9-13-3.9-26.3-1.4-38.7
			c-12.4,2.5-25.7,0.5-38.7-1.4C86,6.8,70.2,4.4,60.5,14.6c-0.1,0.1-0.1,0.2-0.2,0.2c-4,4-6.2,9.3-6.2,15s2.2,11,6.2,15
			c1.8,1.8,2,4.5,0.5,6.5s-4.2,2.6-6.4,1.4C46.1,48.2,40.2,40.8,37.9,32c-1.6-6.2-1.5-12.7,0.4-19H-0.1"/>
	</g>
</g>
</svg>
