<?xml version="1.0" encoding="utf-8"?>
<!-- Generator: Adobe Illustrator 20.1.0, SVG Export Plug-In . SVG Version: 6.00 Build 0)  -->
<svg version="1.1" id="Layer_1" xmlns="http://www.w3.org/2000/svg" xmlns:xlink="http://www.w3.org/1999/xlink" x="0px" y="0px"
	 viewBox="0 0 147 147" style="enable-background:new 0 0 147 147;" xml:space="preserve">
<style type="text/css">
	.st0{fill:#F4F4F5;}
	.st1{fill:#F4F4F4;stroke:#05687C;stroke-width:2;stroke-linejoin:round;stroke-miterlimit:10;}
	.st2{fill:none;stroke:#E7A52B;stroke-width:4;stroke-linejoin:round;stroke-miterlimit:10;}
	.st3{fill:#04677B;}
</style>
<g>
	<g>
		<path class="st0" d="M0,12.5c9.3,0,14.9,0,24.5,0c14.6,0,21.1,2.8,33.6,10.1c-7-23.4,25.2-26.9,29.7-10.3
			c15.3-15.8,34.8,2.8,51.3-4.3l0,0c-7.1,16.4,11.5,35.9-4.3,51.3c16.5,4.5,13.1,36.7-10.3,29.7c7.3,12.5,10.1,19,10.1,33.6
			c0,9.6,0,15.2,0,24.5"/>
	</g>
	<g>
		<path class="st1" d="M0,17.5c0,0,87.3,0,87.7,0c1.4,0,2.7-0.8,3.6-1.8c6.5-6.7,13.5-5.6,24.4-3.2c5.2,1.1,10.9,2.4,16.7,2l0,0l0,0
			l0,0l0,0c-0.4,5.7,0.9,11.4,2,16.7c2.4,10.9,3.5,17.9-3.2,24.4c-1,1-1.8,2.3-1.8,3.6c0,0.4,0,87.7,0,87.7"/>
	</g>
	<g>
		<path class="st2" d="M0,12.5c9.3,0,14.9,0,24.5,0c14.6,0,21.1,2.8,33.6,10.1c-7-23.4,25.2-26.9,29.7-10.3
			c15.3-15.8,34.8,2.8,51.3-4.3l0,0c-7.1,16.4,11.5,35.9-4.3,51.3c16.5,4.5,13.1,36.7-10.3,29.7c7.3,12.5,10.1,19,10.1,33.6
			c0,9.6,0,15.2,0,24.5"/>
	</g>
	<rect x="55.1" y="16.5" class="st3" width="4.5" height="2"/>
	<rect x="128.4" y="87.6" class="st3" width="2" height="4.4"/>
</g>
</svg>
