<?xml version="1.0" encoding="utf-8"?>
<!-- Generator: Adobe Illustrator 20.1.0, SVG Export Plug-In . SVG Version: 6.00 Build 0)  -->
<svg version="1.1" id="Layer_1" xmlns="http://www.w3.org/2000/svg" xmlns:xlink="http://www.w3.org/1999/xlink" x="0px" y="0px"
	 viewBox="0 0 126 126" style="enable-background:new 0 0 126 126;" xml:space="preserve">
<style type="text/css">
	.st0{fill:#00667A;}
	.st1{fill:#F4F4F5;}
	.st2{fill:none;stroke:#E7A52A;stroke-width:4;stroke-miterlimit:10;}
	.st3{fill:none;stroke:#00667A;stroke-width:2;stroke-miterlimit:10;}
</style>
<g>

		<rect x="11.4" y="9.1" transform="matrix(-1 -4.490820e-11 4.490820e-11 -1 77.9537 20.4922)" class="st0" width="55.1" height="2.3"/>

		<rect x="9" y="11.4" transform="matrix(-1 -4.478474e-11 4.478474e-11 -1 22.8267 76.8656)" class="st0" width="4.8" height="54.1"/>
	<path class="st1" d="M9,64.2C-1.6,71,0.2,85.7,10.8,90.1c-11.4,11.8,1,13.8,1,32v4l8.9,0.2c0,0-0.3-29.7-0.3-57.9
		c0-2,3.4-1.9,3.4-3.9c0-2-3.4-6-3.4-7.9c0-19.5,0-36-0.2-38.2c2.2,0.1,16.8,0.1,34.3,0.1c3.1,0,6.8,5.1,10,5.1
		c1.7,0,3.1-5.2,4.9-5.2c25.8-0.1,52.5,0.4,56.6,0.5v-6.8h-4c-18.1,0-20.1-12.6-32-1.2C85.6,0.2,70.7-1.5,64,9.4
		c-0.9,1.5-3.1,5.3-8,1c-14.2-7.3-31,6.2-45.5,0.1c0-0.1-0.1-0.1-0.1-0.1s0.1,0.1,0.1,0.2C16.4,24.7,3.7,41,9.9,55
		C14.8,61.8,10.7,63.2,9,64.2z"/>
	<g>
		<path class="st2" d="M12,126.1v-4c0-18.2-12.4-20.2-1-32c-12.2-5-12.7-23.7,3.8-28.3C-1,46.5,17.4,27,10.5,10.6
			c-0.1-0.2,0-0.1,0-0.1C27,17.4,46.4-1,61.7,14.7C66.2-1.8,85-1.3,90,10.9c11.8-11.4,13.8,1.2,32,1.2h4"/>
	</g>
	<path class="st3" d="M16.9,126v-5c-0.1-7.8-2.7-13-4.3-16.8c-2.1-5.1-2.5-6,2-10.7l5.1-5.3l-6.8-2.8c-3.8-1.6-6-5.2-5.8-9.3
		c0.2-4.6,3.5-8.1,9-9.6l8.4-2.3l-6.3-6.1c-6.7-6.5-5.6-13.5-3.2-24.4c1.1-5.2,2.4-11,2-16.7c5.7,0.4,11.5-0.9,16.7-2
		c10.9-2.4,17.9-3.5,24.4,3.2l6.1,6.3l2.3-8.4c1.5-5.4,5-8.7,9.6-9c4.1-0.2,7.7,2,9.3,5.8l2.8,6.8l5.3-5.1c4.6-4.5,5.6-4.2,10.7-2
		c3.8,1.6,9,4.3,16.8,4.5h5"/>
</g>
</svg>
