<?xml version="1.0" encoding="utf-8"?>
<!-- Generator: Adobe Illustrator 20.1.0, SVG Export Plug-In . SVG Version: 6.00 Build 0)  -->
<svg version="1.1" id="Layer_1" xmlns="http://www.w3.org/2000/svg" xmlns:xlink="http://www.w3.org/1999/xlink" x="0px" y="0px"
	 viewBox="0 0 126 126" style="enable-background:new 0 0 126 126;" xml:space="preserve">
<style type="text/css">
	.st0{fill:#00667A;}
	.st1{fill:#F4F4F5;}
	.st2{fill:none;stroke:#E7A52A;stroke-width:4;stroke-miterlimit:10;}
	.st3{fill:none;stroke:#00667A;stroke-width:2;stroke-miterlimit:10;}
</style>
<rect x="59.5" y="9.1" class="st0" width="55.1" height="2.3"/>
<rect x="112.2" y="11.4" class="st0" width="4.8" height="54.1"/>
<path class="st1" d="M116.1,55c6.2-14-6.5-30.3-0.6-44.4c0-0.1,0.1-0.2,0.1-0.2s-0.1,0-0.1,0.1C101,16.6,84.2,3.1,70,10.4
	c-4.9,4.3-7.1,0.5-8-1c-6.7-10.9-21.6-9.2-26,1.5C24.1-0.5,22.1,12.1,4,12.1H0v6.8c4.1-0.1,30.8-0.6,56.6-0.5c1.8,0,3.2,5.2,4.9,5.2
	c3.2,0,6.9-5.1,10-5.1c17.5,0,32.1,0,34.3-0.1c-0.2,2.2-0.2,18.7-0.2,38.2c0,1.9-3.4,5.9-3.4,7.9c0,2,3.4,1.9,3.4,3.9
	c0,28.2-0.3,57.9-0.3,57.9l8.9-0.2v-4c0-18.2,12.4-20.2,1-32c10.6-4.4,12.4-19.1,1.8-25.9C115.3,63.2,111.2,61.8,116.1,55z"/>
<g>
	<path class="st2" d="M0,12.1h4c18.2,0,20.2-12.6,32-1.2c5-12.2,23.8-12.7,28.3,3.8C79.6-1,99,17.4,115.5,10.5c0,0,0.1-0.1,0,0.1
		c-6.9,16.4,11.5,35.9-4.3,51.2c16.5,4.6,16,23.3,3.8,28.3c11.4,11.8-1,13.8-1,32v4"/>
</g>
<path class="st3" d="M0,17.1h5c7.8-0.2,13-2.9,16.8-4.5c5.1-2.2,6.1-2.5,10.7,2l5.3,5.1l2.8-6.8c1.6-3.8,5.2-6,9.3-5.8
	c4.6,0.3,8.1,3.6,9.6,9l2.3,8.4l6.1-6.3c6.5-6.7,13.5-5.6,24.4-3.2c5.2,1.1,11,2.4,16.7,2c-0.4,5.7,0.9,11.5,2,16.7
	c2.4,10.9,3.5,17.9-3.2,24.4l-6.3,6.1l8.4,2.3c5.5,1.5,8.8,5,9,9.6c0.2,4.1-2,7.7-5.8,9.3l-6.8,2.8l5.1,5.3c4.5,4.7,4.1,5.6,2,10.7
	c-1.6,3.8-4.2,9-4.3,16.8v5"/>
</svg>
