<?xml version="1.0" encoding="utf-8"?>
<!-- Generator: Adobe Illustrator 20.1.0, SVG Export Plug-In . SVG Version: 6.00 Build 0)  -->
<svg version="1.1" id="Layer_1" xmlns="http://www.w3.org/2000/svg" xmlns:xlink="http://www.w3.org/1999/xlink" x="0px" y="0px"
	 viewBox="0 0 103.3 103.4" enable-background="new 0 0 103.3 103.4" xml:space="preserve">
<g>
	<g>
		<path fill="#F4F4F4" stroke="#E7A429" stroke-width="4" stroke-miterlimit="10" d="M1.2,9.6c4.7-4.1,11.7-7.5,20,0.5
			C25.8-1,42.8-1.4,47,13.6c13.9-14.4,31.7,2.5,46.7-3.9c-6.5,15,10.4,32.7-3.9,46.7c15,4.1,14.6,21.2,3.5,25.7
			c8,8.3,4.6,15.3,0.5,20"/>
	</g>
	<g>
		<path fill="#F4F4F4" stroke="#00667A" stroke-width="2" stroke-miterlimit="10" d="M90.1,98.5c4-4.8,3.8-8.4-0.6-13l-5.1-5.3
			l6.8-2.8c3.2-1.3,5.2-4.5,5-8c-0.2-4-3.1-7-7.9-8.3l-8.4-2.3l6.3-6.1c5.9-5.8,4.9-12,2.8-21.8c-1-4.6-2.1-9.7-1.9-14.8
			C82,16.4,77,15.3,72.3,14.3c-9.8-2.1-16-3.1-21.8,2.8l-6.1,6.3l-2.3-8.4c-1.3-4.8-4.3-7.6-8.3-7.9c-3.5-0.2-6.6,1.7-8,5l-2.8,6.8
			l-5.3-5.1c-4.5-4.4-8.2-4.5-13-0.6"/>
	</g>
</g>
</svg>
