<?xml version="1.0" encoding="utf-8"?>
<!-- Generator: Adobe Illustrator 20.1.0, SVG Export Plug-In . SVG Version: 6.00 Build 0)  -->
<svg version="1.1" id="Layer_1" xmlns="http://www.w3.org/2000/svg" xmlns:xlink="http://www.w3.org/1999/xlink" x="0px" y="0px"
	 viewBox="0 0 40 40" style="enable-background:new 0 0 40 40;" xml:space="preserve">
<style type="text/css">
	.st0{fill:none;stroke:#FF9F00;stroke-width:1.2;}
	.st1{fill:url(#SVGID_1_);}
	.st2{fill:url(#SVGID_2_);}
	.st3{fill:#D12236;}
	.st4{fill:#605D5C;}
	.st5{fill:none;stroke:#AA1F00;}
</style>
<g>
	<path class="st0" d="M23.3,15.5c0-2.1-1.7-3.8-3.8-3.8c-2.1,0-3.8,1.7-3.8,3.8c0,2.1,1.7,3.8,3.8,3.8
		C21.6,19.2,23.3,17.5,23.3,15.5z"/>
	
		<radialGradient id="SVGID_1_" cx="25.9223" cy="40.9886" r="2.231378e-02" gradientTransform="matrix(122.472 0 0 -142.2 -3160.6638 5831.8779)" gradientUnits="userSpaceOnUse">
		<stop  offset="0" style="stop-color:#FFFFFF"/>
		<stop  offset="0.4118" style="stop-color:#E8909A"/>
		<stop  offset="1" style="stop-color:#D12236"/>
	</radialGradient>
	<path class="st1" d="M18.6,0.8l-5.9,3.5c-1.5,0.6-1.2,2.3-1.2,2.3l0,0l0,12.6l3.1-1.8c-1.6-6.2,4-7.2,4-7.2l0,0V5.2
		c0.1-1.5,1.2-0.6,1.2-0.6l0,0l7.8,4.5l0-2.4c0-2-1.1-2.3-1.1-2.3l0,0l-6-3.5c-0.3-0.2-0.6-0.3-0.9-0.3C19,0.5,18.6,0.8,18.6,0.8
		L18.6,0.8z"/>
	
		<linearGradient id="SVGID_2_" gradientUnits="userSpaceOnUse" x1="-40.3323" y1="-11290.29" x2="-139.1815" y2="-11187.998" gradientTransform="matrix(7.200000e-02 0 0 -7.200000e-02 25.984 -793.7679)">
		<stop  offset="0" style="stop-color:#FFD88B"/>
		<stop  offset="7.843140e-02" style="stop-color:#FFD88B"/>
		<stop  offset="0.4902" style="stop-color:#FFD55D"/>
		<stop  offset="1" style="stop-color:#FFD22E"/>
	</linearGradient>
	<path class="st2" d="M15.9,15.5c0,2,1.6,3.6,3.6,3.6c2,0,3.6-1.6,3.6-3.6l0,0c0-2-1.6-3.6-3.6-3.6C17.5,11.8,15.9,13.5,15.9,15.5z"
		/>
	<path class="st3" d="M20.2,6.6l11,6.4c0,0,1.6,0.6,1.4,2.2l0.1,6.8c0,0,0.2,1.1-0.9,1.6l-6,3.3c0,0-0.9,0.9-2.6-0.2l-2.1-1.2
		l7.7-4.4c0,0,1.4-0.5,0.1-1.3l-4.3-2.5c0,0,1.9-5.3-4.4-7.1L20.2,6.6z"/>
	<path class="st4" d="M15.4,32.5c0,0.5,0,1,0,1.5c0.5,0,1,0,1.5,0c0.2,0,0.3-0.1,0.3-0.3c0-0.4,0-0.8,0-1.2c0-0.2-0.1-0.3-0.3-0.3
		c-0.4,0-0.8,0-1.2,0C15.6,32.2,15.4,32.3,15.4,32.5z M11.1,29.1c0.3-0.2,0.7-0.3,1.1-0.3c0,1.5,0,3,0,4.6c0,0.3,0.3,0.6,0.6,0.6
		c0.3,0,0.6,0,0.8,0c0.2,0,0.3-0.2,0.3-0.3c0-0.3,0-0.6,0-1c0-0.1,0-0.3,0-0.4c0,0,0,0,0-0.1c0.1-0.4,0.4-0.8,0.7-0.9
		c0.2-0.1,0.4-0.1,0.6-0.1c0.6,0,1.1,0,1.7,0c0.2,0,0.5,0,0.7,0c0.5,0.1,0.9,0.6,1,1.1c0,0.2,0,0.5,0,0.7c0,0.2,0,0.5,0,0.7
		c0,0.4-0.3,0.8-0.6,1c-0.2,0.1-0.4,0.2-0.7,0.2c-0.4,0-0.8,0-1.2,0c-0.3,0-0.7-0.1-1-0.4c-0.2,0.2-0.5,0.4-0.8,0.4
		c-0.7,0-1.3,0-2,0c-0.3,0-0.7-0.1-1-0.4C11.3,34.9,11,35,10.8,35c-0.1,0-0.3,0-0.4,0c-0.4,0-0.7,0-1.1,0c-0.3,0-0.7-0.1-0.9-0.4
		c-0.3,0.2-0.6,0.4-0.9,0.4c-1.8,0-3.6,0-5.4,0c-0.2,0-0.4-0.1-0.6-0.2h0c-0.3-0.2-0.6-0.5-0.7-0.9v0c0,0,0-0.1,0-0.1
		c0-0.1,0-0.2,0-0.3c0-0.8,0-1.6,0-2.4c0.4,0,0.8,0.1,1.1,0.3c0.2,0.2,0.3,0.4,0.4,0.6c0,0.3,0,0.7,0,1c0,0.1,0,0.2,0,0.3
		c0,0.3,0.3,0.6,0.6,0.6c1.3,0,2.6,0,3.9,0C6.9,34,7,34,7,34c0.2-0.1,0.4-0.3,0.4-0.6c0-0.2,0-0.5,0-0.7c0-0.3,0-0.5,0.1-0.8
		c0.1-0.3,0.3-0.5,0.6-0.6c0.3-0.1,0.5-0.1,0.8-0.1c0,0.6,0,1.3,0,1.9c0,0.3,0,0.6-0.2,0.9c0.4,0,0.9,0,1.3,0c0.3,0,0.6-0.3,0.6-0.6
		c0-1.1,0-2.3,0-3.4c0-0.1,0-0.2,0-0.3c0,0,0,0,0-0.1C10.8,29.4,11,29.2,11.1,29.1z"/>
	<path class="st3" d="M26.9,20.5l-11.1,6.3c0,0-1.3,1.1-2.6,0.1l-5.9-3.3c0,0-1-0.4-0.9-1.6L6.5,15c0,0-0.3-1.2,1.5-2.1l2.1-1.2
		L10,20.6c0,0-0.3,1.4,1.1,0.7l4.3-2.5c0,0,3.7,4.3,8.3-0.2L26.9,20.5z"/>
	<path class="st5" d="M11.5,19.2l0-12.6c0,0-0.3-1.7,1.2-2.3l5.9-3.5c0,0,0.9-0.7,1.8,0l6,3.5c0,0,1.2,0.3,1.1,2.3l0,2.4l-7.8-4.5
		c0,0-1.1-1-1.2,0.6v4.9c0,0-5.6,1-4,7.2L11.5,19.2z"/>
	<path class="st5" d="M20.2,6.6l11,6.4c0,0,1.6,0.6,1.4,2.2l0.1,6.8c0,0,0.2,1.1-0.9,1.6l-6,3.3c0,0-0.9,0.9-2.6-0.2l-2.1-1.2
		l7.7-4.4c0,0,1.4-0.5,0.1-1.3l-4.3-2.5c0,0,1.9-5.3-4.4-7.1L20.2,6.6z"/>
	<path class="st5" d="M26.9,20.5l-11.1,6.3c0,0-1.3,1.1-2.6,0.1l-5.9-3.3c0,0-1-0.4-0.9-1.6L6.5,15c0,0-0.3-1.2,1.5-2.1l2.1-1.2
		L10,20.6c0,0-0.3,1.4,1.1,0.7l4.3-2.5c0,0,3.7,4.3,8.3-0.2L26.9,20.5z"/>
	<path class="st4" d="M28.5,29.2c0.2-0.3,0.5-0.4,0.9-0.4c0.1,0,0.3,0,0.4,0c0,1.4,0,2.9,0,4.3c0,0.2,0,0.3,0.1,0.5
		c0.1,0.2,0.3,0.4,0.6,0.4c0.3,0,0.7,0,1,0c0.2,0,0.3-0.1,0.3-0.3c0-0.1,0-0.2,0-0.3c0-0.4,0-0.9,0-1.3c0-0.2,0.1-0.5,0.3-0.6
		c0.2-0.1,0.4-0.2,0.6-0.2c0,0,0.1,0,0.1,0c0.2,0,0.3,0,0.5,0c0,0.8,0,1.6,0,2.5c0,0.2,0,0.4-0.1,0.6C33,34.7,32.5,35,32,35.1
		c-0.7,0-1.4,0-2.1,0c-0.3,0-0.7-0.1-0.9-0.3c0,0,0,0-0.1,0c-0.2,0.2-0.6,0.3-0.9,0.3c-1.7,0-3.3,0-5,0c-0.2,0-0.4,0-0.5,0
		c-0.4-0.1-0.8-0.5-0.9-0.9c-0.1-0.2-0.1-0.3-0.1-0.5c0-0.8,0-1.6,0-2.4c0.4,0,0.7,0.1,1,0.3c0.2,0.2,0.4,0.4,0.4,0.7
		c0,0.4,0,0.7,0,1.1c0,0.1,0,0.1,0,0.2c0,0.3,0.3,0.6,0.6,0.6c1.3,0,2.5,0,3.8,0c0.1,0,0.3,0,0.4,0c0.2-0.1,0.3-0.3,0.4-0.5
		c0-0.1,0-0.3,0-0.4c0-1.1,0-2.2,0-3.3C28.3,29.6,28.4,29.4,28.5,29.2z"/>
	<path class="st4" d="M34.5,28.8c0.3,0,0.5,0,0.8,0.1c0.3,0.1,0.6,0.3,0.7,0.6C36,29.7,36,30,36,30.2c0,1,0,2.1,0,3.1
		c0,0.3,0.1,0.5,0.4,0.6c0.1,0.1,0.3,0.1,0.5,0.1c0.3,0,0.5,0,0.8,0c0.1,0,0.1,0,0.2-0.1c0,0,0,0,0.1-0.1c0-0.1,0-0.1,0.1-0.2
		c0-0.1,0-0.3,0-0.4c0-0.4,0-0.8,0-1.2c0-0.5,0.5-0.8,0.9-0.9c0,0,0.1,0,0.1,0c0,0,0.1,0,0.1,0c0.1,0,0.3,0,0.4,0c0,0,0,0.1,0,0.1
		c0,0.8,0,1.6,0,2.4c0,0.3-0.2,0.7-0.4,0.9h0c0,0-0.1,0-0.1,0.1v0c-0.2,0.2-0.5,0.3-0.8,0.3c-0.8,0-1.6,0-2.3,0
		c-0.3,0-0.5-0.1-0.7-0.2c-0.4-0.2-0.6-0.7-0.6-1.1C34.5,32.1,34.5,30.5,34.5,28.8z"/>
	<path class="st4" d="M31.4,29.2c0.1-0.1,0.2,0,0.3,0c0.2,0.2,0.4,0.4,0.7,0.7c0.1,0.1,0.1,0.2,0,0.3c-0.2,0.2-0.4,0.4-0.7,0.7
		c-0.1,0.1-0.2,0.1-0.3,0c-0.2-0.2-0.4-0.4-0.6-0.6c-0.1,0-0.1-0.1-0.1-0.2c0-0.1,0.1-0.2,0.2-0.2C31,29.6,31.2,29.4,31.4,29.2z"/>
	<path class="st4" d="M4,29.9c0-0.1,0.1-0.1,0.2-0.1c0.1,0,0.1,0.1,0.2,0.1c0.2,0.2,0.4,0.4,0.6,0.6c0.2-0.2,0.4-0.4,0.5-0.5
		c0.1-0.1,0.1-0.2,0.2-0.2c0.1,0,0.1,0,0.2,0.1c0.2,0.2,0.4,0.4,0.7,0.7c0.1,0.1,0.1,0.2,0,0.3c-0.2,0.2-0.5,0.5-0.7,0.7
		c-0.1,0.1-0.2,0.1-0.3,0c-0.2-0.2-0.4-0.4-0.6-0.6c0,0,0,0,0,0c0,0,0,0,0,0c-0.2,0.2-0.4,0.4-0.6,0.6c-0.1,0.1-0.2,0.1-0.3,0
		c-0.2-0.2-0.4-0.4-0.7-0.7c-0.1-0.1-0.1-0.2,0-0.3C3.5,30.3,3.8,30.1,4,29.9z"/>
	<path class="st4" d="M25.3,30.1c0.1-0.1,0.3-0.1,0.4-0.1c0.2,0,0.3,0,0.5,0c-0.1,0.2-0.2,0.4-0.3,0.6c0.1,0,0.2,0,0.3,0
		c0.1,0,0.2,0.2,0.2,0.3c0,0.2-0.1,0.3-0.1,0.4c-0.1,0.1-0.1,0.2-0.2,0.3c-0.1,0.1-0.2,0.2-0.3,0.2c-0.2,0-0.4,0-0.7,0
		c0.1-0.2,0.2-0.4,0.3-0.6c0,0,0,0,0,0c-0.1,0-0.2,0-0.4,0c-0.1,0-0.2-0.2-0.2-0.3c0-0.2,0.1-0.3,0.1-0.4
		C25.1,30.3,25.1,30.2,25.3,30.1z"/>
	<path class="st4" d="M36.9,35.6c0.1-0.1,0.2-0.1,0.3,0c0.2,0.2,0.4,0.4,0.7,0.7c0.1,0.1,0.1,0.2,0,0.3c-0.2,0.2-0.4,0.4-0.7,0.7
		c0,0.1-0.1,0.1-0.2,0.1c-0.1,0-0.1-0.1-0.2-0.1c-0.2-0.2-0.4-0.4-0.6-0.6c0,0,0,0,0,0c-0.1-0.1-0.1-0.2,0-0.3
		C36.4,36,36.7,35.8,36.9,35.6z"/>
	<path class="st4" d="M5.7,38.5c0,0.3,0,0.5,0,0.8c0,0.1,0,0.1,0.1,0.2c0,0,0.1,0,0.1,0c0.3,0,0.6,0,0.9,0c0,0,0.1,0,0.1,0
		c0.1,0,0.1-0.1,0.1-0.1c0-0.2,0-0.5,0-0.7c0-0.1-0.1-0.2-0.2-0.1C6.5,38.5,6.1,38.5,5.7,38.5z M5,36.7c0.2,0,0.5,0,0.6,0.2
		c0.1,0.1,0.2,0.3,0.2,0.4c0,0.3,0,0.6,0,0.9C5.8,38.1,5.9,38,6,38c0.2-0.1,0.5,0,0.7,0c0.3,0,0.5,0,0.8,0.1
		c0.2,0.1,0.3,0.3,0.3,0.5c0,0.2,0,0.4,0,0.6c0,0.2,0,0.4-0.1,0.6c0,0,0,0,0,0c0,0.1-0.1,0.1-0.2,0.2C7.5,40,7.3,40,7.1,40
		c-0.5,0-0.9,0-1.4,0c-0.2,0-0.5-0.1-0.6-0.3C5,39.6,5,39.4,5,39.3C5,38.4,5,37.5,5,36.7z"/>
	<path class="st4" d="M14.9,36.7c0.2,0,0.4,0,0.6,0.2c0.1,0.1,0.2,0.3,0.2,0.4c0,0.5,0,1,0,1.5c0.2,0,0.5,0,0.7-0.1
		c0.3-0.1,0.5-0.4,0.6-0.7c0.2,0,0.5,0,0.7,0c0,0.3-0.3,0.6-0.5,0.8c0.2,0.1,0.4,0.2,0.4,0.4c0.1,0.3,0.1,0.6,0.1,0.8
		c-0.3,0-0.5,0-0.8,0c0-0.2,0-0.4,0-0.6c0-0.1-0.1-0.2-0.2-0.2c-0.3,0-0.7,0-1,0c0,0.3,0,0.5,0,0.8c-0.3,0-0.5,0-0.8,0
		C14.9,38.9,14.9,37.8,14.9,36.7z"/>
	<path class="st4" d="M27.8,36.7c0.2,0,0.4,0,0.5,0.1c0.1,0.1,0.2,0.2,0.2,0.3c0,1,0,1.9,0,2.9c-0.3,0-0.5,0-0.8,0
		C27.8,38.9,27.8,37.8,27.8,36.7z"/>
	<path class="st4" d="M29.3,36.7c0.1,0,0.2,0,0.2,0c0.2,0,0.3,0.1,0.4,0.2C30,37,30,37.1,30,37.3c0,0.9,0,1.8,0,2.7
		c-0.3,0-0.5,0-0.8,0C29.2,38.9,29.2,37.8,29.3,36.7z"/>
	<path class="st4" d="M34.1,37.2c0.2,0,0.5,0,0.6,0.2c0.1,0.1,0.2,0.3,0.2,0.5c0.1,0,0.2,0,0.4,0c0,0.2,0,0.4,0,0.5
		c-0.1,0-0.2,0-0.4,0c0,0.3,0,0.6,0,0.9c0,0.2,0.2,0.1,0.4,0.1c0,0.2,0,0.4,0,0.5c-0.2,0-0.5,0-0.7-0.1c-0.2-0.1-0.4-0.3-0.4-0.6
		c0-0.3,0-0.6,0-0.9c-0.1,0-0.2,0-0.3,0c0-0.2,0-0.4,0-0.5c0.1,0,0.2,0,0.3,0C34.1,37.7,34.1,37.5,34.1,37.2z"/>
	<path class="st4" d="M20.3,38.1c0.2-0.2,0.4-0.2,0.6-0.2c0.2,0,0.5,0,0.7,0c0.1,0,0.3,0.1,0.3,0.2c0.2-0.2,0.4-0.3,0.7-0.2
		c0.3,0,0.6,0,0.9,0.1c0.2,0.1,0.3,0.3,0.4,0.5c0,0.5,0,1,0,1.5c-0.3,0-0.5,0-0.8,0c0-0.4,0-0.8,0-1.2c0-0.1,0-0.2,0-0.3
		c0,0-0.1-0.1-0.1-0.1c-0.1,0-0.3,0-0.4,0c-0.2,0-0.3,0-0.5,0c0,0.1,0,0.3,0,0.4c0,0.4,0,0.8,0,1.1c-0.3,0-0.5,0-0.8,0
		c0-0.5,0-0.9,0-1.4c0-0.1,0-0.1-0.1-0.2c-0.3,0-0.6,0-0.9,0c0,0,0,0.1,0,0.1c0,0.5,0,0.9,0,1.4c-0.3,0-0.5,0-0.8,0c0-0.7,0-1.4,0-2
		c0.1,0,0.2,0,0.3,0C20,38,20.1,38,20.3,38.1C20.2,38.2,20.2,38.2,20.3,38.1z"/>
	<path class="st4" d="M9.2,38.5c0,0-0.1,0.1-0.1,0.1c0,0.1,0,0.2,0,0.4c0,0.1,0,0.3,0,0.4c0,0,0.1,0.1,0.1,0.1c0.1,0,0.2,0,0.2,0
		c0.3,0,0.7,0,1,0c0-0.2,0-0.4,0-0.7c0-0.1,0-0.2,0-0.2c0,0-0.1-0.1-0.1-0.1c0,0-0.1,0-0.1,0c-0.3,0-0.6,0-0.9,0
		C9.3,38.4,9.2,38.5,9.2,38.5z M8.4,38.2C8.6,38,8.8,37.9,9,37.9c0.5,0,0.9,0,1.4,0c0.2,0,0.3,0,0.5,0.1c0.1,0.1,0.2,0.2,0.3,0.4
		c0,0.1,0,0.3,0,0.4c0,0.4,0,0.7,0,1.1c-0.2,0-0.5,0-0.7-0.2c0,0,0,0,0,0c0,0,0,0,0,0C10.4,39.9,10.2,40,10,40c-0.3,0-0.6,0-0.9,0
		c-0.2,0-0.5-0.1-0.6-0.3c0-0.1-0.1-0.1-0.1-0.2c0,0,0-0.1,0-0.1c0-0.2,0-0.5,0-0.7C8.3,38.5,8.3,38.3,8.4,38.2z"/>
	<path class="st4" d="M11.7,37.9c0.2,0,0.5,0.1,0.6,0.2c0.1-0.2,0.3-0.2,0.6-0.2c0.3,0,0.5,0,0.8,0c0.2,0,0.4,0,0.5,0.2l0,0
		c0.1,0.1,0.2,0.2,0.2,0.4c0,0.5,0,1,0,1.5c-0.3,0-0.5,0-0.8,0c0-0.4,0-0.9,0-1.3c0-0.1,0-0.1-0.1-0.2c-0.1,0-0.2,0-0.3,0
		c-0.3,0-0.5,0-0.8,0c0,0.5,0,1,0,1.5c-0.3,0-0.5,0-0.8,0C11.7,39.3,11.7,38.6,11.7,37.9z"/>
	<path class="st4" d="M25.3,38.5c-0.1,0-0.1,0.2-0.1,0.3c0.4,0,0.9,0,1.3,0c0.2,0,0.2-0.3,0.1-0.3c-0.1,0-0.2,0-0.3,0
		c-0.2,0-0.5,0-0.7,0C25.4,38.5,25.3,38.4,25.3,38.5z M24.7,38c0.2-0.1,0.4-0.1,0.6-0.1c0.4,0,0.9,0,1.3,0c0.2,0,0.5,0.1,0.6,0.3
		c0.1,0.2,0.1,0.4,0.1,0.6c0,0.2-0.2,0.3-0.4,0.3c-0.4,0-0.9,0-1.3,0c-0.2,0-0.4,0-0.5-0.2c0,0.1,0,0.3,0,0.4c0,0.1,0.1,0.1,0.1,0.1
		c0.1,0,0.2,0,0.3,0c0.4,0,0.8,0,1.2,0c0.2,0,0.5,0.3,0.5,0.5c-0.7,0-1.4,0-2.1,0c-0.2,0-0.3,0-0.5-0.1c-0.2-0.1-0.3-0.2-0.3-0.4
		c0-0.3,0-0.7,0-1C24.4,38.2,24.6,38.1,24.7,38z"/>
	<path class="st4" d="M31.5,38.5c-0.1,0-0.1,0.1-0.1,0.1c0,0.2,0,0.5,0,0.7c0,0.1,0.1,0.1,0.1,0.1c0.1,0,0.1,0,0.2,0
		c0.4,0,0.7,0,1.1,0c0-0.2,0-0.5,0-0.7c0-0.1,0-0.1,0-0.2c0-0.1-0.1-0.1-0.1-0.1c-0.1,0-0.2,0-0.2,0c-0.2,0-0.4,0-0.7,0
		C31.6,38.5,31.5,38.4,31.5,38.5z M30.7,38.3c0.1-0.2,0.4-0.3,0.6-0.3c0.4,0,0.8,0,1.3,0c0.2,0,0.4,0,0.6,0.1
		c0.2,0.1,0.4,0.3,0.4,0.6c0,0.5,0,0.9,0,1.4c-0.2,0-0.5,0-0.7-0.2c-0.1,0.2-0.4,0.2-0.6,0.2c-0.3,0-0.6,0-0.9,0
		c-0.2,0-0.5-0.1-0.6-0.3c-0.1-0.2-0.1-0.5-0.1-0.7C30.6,38.7,30.5,38.5,30.7,38.3z"/>
</g>
</svg>
