<?xml version="1.0" encoding="utf-8"?>
<!-- Generator: Adobe Illustrator 20.1.0, SVG Export Plug-In . SVG Version: 6.00 Build 0)  -->
<svg version="1.1" id="Layer_1" xmlns="http://www.w3.org/2000/svg" xmlns:xlink="http://www.w3.org/1999/xlink" x="0px" y="0px"
	 viewBox="0 0 40 40" style="enable-background:new 0 0 40 40;" xml:space="preserve">
<style type="text/css">
	.st0{fill:#ED3237;}
</style>
<g id="__x0023_Layer_x0020_3">
	<g id="_908020352">
		<circle class="st0" cx="28.9" cy="3.7" r="3.7"/>
		<circle class="st0" cx="20" cy="6.3" r="3.7"/>
		<circle class="st0" cx="11.8" cy="10" r="3.7"/>
		<path class="st0" d="M20,24.1c0,1.7,0,3.6,0,5.4c-7.9,0.4-11.5-2.4-11.1-8.3C9.2,15.2,23.1,8.5,35.6,7.7L35.3,14
			c-6.3,0.6-13.9,2.3-18.3,5.2C12.7,22.1,15.7,24.6,20,24.1z"/>
		<path class="st0" d="M20,23.6c0-1.7,0-3.6,0-5.4c7.9-0.4,11.5,2.4,11.1,8.3S16.9,39.2,4.4,40l0.2-6.3c6.3-0.6,13.9-2.3,18.3-5.2
			C27.3,25.6,24.3,23.1,20,23.6z"/>
	</g>
</g>
</svg>
